<?xml version="1.0" encoding="UTF-8"?>
<svg id="Capa_2" data-name="Capa 2" xmlns="http://www.w3.org/2000/svg" viewBox="0 0 473.51 315.3">
  <defs>
    <style>
      .cls-1 {
        fill: none;
        stroke: #000;
        stroke-miterlimit: 10;
        stroke-width: 2px;
      }

      .cls-2 {
        fill: #222221;
      }

      .cls-3 {
        fill: #eee8dd;
      }

      .cls-4 {
        fill: #141511;
      }
    </style>
  </defs>
  <g id="Capa_1-2" data-name="Capa 1">
    <path class="cls-3" d="M416.31,131.49V24.51c0-3.23-2.62-5.86-5.86-5.86h-99.73c-3.24,0-5.86-2.62-5.86-5.86V6.86c0-3.24-2.62-5.86-5.86-5.86H54.43c-3.24,0-5.86,2.62-5.86,5.86V220.32c0,3.24,2.62,5.86,5.86,5.86H410.45c3.24,0,5.86-2.62,5.86-5.86v-25.41c0-3.23-2.62-5.86-5.86-5.86h-111.92c-3.24,0-5.86-2.62-5.86-5.86v-39.99c0-3.24,2.62-5.86,5.86-5.86h111.92c3.24,0,5.86-2.62,5.86-5.86"/>
    <path class="cls-1" d="M416.31,131.49V24.51c0-3.23-2.62-5.86-5.86-5.86h-99.73c-3.24,0-5.86-2.62-5.86-5.86V6.86c0-3.24-2.62-5.86-5.86-5.86H54.43c-3.24,0-5.86,2.62-5.86,5.86V220.32c0,3.24,2.62,5.86,5.86,5.86H410.45c3.24,0,5.86-2.62,5.86-5.86v-25.41c0-3.23-2.62-5.86-5.86-5.86h-111.92c-3.24,0-5.86-2.62-5.86-5.86v-39.99c0-3.24,2.62-5.86,5.86-5.86h111.92c3.24,0,5.86-2.62,5.86-5.86Z"/>
    <path class="cls-4" d="M78.37,36.7c2.39,6.1,4.7,11.58,6.91,16.45l16.43,36.8,14.81-33.68c4.25-9.67,6.85-16.19,7.81-19.57,1.08,.13,2.75,.2,5.03,.2,3.47,0,7-.13,10.59-.39l.36,.29v2.43l-.36,.29c-2.93,.19-4.76,.68-5.47,1.46-.42,.65-.69,1.91-.81,3.8-.12,2.6-.18,7.37-.18,14.31v21.71c0,7.01,.06,11.75,.18,14.21,.12,1.88,.39,3.21,.81,3.99,.72,.78,2.54,1.27,5.47,1.46l.36,.29v2.43l-.36,.29c-3.59-.26-7.15-.39-10.68-.39s-7,.13-10.59,.39l-.36-.29v-2.43l.36-.29c3.11-.32,4.97-.81,5.57-1.46,.54-.91,.84-2.24,.9-3.99,.06-1.23,.09-5.94,.09-14.12V46.33l-15.26,34.07c-3.11,6.94-6.37,14.96-9.78,24.04h-1.79c-1.2-3.44-2.48-6.68-3.86-9.73l-20.74-47.51v33.58c0,7.01,.12,11.52,.36,13.53,.18,2.21,.54,3.77,1.08,4.67,.72,.78,2.54,1.27,5.48,1.46l.36,.29v2.43l-.36,.29c-1.97-.26-4.94-.39-8.89-.39-2.27,0-5.21,.13-8.8,.39l-.36-.29v-2.43l.36-.29c2.93-.2,4.76-.68,5.48-1.46,.54-.91,.84-2.24,.9-3.99,.18-3.44,.3-8.18,.36-14.21l.27-31.15c0-5-.45-7.95-1.35-8.86-.6-.52-2.48-.94-5.66-1.27l-.36-.29v-2.43l.36-.29c3.59,.26,7.15,.39,10.68,.39,.6,0,1.32-.03,2.15-.1,.84-.06,1.68-.1,2.51-.1"/>
    <path class="cls-4" d="M184.02,95.4l.72,.78-1.44,3.31c-4.25,3.44-9.04,5.16-14.36,5.16-6.28,0-11.25-2-14.9-5.99-3.65-3.99-5.48-9.39-5.48-16.21,0-4.41,.54-8.19,1.62-11.34,1.08-3.15,3.08-5.73,6.01-7.74,4.37-3.5,8.86-5.26,13.46-5.26,5.27,0,9.3,1.53,12.12,4.58,2.81,3.05,4.22,7.46,4.22,13.24,0,.65-.06,1.75-.18,3.31l-.45,.49c-2.15,.84-7.03,1.27-14.63,1.27h-13.82c0,5.58,1.3,10.08,3.9,13.48,2.6,3.41,6.42,5.11,11.44,5.11,4.19,0,8.11-1.39,11.76-4.19m-27.11-18.2c3.29,.33,7.84,.49,13.64,.49,4.07,0,6.55-.1,7.45-.29v-1.75c0-9.54-3.38-14.31-10.14-14.31-3.95,0-6.76,1.51-8.44,4.53-1.68,3.02-2.51,6.8-2.51,11.34"/>
    <path class="cls-4" d="M252.86,103.38c-.36,0-.54-.36-.54-1.07,.6-2.08,.93-3.24,.99-3.5,.42-4.02,.63-9.47,.63-16.35v-1.65c0-2.53-.12-4.69-.36-6.47-.24-1.78-.72-3.52-1.44-5.21-.72-1.69-1.83-2.95-3.32-3.8-1.5-.84-3.38-1.26-5.65-1.26-2.99,0-5.69,1.3-8.08,3.89-1.02,1.49-1.53,4.87-1.53,10.12v6.33c0,7.01,.18,11.65,.54,13.92,.24,1.04,.75,1.69,1.53,1.95,1.02,.26,2.18,.39,3.5,.39l.36,.39v2.04l-.27,.39c-2.81-.26-5.89-.39-9.24-.39-2.99,0-5.96,.13-8.89,.39l-.45-.39v-2.04l.45-.39c1.26,0,2.33-.13,3.23-.39,.96-.32,1.47-.97,1.53-1.95,.36-3.83,.54-8.44,.54-13.82v-9.74c-.3-3.57-.9-6.07-1.8-7.5-1.56-2.14-3.74-3.21-6.55-3.21-2.27,0-4.53,.76-6.78,2.29-2.24,1.53-3.55,3.42-3.9,5.69-.12,1.43-.18,3.05-.18,4.87v7.5c0,7.01,.18,11.65,.54,13.92,.24,1.04,.75,1.69,1.53,1.95,1.02,.26,2.3,.39,3.86,.39l.36,.39v2.04l-.27,.39c-2.93-.26-6.14-.39-9.6-.39s-6.7,.13-9.51,.39l-.45-.39v-2.04l.45-.39c1.61,0,2.87-.13,3.77-.39,.96-.32,1.46-.97,1.52-1.95,.36-3.76,.54-8.4,.54-13.92v-7.5c0-6.68-.12-10.51-.36-11.49-.24-.97-1.2-1.46-2.87-1.46h-2.87l-.36-.39v-2.04l.36-.39c4.91-.26,9.25-1.23,13.02-2.92l.81,.58c-.24,1.82-.36,4.57-.36,8.27,3.95-3.57,6.37-5.84,7.27-6.81,1.85-1.43,4.16-2.14,6.91-2.14,2.57,0,5.01,.7,7.32,2.09,2.3,1.4,3.96,3.29,4.98,5.69,.72-.52,2.93-2.53,6.64-6.04,1.49-1.17,3.56-1.75,6.19-1.75,9.75,0,14.63,5.49,14.63,16.45v14.99c0,5.45,.27,8.66,.81,9.64,.54,.97,2.09,1.46,4.67,1.46l.36,.39v2.04l-.27,.39c-2.33-.26-5.39-.39-9.16-.39-1.98,0-3.56,.1-4.76,.29"/>
    <path class="cls-4" d="M278.62,84.2v-19.76c0-14.67-.12-22.42-.36-23.27-.06-1.04-.99-1.56-2.78-1.56h-2.96l-.36-.39v-2.05l.36-.39c4.25-.26,8.59-1.33,13.02-3.21l.72,.58c-.18,2.47-.27,9.6-.27,21.42v11.97l1.88-2.24c2.15-2.53,4.25-4.36,6.28-5.5,2.03-1.14,4.55-1.7,7.54-1.7,4.85,0,8.72,1.82,11.62,5.45,2.9,3.64,4.35,8.15,4.35,13.53,0,8.24-2.9,14.83-8.71,19.76-3.65,2.98-6.52,5.03-8.62,6.13-2.15,1.1-4.43,1.66-6.82,1.66-1.85,0-4.01-.39-6.46-1.17-1.74-.65-3.14-.97-4.22-.97-.54,.06-1.14,.26-1.79,.58l-2.24,.97-.72-.39c.36-5.71,.54-12.2,.54-19.47m7.36-10.9v18.59c0,1.62,.09,2.66,.27,3.11,.06,.46,.54,1.01,1.43,1.66,2.03,1.75,5.09,2.63,9.16,2.63,4.43,0,7.73-1.79,9.92-5.35,2.18-3.57,3.28-7.89,3.28-12.95,0-4.8-1-8.79-3.01-11.97-2.01-3.18-5.13-4.77-9.38-4.77-2.57,0-5.04,.86-7.4,2.58-2.37,1.72-3.79,3.88-4.26,6.47"/>
    <path class="cls-4" d="M362.82,95.4l.72,.78-1.43,3.31c-4.25,3.44-9.04,5.16-14.36,5.16-6.28,0-11.25-2-14.9-5.99-3.65-3.99-5.48-9.39-5.48-16.21,0-4.41,.54-8.19,1.62-11.34,1.08-3.15,3.08-5.73,6.01-7.74,4.37-3.5,8.86-5.26,13.46-5.26,5.27,0,9.3,1.53,12.12,4.58,2.81,3.05,4.22,7.46,4.22,13.24,0,.65-.06,1.75-.18,3.31l-.45,.49c-2.15,.84-7.03,1.27-14.63,1.27h-13.82c0,5.58,1.3,10.08,3.9,13.48,2.6,3.41,6.42,5.11,11.45,5.11,4.19,0,8.11-1.39,11.76-4.19m-27.11-18.2c3.29,.33,7.84,.49,13.64,.49,4.07,0,6.55-.1,7.45-.29v-1.75c0-9.54-3.38-14.31-10.14-14.31-3.95,0-6.76,1.51-8.44,4.53-1.68,3.02-2.51,6.8-2.51,11.34"/>
    <path class="cls-4" d="M386.78,73.01c-.54,1.17-.81,3.44-.81,6.82v4.57c0,7.01,.18,11.65,.54,13.92,.24,1.04,.75,1.69,1.53,1.95l.36,.1c.18,0,.48,.02,.9,.05,.42,.03,.87,.05,1.35,.05,.42,0,.87,.02,1.35,.05,.48,.03,.85,.06,1.12,.1,.27,.03,.46,.05,.58,.05l.36,.39v2.05l-.27,.39c-2.93-.26-6.73-.39-11.4-.39-3.53,0-6.7,.13-9.52,.39l-.45-.39v-2.05l.45-.39c1.62,0,2.87-.13,3.77-.39,.96-.32,1.47-.97,1.53-1.95,.36-3.76,.54-8.37,.54-13.82v-7.59c0-6.29-.12-10.12-.36-11.49-.12-.97-1.08-1.46-2.87-1.46h-2.87l-.36-.39v-2.05l.36-.39c4.91-.26,9.25-1.23,13.01-2.92l.81,.58c-.24,1.62-.36,5.06-.36,10.32,0-.06,.25-.42,.76-1.07,.51-.65,.97-1.23,1.39-1.75,.78-1.1,1.32-1.82,1.62-2.14,2.87-4.02,6.13-6.04,9.78-6.04,1.02,0,1.94,.19,2.78,.58l.27,.68c-.48,2.98-.72,6.26-.72,9.83l-.27,.29h-1.43l-.27-.2c-.66-2.72-2.27-4.09-4.85-4.09-1.68,0-3.31,.83-4.89,2.48-1.59,1.66-2.74,3.42-3.45,5.3"/>
    <path class="cls-4" d="M74.15,121.01c1.38,0,4.55-.1,9.51-.29,6.58-.13,10.29-.2,11.13-.2,9.75,0,17.38,2.48,22.89,7.45,5.5,4.96,8.26,12.61,8.26,22.92,0,11.16-3.28,20.07-9.83,26.72-6.55,6.65-15.03,9.98-25.45,9.98-.42,0-.99-.02-1.71-.05-.72-.03-1.76-.07-3.14-.1-1.38-.03-2.6-.05-3.68-.05-5.74-.13-8.74-.19-8.98-.19-2.99,0-5.57,.13-7.72,.39l-.36-.39v-1.56l.36-.49c1.74-.65,2.81-1.2,3.23-1.66,.84-.91,1.26-7.07,1.26-18.49v-21.81c0-8.24-.03-13.01-.09-14.31-.06-1.75-.36-3.02-.9-3.8-.72-.78-2.54-1.27-5.48-1.46l-.36-.29v-2.43l.36-.29c3.59,.26,7.15,.39,10.68,.39m3.95,61.43c2.63,.65,6.04,.97,10.23,.97,9.34,0,16.38-2.66,21.14-7.98,4.76-5.32,7.14-13.08,7.14-23.27,0-18.36-9.1-27.55-27.29-27.55-3.83,0-7.57,.29-11.22,.88-.24,3.96-.36,9.77-.36,17.43v14.8c0,14.6,.12,22.84,.36,24.73"/>
    <path class="cls-4" d="M168.31,171.82v3.51c0,3.25,.24,5.55,.72,6.91,.42,1.36,1.44,2.14,3.05,2.34l2.24,.29,.36,.39v1.95l-.36,.29c-1.92-.2-4.07-.29-6.46-.29-1.8,0-3.89,.1-6.28,.29l-.63-.58,.18-7.59-9.43,7.98c-1.86,.71-3.59,1.07-5.21,1.07-3.35,0-6.04-1.07-8.08-3.21-2.04-2.14-3.05-5.03-3.05-8.66,0-4.09,1.32-7.4,3.95-9.93,2.87-2.53,10.14-4.8,21.81-6.81,0-8.37-3.53-12.56-10.59-12.56-3.35,0-5.6,.71-6.73,2.14-.6,.65-1.38,2.57-2.33,5.74l-.27,.2-1.97-.49-.27-.49v-5.55c.06-.32,.33-.65,.81-.97,4.97-3.7,9.72-5.55,14.27-5.55s8.02,1.18,10.59,3.55c2.57,2.37,3.86,5.92,3.86,10.66,0,2.21-.03,4.45-.09,6.72-.06,2.34-.09,5.23-.09,8.66m-7.18,3.6v-12.75c-7.18,1.56-11.91,3.02-14.18,4.38-2.63,1.56-3.95,4.03-3.95,7.4,0,5.45,2.24,8.18,6.73,8.18,3.89,0,7.69-2.4,11.4-7.2"/>
    <path class="cls-4" d="M212.92,159.76l-15.53,38.45c-1.74,4.61-4.02,8.63-6.87,12.07-2.84,3.44-6.12,5.16-9.83,5.16-1.62,0-2.9-.19-3.86-.58l-.36-.68c0-.06-.03-.23-.09-.49-.06-.26-.12-.5-.18-.73-.06-.23-.09-.47-.09-.73-.24-1.1-.39-2.11-.45-3.02-.12-1.17-.21-1.88-.27-2.14l.9-.39c1.32,.71,3.08,1.07,5.3,1.07,2.03,0,3.89-.5,5.57-1.51,1.68-1.01,3.13-2.48,4.35-4.43,1.23-1.95,2.21-3.7,2.96-5.26,.75-1.56,1.54-3.54,2.38-5.94,0-.91-.76-3.51-2.29-7.79-1.53-4.28-2.71-7.5-3.54-9.64l-9.07-22.49c-.48-1.3-1.17-2.24-2.06-2.82-.54-.45-1.86-.88-3.95-1.27l-.36-.39v-1.85l.45-.49c3.35,.26,6.64,.39,9.87,.39,2.81,0,5.57-.13,8.26-.39l.36,.39v2.14l-.36,.39c-1.38,0-2.21,.03-2.51,.1-1.08,.2-1.62,.81-1.62,1.85,0,1.23,.57,3.28,1.71,6.13l9.52,25.6,7.81-21.03c2.15-5.65,3.23-9.21,3.23-10.71,0-.58-.27-1.04-.81-1.36-.54-.32-1.79-.52-3.77-.59l-.36-.39v-2.05l.45-.49c2.81,.26,5.12,.39,6.91,.39,3.35,0,5.95-.13,7.81-.39l.36,.49v2.05l-.36,.39c-1.79,0-3.02,.26-3.68,.78-.78,.45-2.75,4.51-5.92,12.17"/>
    <path class="cls-4" d="M227.46,175.53l.27-.49h2.06l.36,.49c.12,2.21,.45,3.91,.99,5.11,.54,1.2,1.64,2.29,3.32,3.26,1.92,1.1,3.86,1.65,5.84,1.65,6.46,0,9.69-2.85,9.69-8.57,0-2.47-.78-4.25-2.33-5.35-1.56-1.04-4.46-2.14-8.71-3.31-3.71-1.04-6.58-2.48-8.62-4.33-2.04-1.85-3.05-4.62-3.05-8.32,0-4.28,1.53-7.59,4.58-9.93,3.05-2.34,6.64-3.5,10.77-3.5,3.83,0,7.45,.65,10.86,1.95l.36,.58c-.3,1.62-.45,4.74-.45,9.35l-.36,.39h-1.62l-.45-.39c-.66-5.78-3.71-8.66-9.16-8.66-2.45,0-4.44,.6-5.97,1.8-1.53,1.2-2.29,3.07-2.29,5.6,0,1.36,.24,2.55,.72,3.55,.48,1.01,1.21,1.8,2.2,2.39s1.91,1.02,2.78,1.31c.87,.29,1.99,.6,3.37,.93,1.67,.45,2.99,.84,3.95,1.17,.96,.33,2.17,.83,3.64,1.51,1.46,.68,2.59,1.41,3.37,2.19,.78,.78,1.47,1.83,2.07,3.16,.6,1.33,.9,2.81,.9,4.43,0,4.02-1.68,7.69-5.03,11-2.93,2.98-7.15,4.48-12.66,4.48-4.19,0-8.17-.52-11.94-1.56l-.27-.58c.54-2.98,.81-6.75,.81-11.29"/>
    <polygon class="cls-4" points="312.27 11.56 312.27 5.55 322.8 8.56 312.27 11.56"/>
    <path class="cls-2" d="M375.47,155.48h0l32.64-8.02-84.33,34.41c-7.55,3.07-17.7,5.01-23.56-1.85-2.53-2.95-2.57-6.88-1.55-10.58,2.37-8.57,8.21-15.03,13.9-21.4-2.93,5.89-5.29,14.19,1.3,18.87,2.64,1.88,5.91,2.2,9.07,1.47l40.03-9.83,12.51-3.07Z"/>
    <polygon points="394.87 5.55 398.05 10.45 398.07 10.45 398.07 5.55 398.83 5.55 398.83 11.6 397.95 11.6 394.79 6.75 394.78 6.75 394.78 11.6 394.01 11.6 394.01 5.55 394.87 5.55"/>
    <rect x="399.57" y="5.55" width=".8" height="6.04"/>
    <polygon points="401.93 5.55 401.93 8.57 404.99 5.55 406.03 5.55 403.49 7.99 406.14 11.6 405.12 11.6 402.94 8.54 401.93 9.48 401.93 11.6 401.12 11.6 401.12 5.55 401.93 5.55"/>
    <polygon points="410.34 5.55 410.34 6.23 406.97 6.23 406.97 8.15 410.11 8.15 410.11 8.83 406.97 8.83 406.97 10.92 410.37 10.92 410.37 11.6 406.17 11.6 406.17 5.55 410.34 5.55"/>
    <path d="M33.08,277.71h-1.96c0-.52-.03-1.3-.1-2.33-.05-.72-.13-1.33-.24-1.84-.41-.49-.85-.89-1.33-1.2-1.06-.72-2.29-1.28-3.68-1.69-1.39-.41-2.96-.61-4.71-.61-4.09,0-7.37,1.27-9.83,3.8-2.46,2.54-3.69,6.02-3.69,10.45,0,4.84,1.3,8.69,3.89,11.55,2.59,2.85,5.77,4.28,9.54,4.28,1.1,0,2.16-.11,3.2-.34,1.04-.23,2.06-.56,3.06-1.01,.05-.44,.09-1.29,.12-2.55,.03-1.26,.05-2.02,.05-2.28,0-1.57-.07-2.5-.2-2.8-.1-.2-.32-.33-.66-.42-.57-.16-2.13-.32-4.66-.47v-1.99l7.34,.1,7.39-.1v1.62c-.95,.2-1.57,.47-1.87,.81-.15,.16-.24,.61-.27,1.35-.08,1.88-.12,3.23-.12,4.05,0,1.24,.07,2.52,.22,3.83-3.04,1.11-5.7,1.9-7.96,2.36-2.27,.46-4.53,.69-6.78,.69-3.68,0-6.94-.62-9.77-1.87-1.98-.88-3.67-2.02-5.08-3.41-1.41-1.39-2.48-2.89-3.22-4.49-1.16-2.49-1.74-5.25-1.74-8.29,0-2.57,.38-4.81,1.14-6.73,.76-1.91,1.82-3.59,3.18-5.02,1.36-1.43,2.9-2.59,4.63-3.49,1.73-.89,3.53-1.53,5.42-1.91,1.89-.38,3.96-.58,6.22-.58,2.78,0,5.37,.25,7.77,.76,2.4,.51,4.27,1.06,5.61,1.67l.2,.47c-.39,1.44-.75,3.98-1.08,7.63"/>
    <path d="M40.69,302.1v-1.82c1.83-.13,2.88-.27,3.14-.43,.26-.16,.43-.45,.49-.87,.16-.9,.25-3.21,.25-6.94,0-5.12-.07-8.03-.22-8.74-.07-.33-.17-.54-.32-.64-.33-.21-1.44-.33-3.34-.34v-1.86c2.47-.26,4.33-.54,5.6-.84,1.26-.29,2.63-.74,4.12-1.35l.59,.32c-.2,2.55-.29,4.95-.29,7.19v8.34c0,2.85,.07,4.53,.2,5.06,.07,.29,.2,.49,.39,.59,.44,.21,1.51,.35,3.21,.42v1.91c-2.32-.07-4.85-.1-7.58-.1-2.36,0-4.43,.03-6.23,.1m6.73-35.54c1.05,0,1.93,.37,2.66,1.1,.73,.74,1.09,1.62,1.09,2.65s-.36,1.94-1.09,2.68c-.73,.74-1.62,1.1-2.66,1.1s-1.92-.37-2.65-1.1c-.74-.74-1.1-1.63-1.1-2.68s.36-1.91,1.09-2.65c.73-.74,1.62-1.1,2.66-1.1"/>
    <path d="M71.34,300.21v1.89c-1.85-.08-3.91-.12-6.18-.12-2.54,0-5.17,.04-7.9,.12v-1.89c1.28,0,2.16-.09,2.65-.27,.23-.08,.4-.22,.52-.42,.16-.31,.25-.9,.27-1.77l.1-2.18c.02-.46,.03-1.2,.03-2.23v-3.22c0-1.46-.05-3.22-.15-5.3-.05-1.05-.12-1.64-.21-1.78-.09-.14-.23-.24-.43-.31-.31-.11-1.24-.2-2.77-.24v-1.89c2.98-.51,4.93-.88,5.86-1.13,.93-.24,1.99-.64,3.17-1.18l.66,.29-.05,4.96c1.06-1.1,1.88-2,2.45-2.72,.85-1.01,1.49-1.66,1.91-1.94,.59-.39,1.37-.59,2.33-.59,.6,0,1.15,.1,1.64,.29l-.15,3.48c-.05,1.9-.09,2.99-.12,3.26l-1.03,.32c-.41-.54-.8-.92-1.18-1.13-.6-.34-1.27-.52-1.99-.52-.97,0-1.8,.3-2.49,.9-.7,.6-1.11,1.21-1.24,1.83-.06,.36-.1,1.74-.1,4.15v2.45l.05,3.34c.01,1.26,.06,2.03,.13,2.32,.07,.29,.24,.51,.5,.67,.26,.16,.83,.28,1.69,.34l2.01,.2Z"/>
    <path d="M99.27,300.26v1.84c-1.88-.08-3.55-.12-5.01-.12-1.38,0-2.71,.04-4,.12l-.22-.27,.22-3.21c-.59,.38-2.32,1.67-5.2,3.88-.74,.16-1.44,.25-2.11,.25-1.78,0-3.18-.52-4.18-1.57-1.01-1.05-1.51-2.55-1.51-4.52,0-1.33,.22-2.41,.68-3.26,.45-.85,.93-1.48,1.45-1.88s1.31-.79,2.39-1.17c2.59-.92,5.42-1.64,8.49-2.16,.03-1.95-.37-3.43-1.2-4.44-.85-1.01-2.14-1.52-3.88-1.52-.7,0-1.37,.09-2.01,.27-.28,.08-.61,.24-.98,.49l-1.03,2.48-1.67-.37,.15-3.17c1.21-.82,2.36-1.53,3.46-2.14,1.1-.61,1.86-.97,2.31-1.1,.6-.18,1.46-.27,2.55-.27,1.78,0,3.25,.26,4.41,.77,1.15,.52,2,1.12,2.55,1.83,.55,.7,.92,1.46,1.13,2.26,.2,.8,.31,1.82,.31,3.04,0,.52-.04,1.89-.12,4.1-.05,1.47-.07,2.67-.07,3.61,0,2.91,.08,4.68,.24,5.3,.07,.29,.2,.49,.39,.59,.26,.13,1.09,.25,2.48,.34m-9.01-10.01c-1.39,.29-2.66,.65-3.82,1.07-1.15,.42-1.95,.93-2.39,1.55-.44,.61-.66,1.39-.66,2.32,0,1.05,.27,1.86,.8,2.43,.53,.57,1.23,.86,2.1,.86,.74,0,1.48-.21,2.22-.64,.74-.42,1.33-.96,1.76-1.62v-5.96Z"/>
    <path d="M128.25,300.14v1.96c-2.05-.13-4.18-.2-6.41-.2s-4.73,.07-7.51,.2v-1.94c1.55-.05,2.49-.11,2.82-.2,.25-.07,.43-.16,.55-.28s.21-.32,.26-.58c.11-.49,.2-2.04,.24-4.64,.05-2.6,.07-4.91,.07-6.92v-8.1c0-2.57-.06-4.92-.17-7.04-.07-1.14-.15-1.82-.25-2.04-.07-.11-.16-.2-.27-.27-.2-.13-.51-.23-.93-.29-.25-.03-.98-.07-2.21-.12v-1.82c2.03-.21,3.65-.45,4.86-.7,1.21-.25,2.84-.7,4.88-1.34l.52,.29-.2,4.96c-.08,2.78-.13,6.19-.15,10.23v6.28c0,2.37,.02,4.15,.05,5.33,.07,2.93,.12,4.7,.15,5.31,.03,.61,.09,1,.17,1.17,.05,.11,.13,.21,.24,.29,.15,.11,.4,.2,.76,.27,.15,.03,.98,.09,2.5,.17"/>
    <path d="M153.7,300.26v1.84c-1.88-.08-3.55-.12-5.01-.12-1.38,0-2.71,.04-4,.12l-.22-.27,.22-3.21c-.59,.38-2.32,1.67-5.2,3.88-.74,.16-1.44,.25-2.11,.25-1.78,0-3.18-.52-4.18-1.57-1.01-1.05-1.51-2.55-1.51-4.52,0-1.33,.22-2.41,.68-3.26,.45-.85,.93-1.48,1.45-1.88s1.31-.79,2.39-1.17c2.59-.92,5.42-1.64,8.49-2.16,.03-1.95-.37-3.43-1.2-4.44-.85-1.01-2.14-1.52-3.88-1.52-.7,0-1.37,.09-2.01,.27-.28,.08-.61,.24-.98,.49l-1.03,2.48-1.67-.37,.15-3.17c1.21-.82,2.37-1.53,3.46-2.14,1.1-.61,1.86-.97,2.31-1.1,.6-.18,1.46-.27,2.55-.27,1.78,0,3.25,.26,4.4,.77,1.15,.52,2,1.12,2.55,1.83,.55,.7,.92,1.46,1.13,2.26,.2,.8,.31,1.82,.31,3.04,0,.52-.04,1.89-.12,4.1-.05,1.47-.07,2.67-.07,3.61,0,2.91,.08,4.68,.24,5.3,.07,.29,.2,.49,.39,.59,.26,.13,1.09,.25,2.48,.34m-9.01-10.01c-1.39,.29-2.66,.65-3.82,1.07-1.15,.42-1.95,.93-2.39,1.55-.44,.61-.66,1.39-.66,2.32,0,1.05,.27,1.86,.8,2.43,.53,.57,1.23,.86,2.1,.86,.74,0,1.48-.21,2.22-.64,.74-.42,1.33-.96,1.76-1.62v-5.96Z"/>
    <path d="M183.03,300.21v1.89c-1.85-.08-3.91-.12-6.19-.12-2.53,0-5.17,.04-7.9,.12v-1.89c1.28,0,2.16-.09,2.65-.27,.23-.08,.4-.22,.52-.42,.16-.31,.25-.9,.27-1.77l.1-2.18c.02-.46,.02-1.2,.02-2.23v-3.22c0-1.46-.05-3.22-.15-5.3-.05-1.05-.12-1.64-.21-1.78-.09-.14-.23-.24-.43-.31-.31-.11-1.24-.2-2.77-.24v-1.89c2.98-.51,4.93-.88,5.86-1.13,.93-.24,1.99-.64,3.17-1.18l.66,.29-.05,4.96c1.06-1.1,1.88-2,2.45-2.72,.85-1.01,1.49-1.66,1.91-1.94,.59-.39,1.37-.59,2.33-.59,.6,0,1.15,.1,1.64,.29l-.15,3.48c-.05,1.9-.09,2.99-.12,3.26l-1.03,.32c-.41-.54-.8-.92-1.18-1.13-.6-.34-1.27-.52-1.99-.52-.97,0-1.8,.3-2.49,.9-.7,.6-1.11,1.21-1.24,1.83-.07,.36-.1,1.74-.1,4.15v2.45l.05,3.34c.02,1.26,.06,2.03,.13,2.32,.07,.29,.24,.51,.5,.67,.26,.16,.83,.28,1.69,.34l2.01,.2Z"/>
    <path d="M188.28,282.42v-1.86c1.41-.08,2.82-.27,4.25-.57,1.42-.29,3.25-.82,5.47-1.57l.35,.27c-.23,3.24-.35,6.23-.35,8.98v2.75c0,2.34,.06,3.9,.17,4.69,.16,1.03,.56,1.81,1.18,2.33,.62,.52,1.45,.79,2.48,.79,1.18,0,2.17-.31,2.97-.92,.8-.61,1.36-1.25,1.67-1.9,.2-.43,.29-1.31,.29-2.65v-4.2l-.05-3.48c0-1.13-.07-1.81-.22-2.04-.08-.15-.25-.26-.49-.34-.25-.08-1.24-.17-2.99-.27v-1.86c2.54-.33,4.26-.59,5.18-.79,.92-.2,2.47-.65,4.66-1.35l.47,.27-.27,4.52c-.13,3.21-.2,5-.2,5.38v5.03c0,2.99,.07,4.84,.22,5.55,.06,.3,.19,.5,.37,.61,.31,.16,1.32,.29,3.02,.37v1.96l-5.05-.12-4.64,.12-.17-.2,.15-1.89c.02-.31,.02-.94,.02-1.89-.64,.51-1.19,.97-1.67,1.4l-2.77,2.63c-1.13,.41-2.27,.61-3.41,.61-2.21,0-3.94-.61-5.2-1.82-1.26-1.21-1.89-2.82-1.89-4.84,0-.24,.02-1.15,.07-2.72,.02-.84,.02-1.91,.02-3.24l-.05-5.18c0-.95-.06-1.54-.18-1.77-.12-.23-.32-.4-.6-.52-.28-.11-1.21-.21-2.8-.27"/>
    <path d="M232.95,300.14v1.96c-2.05-.13-4.18-.2-6.41-.2s-4.73,.07-7.51,.2v-1.94c1.55-.05,2.49-.11,2.82-.2,.25-.07,.43-.16,.55-.28,.12-.12,.21-.32,.26-.58,.11-.49,.2-2.04,.24-4.64,.05-2.6,.07-4.91,.07-6.92v-8.1c0-2.57-.06-4.92-.17-7.04-.07-1.14-.15-1.82-.24-2.04-.07-.11-.16-.2-.27-.27-.2-.13-.51-.23-.93-.29-.25-.03-.98-.07-2.21-.12v-1.82c2.03-.21,3.65-.45,4.86-.7,1.21-.25,2.84-.7,4.88-1.34l.52,.29-.2,4.96c-.08,2.78-.13,6.19-.15,10.23v6.28c0,2.37,.02,4.15,.05,5.33,.07,2.93,.11,4.7,.15,5.31,.03,.61,.09,1,.17,1.17,.05,.11,.13,.21,.24,.29,.15,.11,.4,.2,.76,.27,.15,.03,.98,.09,2.5,.17"/>
    <path d="M257.2,298.32l-1.08,2.4c-1.34,.82-2.73,1.42-4.15,1.82-1.06,.28-2.27,.42-3.63,.42-1.62,0-3.05-.19-4.28-.56-1.24-.38-2.29-.89-3.17-1.55-.88-.65-1.64-1.46-2.31-2.41-.66-.95-1.14-2.05-1.43-3.29-.3-1.24-.44-2.6-.44-4.07,0-2.14,.29-4.06,.86-5.74,.39-1.18,.85-2.03,1.37-2.55,.33-.33,1.18-.94,2.55-1.84,1.37-.9,2.37-1.49,2.99-1.77,1.14-.51,2.49-.76,4.05-.76,2.19,0,3.99,.46,5.4,1.37,1.41,.92,2.4,2.09,2.98,3.51,.58,1.42,.87,3.15,.87,5.18,0,.46-.02,.9-.05,1.33-.41,.13-1.03,.28-1.86,.44-1.11,.21-1.87,.33-2.26,.34-1.23,.1-2.85,.16-4.86,.17-2.01,.02-3.12,.03-3.34,.05-.21,.02-.45,.03-.71,.03h-1.62c.13,2.58,.93,4.63,2.41,6.12,1.47,1.5,3.29,2.24,5.45,2.24,.93,0,1.79-.1,2.58-.31,.78-.21,1.82-.63,3.09-1.26l.59,.69Zm-5.84-10.16c.06-2.6-.29-4.43-1.06-5.47-.79-1.03-1.8-1.55-3.04-1.55s-2.33,.54-3.17,1.62c-.85,1.1-1.24,2.9-1.18,5.4,.96,.15,2.58,.22,4.83,.22,1.44,0,2.64-.07,3.61-.22"/>
    <path d="M260.68,283.43v-1.1l2.21-1.4c.36-.23,.7-.47,1.03-.74v-3.29c0-1.18-.07-2.63-.2-4.37,1.59-.52,2.62-.88,3.09-1.06,.08-.03,1.12-.52,3.12-1.45l.64,.49-.24,2.55-.17,2.82-.22,4.3h.81c2.17,0,3.82-.08,4.93-.25l-.42,3.31c-.2,.03-.38,.05-.54,.05l-2.4-.05h-2.38v8.2c0,2.52,.02,4.01,.07,4.47,.07,.77,.34,1.37,.82,1.8,.48,.43,1.18,.65,2.1,.65,.56,.02,1,0,1.34-.04,.33-.04,.77-.12,1.29-.23l.39,1.01-.88,.88c-.72,.74-1.35,1.38-1.89,1.94-.64,.28-1.21,.46-1.71,.55-.5,.09-1.01,.13-1.53,.13-1.9,0-3.39-.49-4.48-1.46-1.09-.97-1.63-2.19-1.63-3.64l.1-8.1v-6.06h-.66c-.9,0-1.76,.03-2.58,.07"/>
    <path d="M300.27,300.26v1.84c-1.88-.08-3.55-.12-5.01-.12-1.37,0-2.71,.04-4,.12l-.22-.27,.22-3.21c-.59,.38-2.32,1.67-5.2,3.88-.74,.16-1.44,.25-2.11,.25-1.78,0-3.18-.52-4.18-1.57s-1.51-2.55-1.51-4.52c0-1.33,.23-2.41,.68-3.26,.45-.85,.93-1.48,1.45-1.88,.52-.4,1.31-.79,2.39-1.17,2.59-.92,5.42-1.64,8.49-2.16,.03-1.95-.37-3.43-1.2-4.44-.85-1.01-2.14-1.52-3.88-1.52-.7,0-1.37,.09-2.01,.27-.28,.08-.61,.24-.98,.49l-1.03,2.48-1.67-.37,.15-3.17c1.21-.82,2.36-1.53,3.46-2.14,1.1-.61,1.86-.97,2.31-1.1,.6-.18,1.46-.27,2.55-.27,1.78,0,3.25,.26,4.41,.77,1.15,.52,2,1.12,2.55,1.83,.55,.7,.92,1.46,1.13,2.26,.2,.8,.31,1.82,.31,3.04,0,.52-.04,1.89-.12,4.1-.05,1.47-.07,2.67-.07,3.61,0,2.91,.08,4.68,.25,5.3,.07,.29,.2,.49,.39,.59,.26,.13,1.09,.25,2.48,.34m-9.01-10.01c-1.39,.29-2.66,.65-3.82,1.07-1.15,.42-1.95,.93-2.39,1.55-.44,.61-.66,1.39-.66,2.32,0,1.05,.27,1.86,.8,2.43,.53,.57,1.23,.86,2.1,.86,.74,0,1.48-.21,2.22-.64,.74-.42,1.33-.96,1.76-1.62v-5.96Z"/>
    <path d="M315.58,314.62c.28-1.19,.46-2.03,.54-2.5l.37-2.48,.64-.12c.41,.42,.88,.8,1.4,1.13,.64,.28,1.33,.42,2.06,.42,.85,0,1.64-.29,2.36-.87,.72-.58,1.52-1.85,2.41-3.82l.98-2.36-7.95-20.39c-.47-1.21-.92-1.96-1.35-2.24-.43-.29-1.24-.42-2.43-.41v-1.94c1.6,.07,3.57,.1,5.89,.1,2.75,0,5.2-.03,7.34-.1v1.94h-.56c-1.01-.02-1.72,.1-2.11,.34-.25,.16-.37,.38-.37,.64,0,.29,.08,.66,.25,1.08l1.2,3.31,3.58,9.35,2.16-5.1c2.11-5.04,3.17-7.95,3.17-8.74,0-.16-.04-.29-.12-.39-.11-.13-.32-.23-.61-.29-.59-.11-1.37-.18-2.36-.2v-1.94c1.05,.07,2.36,.1,3.95,.1,1.93,0,3.73-.03,5.4-.1v1.94h-.39c-.44-.02-.86,.07-1.25,.24-.25,.1-.46,.26-.65,.49-.19,.23-.65,1.13-1.39,2.7-.97,2.06-1.74,3.76-2.33,5.1-1.83,4.16-2.99,6.82-3.49,8l-3.95,9.64c-1.21,2.93-2.49,5.02-3.85,6.26-1.36,1.26-3.01,1.89-4.96,1.89-.64,0-1.22-.05-1.76-.15-.53-.1-1.13-.28-1.8-.54"/>
    <path d="M359.36,296.38l3.41-2.48c-1.21-.44-2.18-.95-2.91-1.53-.73-.58-1.31-1.35-1.74-2.29-.43-.95-.65-2-.65-3.14,0-1.55,.4-3.01,1.2-4.36,.8-1.35,2.06-2.42,3.77-3.23,1.71-.8,3.71-1.2,6-1.2,1.54,0,2.96,.18,4.26,.53,1.3,.35,2.39,.87,3.28,1.56,.95,.05,1.6,.07,1.96,.07,.49,0,1.82-.05,4-.15l-.34,3.02h-3.88c.21,.82,.32,1.61,.32,2.38,0,1.75-.47,3.3-1.4,4.64-.93,1.34-2.25,2.37-3.94,3.09-1.69,.72-3.49,1.08-5.39,1.08-.51,0-1.22-.04-2.14-.12-.51,.29-.89,.64-1.15,1.04-.26,.4-.39,.77-.39,1.12,0,.29,.11,.57,.33,.83,.22,.26,.53,.43,.92,.52,.54,.11,1.89,.17,4.05,.17l6.04-.15c1.77,0,3.13,.21,4.1,.61,.96,.41,1.68,1.03,2.16,1.87,.47,.83,.71,1.94,.71,3.31,0,2.05-.48,3.89-1.45,5.55-.96,1.65-2.41,3.01-4.34,4.07-2.44,1.33-5.34,1.99-8.71,1.99-2.65,0-4.81-.37-6.48-1.1-1.67-.74-2.84-1.61-3.51-2.62-.67-1.02-1-2.12-1-3.31,0-.69,.11-1.31,.32-1.87,.21-.56,.46-.97,.74-1.25,.28-.28,.83-.65,1.64-1.13,1.57-.88,2.45-1.37,2.63-1.45-.88-.1-1.68-.42-2.38-.96-.64-.59-.96-1.26-.96-2.01,0-.41,.08-.87,.24-1.37,.23-.72,.46-1.29,.69-1.72m5.13,6.31c-1.34,.85-2.24,1.63-2.69,2.34-.45,.71-.68,1.51-.68,2.39,0,1.49,.61,2.73,1.83,3.73,1.22,1,3.05,1.5,5.49,1.5s4.5-.6,5.85-1.79c1.35-1.2,2.02-2.71,2.02-4.54,0-.88-.14-1.56-.41-2.03-.27-.47-.65-.83-1.14-1.1-.49-.27-1.17-.42-2.04-.47-.87-.04-2.87-.06-6.01-.06-.57,0-1.32,0-2.23,.02m-.86-16.88c0,2.26,.39,3.87,1.18,4.83,.79,.97,1.81,1.45,3.07,1.45,1.39,0,2.45-.56,3.19-1.69,.52-.82,.79-2.05,.79-3.68,0-2.29-.37-3.89-1.11-4.81-.74-.92-1.76-1.38-3.07-1.38s-2.23,.42-2.96,1.25c-.73,.84-1.09,2.18-1.09,4.02"/>
    <path d="M406.43,300.26v1.84c-1.88-.08-3.55-.12-5.01-.12-1.38,0-2.71,.04-4,.12l-.22-.27,.22-3.21c-.59,.38-2.32,1.67-5.2,3.88-.74,.16-1.44,.25-2.11,.25-1.78,0-3.18-.52-4.18-1.57s-1.51-2.55-1.51-4.52c0-1.33,.23-2.41,.68-3.26,.45-.85,.93-1.48,1.45-1.88,.52-.4,1.31-.79,2.39-1.17,2.59-.92,5.42-1.64,8.49-2.16,.03-1.95-.37-3.43-1.2-4.44-.85-1.01-2.14-1.52-3.88-1.52-.7,0-1.37,.09-2.01,.27-.28,.08-.61,.24-.98,.49l-1.03,2.48-1.67-.37,.15-3.17c1.21-.82,2.36-1.53,3.46-2.14,1.1-.61,1.86-.97,2.31-1.1,.6-.18,1.46-.27,2.55-.27,1.79,0,3.25,.26,4.41,.77,1.15,.52,2,1.12,2.55,1.83,.55,.7,.92,1.46,1.13,2.26,.2,.8,.31,1.82,.31,3.04,0,.52-.04,1.89-.12,4.1-.05,1.47-.07,2.67-.07,3.61,0,2.91,.08,4.68,.24,5.3,.07,.29,.2,.49,.39,.59,.26,.13,1.09,.25,2.48,.34m-9.01-10.01c-1.39,.29-2.66,.65-3.82,1.07-1.15,.42-1.95,.93-2.39,1.55-.44,.61-.66,1.39-.66,2.32,0,1.05,.27,1.86,.8,2.43,.53,.57,1.23,.86,2.1,.86,.74,0,1.48-.21,2.22-.64,.74-.42,1.33-.96,1.76-1.62v-5.96Z"/>
    <path d="M437.26,300.21v1.89c-2.23-.11-4.04-.17-5.45-.17-1.62,0-3.03,.06-4.22,.17l-.44-.44c.03-.34,.14-1.76,.32-4.25l.12-4.03v-1.94c0-2.86-.11-4.74-.33-5.64-.22-.9-.68-1.62-1.36-2.17-.69-.55-1.6-.82-2.75-.82s-2.09,.27-2.85,.82c-.75,.55-1.23,1.1-1.42,1.66-.11,.33-.16,1.64-.15,3.93v4.12c0,1.2,.03,2.66,.1,4.39,.02,.77,.08,1.28,.2,1.52,.08,.18,.19,.31,.32,.39,.2,.13,.58,.25,1.15,.37,.2,.03,.88,.1,2.06,.2v1.89c-1.78-.07-3.97-.1-6.55-.1-2.99,0-5.32,.03-6.97,.1v-1.89c1.28,0,2.16-.09,2.65-.27,.23-.08,.4-.22,.51-.42,.16-.31,.25-.9,.27-1.77l.1-2.18c.01-.46,.02-1.2,.02-2.23v-3.22c0-1.46-.05-3.22-.15-5.3-.05-1.05-.12-1.64-.21-1.78-.09-.14-.23-.24-.43-.31-.31-.11-1.24-.2-2.77-.24v-1.89c2.98-.51,4.93-.88,5.87-1.13,.93-.24,1.99-.64,3.17-1.18l.66,.29v3.95l4.47-3.58c.54-.21,.99-.36,1.36-.43,.37-.07,.88-.11,1.53-.11,1.75,0,3.06,.2,3.94,.59,.88,.39,1.62,.95,2.22,1.66,.61,.71,1.03,1.46,1.28,2.23,.25,.78,.37,1.99,.37,3.64,0,1.86-.02,3.05-.05,3.56-.02,.2-.03,.43-.03,.71l.03,2.53c.02,2.76,.06,4.47,.14,5.13,.07,.66,.22,1.08,.44,1.26,.22,.19,.71,.31,1.46,.36,.28,.02,.74,.06,1.37,.12"/>
    <path d="M462.26,300.26v1.84c-1.88-.08-3.55-.12-5.01-.12-1.38,0-2.71,.04-4,.12l-.22-.27,.22-3.21c-.59,.38-2.32,1.67-5.2,3.88-.74,.16-1.44,.25-2.11,.25-1.78,0-3.18-.52-4.18-1.57-1.01-1.05-1.51-2.55-1.51-4.52,0-1.33,.22-2.41,.67-3.26,.45-.85,.93-1.48,1.45-1.88,.52-.4,1.31-.79,2.39-1.17,2.59-.92,5.41-1.64,8.49-2.16,.03-1.95-.37-3.43-1.2-4.44-.85-1.01-2.14-1.52-3.88-1.52-.7,0-1.37,.09-2.01,.27-.28,.08-.61,.24-.98,.49l-1.03,2.48-1.67-.37,.15-3.17c1.21-.82,2.36-1.53,3.46-2.14,1.1-.61,1.86-.97,2.31-1.1,.6-.18,1.46-.27,2.55-.27,1.78,0,3.25,.26,4.41,.77,1.15,.52,2,1.12,2.55,1.83,.55,.7,.92,1.46,1.13,2.26,.2,.8,.31,1.82,.31,3.04,0,.52-.04,1.89-.12,4.1-.05,1.47-.07,2.67-.07,3.61,0,2.91,.08,4.68,.24,5.3,.07,.29,.2,.49,.39,.59,.26,.13,1.09,.25,2.48,.34m-9.01-10.01c-1.39,.29-2.66,.65-3.82,1.07-1.15,.42-1.95,.93-2.39,1.55-.44,.61-.66,1.39-.66,2.32,0,1.05,.27,1.86,.8,2.43,.53,.57,1.23,.86,2.1,.86,.74,0,1.48-.21,2.22-.64,.74-.42,1.33-.96,1.76-1.62v-5.96Z"/>
    <path d="M469.68,294.98c1.06,0,1.97,.37,2.71,1.12,.74,.74,1.12,1.65,1.12,2.71s-.38,1.97-1.13,2.72c-.75,.75-1.65,1.13-2.7,1.13s-1.97-.38-2.72-1.13-1.13-1.66-1.13-2.72,.37-1.97,1.12-2.71c.74-.74,1.66-1.12,2.74-1.12"/>
  </g>
</svg>