<?xml version="1.0" encoding="UTF-8"?>
<svg id="Capa_2" data-name="Capa 2" xmlns="http://www.w3.org/2000/svg" viewBox="0 0 137.05 78.04">
  <defs>
    <style>
      .cls-1 {
        fill: #ef4227;
      }

      .cls-2 {
        fill: #fbe061;
      }
    </style>
  </defs>
  <g id="Capa_1-2" data-name="Capa 1">
    <g>
      <path class="cls-2" d="M136.36,58.3c-5.32,18.73-40.01,25.28-77.48,14.64C21.42,62.29-4.63,38.47,.69,19.74,6.01,1.01,40.7-5.54,78.17,5.1c37.46,10.65,63.52,34.47,58.19,53.2"/>
      <path class="cls-1" d="M41.19,46.13c-9.02,.04-22.6-1.27-24.25-11.4-.93-5.63,3.74-11.84,10.51-16.46,4.32-2.96,9.24-5.27,14.16-7.58-3.14,2.25-12.66,10.2-7.86,18.17,1.88,3.07,6.53,5.25,13.07,6.17l78.06,10.76-83.68,.34Z"/>
    </g>
  </g>
</svg>