<?xml version="1.0" encoding="UTF-8"?>
<svg id="Capa_2" data-name="Capa 2" xmlns="http://www.w3.org/2000/svg" viewBox="0 0 114.6 114.13">
  <defs>
    <style>
      .cls-1 {
        fill: #fbe061;
      }
    </style>
  </defs>
  <g id="Capa_1-2" data-name="Capa 1">
    <path class="cls-1" d="M114.6,57.06c0-8.09-6.58-14.65-14.71-14.65-2.66,0-7.05,.7-11.75,1.93,4.2-2.45,7.8-5.05,9.68-6.92,5.74-5.72,5.74-14.99,0-20.71-5.74-5.72-15.06-5.72-20.8,0-1.88,1.87-4.48,5.46-6.94,9.64,1.23-4.69,1.93-9.06,1.93-11.71,0-8.09-6.58-14.65-14.71-14.65s-14.71,6.56-14.71,14.65c0,2.64,.7,7.02,1.93,11.71-2.46-4.18-5.07-7.77-6.94-9.64-5.74-5.72-15.06-5.72-20.8,0-5.74,5.72-5.74,14.99,0,20.71,1.88,1.87,5.48,4.47,9.68,6.92-4.71-1.23-9.1-1.93-11.76-1.93-8.12,0-14.71,6.56-14.71,14.65s6.58,14.65,14.71,14.65c2.66,0,7.05-.7,11.76-1.93-4.2,2.45-7.8,5.05-9.68,6.92-5.74,5.72-5.74,14.99,0,20.71,5.74,5.72,15.06,5.72,20.8,0,1.88-1.87,4.48-5.46,6.94-9.64-1.23,4.69-1.93,9.06-1.93,11.7,0,8.09,6.59,14.65,14.71,14.65s14.71-6.56,14.71-14.65c0-2.64-.7-7.02-1.93-11.7,2.46,4.18,5.07,7.77,6.94,9.64,5.74,5.72,15.06,5.72,20.8,0,5.74-5.72,5.74-14.99,0-20.71-1.88-1.87-5.48-4.47-9.68-6.92,4.71,1.23,9.1,1.93,11.75,1.93,8.12,0,14.71-6.56,14.71-14.65m-89.89,4.7c-.23,.27-.5,.48-.87,.48-.41,0-.82,0-1.23,0-.2,0-.28-.09-.25-.3,.01-.1,.04-.21,.03-.31,0-.1-.04-.21-.1-.28-.41-.47-.87-.89-1.44-1.18-.21-.11-.44-.21-.65-.32-.27-.15-.52-.35-.7-.6-.16-.22-.37-.32-.63-.37-.47-.08-.94-.19-1.37-.41-.14-.07-.28-.15-.41-.24-.11-.08-.23-.1-.37-.09-.17,0-.34,.01-.52,.02-.32,.02-.61-.08-.88-.26-.26-.18-.52-.37-.79-.55-.04-.03-.09-.04-.14-.04-.28-.02-.53,.05-.78,.17-.28,.15-.58,.27-.86,.4-.03,.02-.06,.03-.1,.05,.02,.04,.04,.08,.06,.12,.17,.28,.22,.6,.22,.92,0,.16,.07,.24,.23,.25,.45,.02,.88,.14,1.31,.24,.31,.07,.62,.12,.92,.18,.16,.03,.33,0,.47-.06,.14-.07,.28-.05,.42,0,.26,.11,.26,.11,.22,.39,0,.06-.02,.13-.03,.2-.04,.28-.33,.42-.58,.28-.1-.06-.2-.11-.29-.18-.14-.11-.31-.15-.48-.17-.42-.04-.83-.02-1.25,.02-.47,.05-.94,.03-1.4-.07-.04,0-.08-.04-.1-.07-.26-.52-.51-1.05-.78-1.58-.22-.45-.41-.91-.55-1.4-.05-.19-.16-.27-.35-.23-.2,.04-.4,.1-.6,.15-.25,.07-.5,.09-.75,0-.44-.16-.69-.65-.58-1.13,.11-.46,.39-.75,.86-.86,.13-.03,.27-.05,.4-.09,.06-.02,.12-.04,.18-.07,.1-.06,.21-.08,.32-.02,.17,.09,.34,.17,.53,.21,.18,.03,.25,.19,.22,.39,0,.05-.04,.1,.04,.13,.07,.03,.14,.05,.2-.01,.28-.3,.65-.46,1.02-.61,.3-.12,.59-.24,.89-.36,.02,0,.04-.02,.07-.04-.14-.23-.29-.46-.43-.69-.14-.23-.38-.27-.61-.25-.16,.01-.28-.04-.4-.14-.2-.17-.2-.18-.09-.42,.03-.06,.07-.12,.08-.18,.07-.27,.5-.32,.67-.09,.22,.29,.49,.54,.78,.77,.31,.25,.59,.53,.88,.8,.11,.1,.12,.22,.02,.34-.14,.16-.29,.31-.43,.46-.02,.03-.06,.04-.08,.06,.57,.17,1.12,.34,1.66,.5,.02,0,.05,.01,.08,.02,.23,.04,.29,0,.32-.22,.12-1.13,.48-2.17,1.11-3.11,.06-.09,.14-.17,.21-.26,.22-.28,.61-.22,.8,.09,.1,.18,.21,.35,.34,.51,.46,.59,.92,1.17,1.38,1.75,.16,.2,.31,.41,.47,.61,.11,.14,.27,.2,.44,.22,.31,.03,.61,.06,.92,.09,.13,.01,.25-.02,.36-.07,.07-.04,.15-.07,.23-.09,.11-.03,.17,.04,.13,.15-.08,.22-.23,.38-.44,.48-.45,.22-.9,.43-1.35,.63-.18,.08-.22,.07-.35-.09-.06-.09-.12-.18-.16-.28-.1-.25-.26-.47-.46-.64-.23-.2-.46-.39-.7-.56-.27-.19-.49-.44-.7-.69-.03-.04-.06-.07-.09-.1-.07-.06-.11-.05-.13,.04-.01,.05-.02,.1-.01,.15,.04,.47-.02,.94-.07,1.41-.03,.27-.07,.55-.11,.82-.01,.08,.01,.11,.09,.14,.81,.27,1.56,.65,2.26,1.14,.19,.13,.34,.33,.49,.51,.35,.39,.71,.78,1.02,1.19,.34,.44,.64,.91,.95,1.37,.04,.05,.07,.1,.1,.16,.07,.12,.16,.19,.29,.23,.29,.1,.58,.21,.86,.32,.17,.06,.34,.08,.52,0,.15-.07,.26-.04,.34,.06,.05,.05,.05,.11,.01,.16m39.48-27.82s.02-.06,.07-.06c7.86,2.35,13.94,8.41,16.3,16.21,.01,.03,0,.05,0,.07-.02,.02-.05,.04-.08,.04-.02,0-.04,0-.06-.03-2.46-2.36-6.1-4.28-10.55-5.56-.03,0-.06-.03-.06-.06-1.29-4.43-3.22-8.06-5.58-10.51-.01-.01-.04-.05-.02-.1m17.3,22s-.04,.02-.08,.02h-9.85s-.08-.04-.09-.09c-.07-3.03-.42-5.98-1.03-8.77,0-.03,0-.06,.02-.08,.02-.02,.04-.03,.07-.03,6.14,1.99,10.23,5.3,10.97,8.86,.01,.05,0,.09,0,.1m0,2.33c-.74,3.56-4.83,6.87-10.94,8.85h-.03s-.05,0-.07-.03c-.02-.02-.03-.05-.02-.08,.61-2.79,.96-5.74,1.03-8.77,0-.05,.04-.09,.09-.09h9.85s.07,0,.08,.02c.01,.01,.02,.05,0,.1m-12.16-2.34s-.03,.03-.07,.03h-10.78s-.09-.04-.09-.09v-10.74c0-.05,.04-.09,.09-.09,3.35,.08,6.57,.5,9.57,1.24,.03,0,.05,.03,.06,.06,.74,2.99,1.16,6.19,1.24,9.53,0,.03-.02,.06-.03,.07m.03,2.31c-.08,3.34-.5,6.54-1.24,9.53,0,.03-.03,.05-.06,.06-3,.74-6.22,1.16-9.57,1.24h0s-.09-.04-.09-.09v-10.74s.04-.09,.09-.09h10.78s.06,.02,.07,.03c.01,.01,.03,.03,.03,.07m-1.96-14.39s.01,.04-.01,.08c0,0-.03,.04-.08,.04,0,0-.02,0-.02,0-2.8-.61-5.77-.96-8.81-1.03-.05,0-.09-.04-.09-.09v-9.81c0-.08,.04-.09,.08-.09,3.62,.74,6.94,4.81,8.93,10.9m-15.31-21.34c0-.2,.09-.28,.3-.25,.1,.01,.21,.04,.31,.03,.1-.01,.21-.04,.28-.1,.47-.41,.9-.87,1.19-1.43,.11-.21,.21-.44,.33-.64,.15-.27,.35-.51,.6-.7,.22-.16,.33-.37,.37-.63,.08-.47,.19-.93,.41-1.37,.07-.14,.15-.28,.24-.41,.08-.11,.1-.23,.09-.36,0-.17-.01-.34-.02-.51-.02-.32,.08-.61,.26-.87,.18-.26,.37-.52,.55-.79,.03-.04,.04-.09,.04-.14,.02-.28-.05-.53-.17-.78-.15-.28-.27-.57-.4-.86-.01-.03-.03-.06-.05-.1-.04,.02-.08,.04-.12,.06-.29,.17-.6,.22-.92,.22-.17,0-.24,.07-.25,.23-.02,.45-.15,.87-.24,1.31-.07,.31-.12,.61-.18,.92-.03,.16,0,.32,.06,.47,.07,.14,.06,.28,0,.42q-.11,.26-.39,.22c-.07,0-.13-.02-.2-.03-.28-.04-.43-.33-.28-.58,.06-.1,.12-.2,.18-.29,.11-.14,.15-.3,.17-.48,.04-.41,.02-.83-.02-1.24-.05-.47-.03-.93,.07-1.39,0-.04,.04-.08,.07-.1,.53-.26,1.06-.51,1.58-.77,.45-.22,.92-.41,1.4-.54,.19-.05,.27-.15,.23-.35-.04-.2-.1-.4-.15-.6-.07-.25-.09-.5,0-.75,.16-.44,.65-.68,1.13-.57,.46,.11,.75,.39,.86,.85,.03,.13,.05,.27,.09,.4,.02,.06,.04,.12,.07,.18,.06,.1,.08,.21,.02,.32-.09,.17-.17,.34-.21,.53-.03,.18-.19,.25-.4,.22-.05,0-.1-.03-.13,.04-.03,.07-.05,.14,.01,.2,.3,.28,.46,.65,.61,1.02,.12,.3,.24,.59,.36,.89,0,.02,.02,.04,.04,.07,.23-.14,.46-.28,.69-.43,.23-.14,.27-.38,.25-.61-.01-.16,.04-.28,.14-.39,.17-.2,.18-.2,.42-.09,.06,.03,.12,.07,.18,.08,.27,.07,.32,.5,.09,.67-.29,.22-.54,.49-.77,.78-.25,.31-.53,.59-.8,.88-.1,.11-.23,.12-.34,.02-.16-.14-.31-.29-.46-.43-.02-.02-.04-.06-.05-.08-.17,.57-.34,1.11-.5,1.66,0,.02-.01,.05-.02,.08-.05,.23,0,.29,.22,.31,1.13,.12,2.18,.47,3.13,1.11,.09,.06,.17,.14,.26,.21,.28,.22,.22,.61-.09,.8-.18,.1-.35,.21-.51,.34-.59,.45-1.17,.92-1.76,1.37-.2,.16-.41,.31-.61,.46-.14,.11-.2,.27-.22,.44-.03,.3-.06,.61-.09,.91-.01,.13,.02,.25,.07,.36,.04,.07,.07,.15,.09,.23,.03,.11-.04,.17-.15,.13-.22-.08-.38-.23-.48-.44-.22-.45-.43-.9-.64-1.35-.08-.18-.07-.22,.09-.34,.09-.06,.18-.12,.28-.16,.25-.1,.47-.26,.65-.46,.2-.23,.39-.46,.56-.7,.2-.27,.44-.49,.7-.7,.04-.03,.07-.06,.1-.09,.06-.07,.05-.11-.04-.13-.05,0-.1-.02-.15-.01-.47,.04-.94-.02-1.41-.07-.28-.03-.55-.07-.83-.11-.08-.01-.11,.01-.14,.09-.27,.81-.66,1.55-1.15,2.25-.13,.19-.33,.33-.51,.49-.4,.35-.78,.7-1.2,1.02-.44,.34-.92,.63-1.38,.95-.05,.04-.1,.07-.16,.1-.12,.07-.19,.16-.23,.29-.1,.29-.21,.57-.32,.86-.06,.17-.08,.34,0,.52,.07,.15,.04,.26-.06,.34-.05,.05-.11,.05-.16,0-.27-.23-.48-.49-.49-.87,0-.41,0-.82,0-1.23m3.98,10.45s.03,0,.04,0c.06,0,.09,.02,.09,.09v9.81s-.04,.08-.09,.09c-3.04,.07-6.01,.42-8.81,1.03h-.02s-.07-.03-.08-.04c-.03-.03-.02-.07-.01-.08,1.99-6.09,5.32-10.16,8.89-10.89m.03,23.01h-10.78s-.06-.02-.07-.03c-.01-.01-.03-.03-.03-.07,.08-3.34,.5-6.54,1.24-9.53,0-.03,.03-.05,.06-.06,3-.74,6.22-1.16,9.57-1.24,.05,0,.1,.04,.1,.09v10.74s-.04,.09-.09,.09m.09,2.28v10.74c0,.05-.04,.09-.09,.09h0c-3.35-.08-6.57-.5-9.57-1.24-.03,0-.05-.03-.06-.06-.74-2.99-1.16-6.19-1.24-9.53,0-.03,.02-.06,.03-.07,.01-.01,.03-.03,.07-.03h10.78s.09,.04,.09,.09m-22.16-8.15c2.36-7.8,8.44-13.85,16.27-16.2,0,0,0,0,.01,0,.07,0,.09,.04,.09,.05,.02,.05,0,.09-.02,.1-2.36,2.45-4.29,6.08-5.58,10.51,0,.03-.03,.06-.07,.06-4.45,1.28-8.09,3.2-10.55,5.56-.03,.03-.05,.03-.06,.03-.03,0-.06-.02-.08-.04-.01-.02-.02-.03,0-.07m10.12-2.99c-.61,2.79-.96,5.74-1.03,8.77,0,.05-.04,.09-.09,.09h-9.85s-.07,0-.08-.02c-.01-.01-.02-.05,0-.1,.74-3.56,4.83-6.87,10.94-8.85h.02s.06,.01,.08,.03c.02,.02,.03,.05,.02,.08m-.02,19.99s-.04,.04-.07,.04c0,0-.02,0-.03,0-6.11-1.99-10.2-5.29-10.94-8.85-.01-.05,0-.09,0-.1,.01-.01,.04-.02,.08-.02h9.85s.09,.04,.09,.09c.07,3.03,.42,5.98,1.03,8.77,0,.03,0,.06-.02,.08M26.36,30.68c-.05,.04-.1,.08-.16,.12-.23,.17-.53,.07-.61-.21-.03-.11-.06-.22-.08-.34-.02-.18-.11-.32-.22-.46-.27-.32-.58-.6-.9-.86-.37-.3-.69-.64-.94-1.04-.02-.03-.03-.08-.02-.12,.19-.55,.38-1.11,.57-1.66,.16-.48,.36-.93,.61-1.37,.1-.17,.08-.3-.08-.41-.17-.12-.35-.22-.53-.32-.23-.13-.42-.29-.53-.53-.2-.43-.03-.94,.39-1.2,.4-.25,.81-.25,1.21,0,.12,.07,.22,.15,.34,.22,.06,.03,.12,.06,.18,.07,.12,.03,.2,.09,.24,.21,.06,.18,.12,.36,.23,.52,.1,.15,.05,.31-.12,.43-.04,.03-.1,.05-.07,.12,.03,.07,.06,.14,.15,.14,.41-.02,.78,.13,1.15,.29,.3,.13,.59,.25,.89,.37,.02,0,.04,.01,.07,.02,.06-.27,.13-.53,.19-.79,.06-.27-.08-.46-.26-.61-.12-.11-.17-.23-.18-.37-.02-.26-.02-.27,.23-.36,.06-.02,.13-.04,.18-.07,.24-.14,.58,.13,.54,.41-.05,.36-.04,.73,0,1.09,.04,.39,.04,.79,.06,1.18,0,.15-.07,.24-.23,.26-.21,.01-.42,.02-.63,.02-.04,0-.07-.01-.1-.02,.28,.52,.55,1.02,.82,1.53,.01,.02,.03,.05,.04,.07,.13,.19,.21,.2,.38,.07,.88-.71,1.88-1.2,3-1.42,.11-.02,.22-.02,.34-.04,.35-.04,.59,.27,.5,.63-.05,.2-.1,.4-.12,.6-.09,.74-.18,1.47-.27,2.21-.03,.26-.08,.51-.1,.76-.02,.18,.05,.33,.16,.47,.2,.24,.39,.47,.59,.71,.08,.1,.19,.16,.31,.2,.08,.03,.16,.06,.22,.1,.1,.06,.09,.15-.02,.2-.21,.1-.43,.1-.65,.02-.47-.16-.94-.33-1.41-.5-.19-.07-.21-.11-.18-.31,.02-.11,.04-.21,.09-.31,.11-.25,.15-.51,.13-.78-.02-.3-.05-.6-.1-.89-.05-.33-.03-.66,0-.98,0-.05,0-.09,0-.14,0-.09-.04-.11-.12-.06-.04,.03-.08,.06-.11,.1-.31,.36-.68,.65-1.05,.94-.22,.17-.44,.34-.66,.51-.06,.05-.07,.09-.03,.16,.38,.76,.64,1.56,.79,2.39,.04,.23,0,.47-.01,.71-.04,.52-.05,1.05-.12,1.57-.07,.55-.2,1.09-.3,1.64-.01,.06-.02,.12-.04,.18-.04,.13-.02,.25,.04,.37,.14,.27,.26,.56,.38,.83,.08,.17,.18,.3,.36,.37,.16,.06,.21,.16,.2,.28,0,.07-.04,.11-.11,.12-.35,.03-.69-.01-.96-.27-.29-.29-.58-.58-.87-.87-.14-.14-.13-.26,.03-.39,.08-.06,.18-.12,.24-.2,.06-.08,.12-.18,.13-.27,.04-.62,.02-1.25-.18-1.85-.07-.23-.16-.45-.23-.68-.08-.3-.12-.61-.07-.92,.04-.27-.03-.49-.19-.7-.28-.39-.53-.8-.68-1.25-.05-.15-.1-.3-.12-.46-.02-.14-.09-.24-.19-.32-.13-.11-.25-.23-.38-.35-.24-.22-.38-.49-.43-.8-.06-.31-.11-.63-.17-.94,0-.04-.04-.09-.06-.12-.18-.21-.41-.34-.68-.43-.3-.09-.59-.22-.89-.33-.03-.01-.07-.02-.1-.04-.02,.04-.03,.08-.04,.12-.08,.32-.27,.57-.5,.8-.12,.12-.12,.22-.01,.34,.31,.33,.52,.72,.76,1.09,.17,.26,.35,.52,.53,.78,.09,.14,.23,.23,.38,.29,.15,.05,.24,.16,.29,.3q.1,.26-.12,.43m11.19,53.6c-.29,.29-.58,.58-.87,.87-.15,.14-.26,.13-.39-.04-.06-.08-.12-.18-.2-.24-.08-.06-.18-.12-.27-.13-.63-.04-1.25-.02-1.86,.18-.23,.07-.45,.16-.69,.23-.3,.08-.61,.12-.92,.07-.27-.04-.49,.03-.71,.19-.39,.28-.8,.53-1.26,.68-.15,.05-.3,.09-.46,.12-.14,.02-.24,.09-.33,.19-.11,.13-.23,.25-.35,.38-.22,.24-.49,.38-.8,.43-.31,.06-.63,.11-.95,.17-.04,0-.09,.04-.13,.07-.21,.18-.34,.41-.43,.67-.1,.3-.22,.59-.33,.89-.01,.03-.02,.07-.04,.1,.04,.02,.08,.03,.13,.04,.32,.08,.58,.27,.81,.5,.12,.12,.22,.12,.34,.01,.33-.31,.72-.52,1.1-.76,.26-.17,.52-.35,.78-.53,.14-.09,.23-.23,.29-.38,.05-.15,.16-.24,.3-.29,.26-.1,.26-.11,.43,.12,.04,.05,.08,.1,.12,.16,.17,.23,.07,.53-.21,.61-.11,.03-.22,.06-.34,.08-.18,.02-.33,.11-.46,.22-.32,.27-.6,.57-.87,.9-.3,.37-.64,.68-1.04,.93-.03,.02-.08,.03-.12,.02-.56-.19-1.11-.38-1.67-.57-.48-.16-.94-.36-1.38-.6-.17-.1-.3-.08-.41,.08-.12,.17-.22,.35-.32,.53-.13,.23-.29,.42-.53,.53-.43,.19-.94,.03-1.21-.39-.25-.4-.26-.81,0-1.21,.07-.12,.15-.22,.22-.34,.03-.06,.06-.12,.07-.18,.03-.12,.09-.2,.21-.24,.18-.06,.36-.12,.52-.23,.15-.1,.31-.04,.44,.12,.03,.04,.05,.1,.12,.07,.07-.03,.14-.06,.14-.15-.02-.41,.13-.78,.29-1.15,.13-.29,.25-.59,.37-.88,0-.02,.01-.04,.02-.07-.27-.06-.53-.13-.79-.19-.27-.06-.46,.08-.61,.26-.11,.12-.23,.17-.38,.18-.26,.02-.27,.02-.36-.23-.02-.06-.04-.13-.07-.18-.14-.24,.13-.58,.41-.54,.36,.05,.73,.04,1.1,0,.39-.04,.79-.04,1.19-.06,.15,0,.24,.07,.26,.23,.01,.21,.02,.42,.02,.63,0,.04-.01,.07-.02,.1,.52-.28,1.03-.55,1.53-.82,.02-.01,.05-.03,.07-.04,.2-.13,.2-.21,.07-.38-.72-.88-1.2-1.87-1.42-2.98-.02-.11-.02-.22-.04-.33-.04-.35,.27-.59,.63-.5,.2,.05,.4,.1,.6,.12,.74,.09,1.48,.18,2.22,.27,.26,.03,.51,.08,.77,.1,.18,.02,.33-.05,.47-.16,.24-.19,.47-.39,.71-.59,.1-.08,.16-.19,.21-.31,.03-.08,.06-.15,.1-.22,.06-.1,.15-.09,.2,.02,.1,.21,.1,.43,.02,.65-.16,.47-.33,.94-.51,1.4-.07,.18-.11,.21-.31,.18-.11-.01-.21-.04-.31-.09-.25-.11-.52-.15-.79-.13-.3,.02-.6,.05-.9,.1-.33,.05-.66,.03-.99,0-.05,0-.09,0-.14,0-.09,0-.12,.04-.06,.12,.03,.04,.06,.08,.1,.11,.36,.31,.66,.68,.95,1.05,.17,.22,.34,.44,.51,.66,.05,.06,.09,.07,.16,.03,.76-.38,1.57-.63,2.4-.78,.23-.04,.47,0,.71,.01,.52,.04,1.05,.05,1.57,.12,.55,.07,1.1,.2,1.65,.3,.06,.01,.12,.02,.18,.04,.13,.04,.25,.02,.37-.04,.28-.13,.56-.26,.84-.38,.17-.08,.3-.18,.37-.36,.06-.16,.16-.21,.28-.2,.07,0,.11,.04,.12,.11,.03,.35-.01,.69-.27,.96m12.86-4.1s-.03,.06-.07,.06c0,0-.02,0-.03,0-7.83-2.35-13.91-8.41-16.27-16.2-.01-.03,0-.05,0-.07,.02-.02,.05-.04,.08-.04,.02,0,.04,0,.06,.03,2.46,2.35,6.1,4.28,10.55,5.56,.03,0,.06,.03,.07,.06,1.29,4.43,3.22,8.06,5.58,10.51,.01,.01,.04,.05,.02,.1m-3.22-9.91s-.01-.04,.01-.08c0,0,.03-.04,.08-.04,2.82,.61,5.79,.96,8.83,1.03,.05,0,.09,.04,.09,.09v9.81c0,.09-.03,.09-.08,.09-.01,0-.03,0-.04,0-3.57-.73-6.9-4.81-8.89-10.89m15.31,21.34c0,.2-.09,.28-.3,.25-.1-.01-.21-.04-.31-.03-.1,0-.21,.04-.28,.1-.47,.41-.9,.87-1.19,1.43-.11,.21-.21,.44-.33,.64-.15,.27-.35,.51-.6,.7-.22,.16-.32,.37-.37,.63-.08,.47-.19,.94-.41,1.37-.07,.14-.15,.28-.24,.41-.08,.11-.1,.23-.09,.36,0,.17,.02,.34,.02,.51,.02,.32-.08,.61-.26,.87-.18,.26-.37,.52-.55,.78-.02,.04-.04,.09-.04,.13-.02,.28,.05,.53,.17,.78,.15,.28,.27,.57,.4,.86,.02,.03,.03,.06,.05,.1,.04-.02,.08-.04,.12-.06,.28-.17,.6-.22,.92-.22,.17,0,.24-.07,.25-.23,.02-.45,.14-.87,.24-1.31,.07-.31,.12-.61,.18-.92,.03-.16,0-.32-.06-.47-.07-.14-.05-.28,0-.42q.11-.26,.39-.22c.07,0,.13,.02,.2,.03,.28,.04,.43,.33,.28,.58-.06,.1-.11,.2-.18,.29-.11,.14-.15,.31-.17,.48-.04,.42-.02,.83,.02,1.24,.05,.47,.03,.93-.07,1.39,0,.04-.04,.08-.07,.1-.53,.26-1.06,.51-1.58,.77-.45,.22-.92,.41-1.4,.54-.19,.05-.27,.15-.23,.35,.04,.2,.1,.4,.15,.6,.07,.25,.09,.5,0,.75-.16,.44-.65,.68-1.13,.57-.46-.11-.75-.39-.86-.85-.03-.13-.05-.27-.09-.4-.02-.06-.04-.12-.07-.18-.06-.1-.08-.21-.02-.32,.09-.17,.17-.34,.21-.53,.03-.18,.19-.25,.4-.22,.05,0,.1,.04,.13-.04,.03-.07,.05-.14,0-.2-.3-.28-.46-.64-.61-1.02-.12-.3-.24-.59-.36-.89,0-.02-.02-.04-.04-.07-.23,.14-.46,.28-.69,.43-.23,.14-.27,.38-.25,.61,.01,.16-.04,.28-.14,.39-.17,.2-.18,.2-.42,.09-.06-.03-.12-.07-.18-.08-.27-.07-.32-.5-.09-.67,.29-.22,.54-.49,.77-.78,.25-.31,.53-.59,.8-.88,.1-.11,.23-.12,.34-.02,.16,.14,.31,.29,.46,.43,.03,.02,.04,.06,.06,.08,.17-.57,.34-1.11,.5-1.66,0-.02,.02-.05,.02-.08,.04-.23,0-.29-.22-.31-1.13-.12-2.18-.47-3.12-1.11-.09-.06-.17-.14-.26-.21-.28-.22-.22-.61,.09-.8,.18-.1,.35-.21,.51-.34,.59-.45,1.17-.92,1.76-1.37,.2-.16,.41-.31,.61-.46,.14-.11,.2-.27,.22-.44,.03-.3,.06-.61,.09-.91,.01-.13-.02-.25-.07-.36-.04-.07-.07-.15-.09-.23-.03-.11,.04-.17,.15-.13,.22,.08,.38,.23,.48,.44,.22,.45,.43,.9,.64,1.35,.08,.18,.07,.22-.09,.34-.09,.06-.18,.12-.28,.16-.25,.1-.47,.26-.65,.46-.2,.23-.39,.46-.56,.7-.2,.27-.44,.49-.7,.7-.04,.03-.07,.06-.1,.09-.07,.07-.05,.11,.04,.13,.05,0,.1,.02,.15,.01,.47-.04,.94,.02,1.41,.07,.28,.03,.55,.07,.83,.11,.08,.01,.11-.01,.14-.09,.27-.8,.66-1.55,1.14-2.25,.13-.19,.33-.33,.51-.49,.4-.35,.78-.7,1.2-1.02,.44-.34,.92-.63,1.38-.95,.05-.04,.1-.07,.16-.1,.12-.07,.19-.16,.23-.29,.1-.29,.21-.57,.32-.86,.06-.17,.08-.34,0-.52-.07-.15-.04-.26,.06-.34,.05-.05,.11-.05,.16,0,.28,.22,.48,.49,.49,.87,0,.41,0,.82,0,1.23m-3.98-10.45h-.04s-.08,0-.08-.09v-9.81s.04-.08,.09-.09c3.04-.07,6.01-.42,8.81-1.03h0c.06,0,.09,.03,.09,.04,.03,.03,.01,.07,.01,.08-1.99,6.09-5.32,10.16-8.89,10.89m22.04-17.14c-2.36,7.8-8.44,13.85-16.27,16.2h-.03s-.06-.04-.07-.05c-.02-.05,0-.09,.02-.1,2.37-2.45,4.3-6.08,5.58-10.51,0-.03,.03-.06,.07-.06,4.44-1.28,8.09-3.2,10.55-5.56,.03-.03,.05-.03,.06-.03,.03,0,.06,.02,.08,.04,.01,.02,.02,.03,0,.07m7.73,19.3c.23-.17,.53-.07,.61,.21,.03,.11,.06,.22,.08,.34,.02,.18,.11,.32,.22,.46,.27,.32,.58,.6,.9,.86,.37,.3,.69,.64,.94,1.04,.02,.03,.03,.08,.02,.12-.19,.55-.38,1.11-.57,1.66-.16,.48-.36,.93-.61,1.37-.1,.17-.08,.3,.08,.41,.17,.12,.35,.22,.53,.32,.23,.13,.42,.29,.53,.53,.2,.43,.03,.94-.39,1.2-.4,.25-.81,.25-1.22,0-.12-.07-.22-.15-.34-.22-.06-.03-.12-.06-.18-.07-.12-.03-.2-.09-.24-.21-.06-.18-.12-.36-.23-.52-.1-.15-.04-.31,.12-.43,.04-.03,.1-.05,.07-.12-.03-.07-.06-.14-.15-.14-.41,.02-.78-.13-1.15-.29-.29-.13-.59-.25-.89-.37-.02,0-.04-.01-.07-.02-.06,.27-.13,.53-.19,.79-.06,.27,.08,.46,.26,.61,.12,.11,.17,.23,.18,.37,.02,.26,.02,.27-.23,.36-.06,.02-.13,.04-.18,.07-.24,.14-.58-.13-.54-.41,.05-.36,.04-.73,0-1.09-.04-.39-.04-.79-.06-1.18,0-.15,.07-.24,.23-.26,.21-.01,.42-.02,.63-.02,.04,0,.07,.01,.1,.02-.28-.52-.55-1.02-.82-1.53-.01-.02-.03-.05-.04-.07-.13-.2-.21-.2-.38-.07-.88,.71-1.88,1.2-3,1.42-.11,.02-.22,.02-.33,.03-.35,.05-.59-.27-.5-.63,.05-.2,.1-.4,.12-.6,.09-.74,.18-1.47,.27-2.21,.03-.26,.08-.51,.1-.76,.02-.18-.05-.33-.16-.47-.2-.24-.39-.47-.59-.71-.08-.1-.19-.16-.31-.21-.08-.03-.16-.06-.22-.1-.1-.06-.09-.15,.02-.2,.21-.1,.43-.1,.65-.02,.47,.16,.94,.33,1.41,.5,.19,.07,.21,.11,.18,.31-.01,.11-.04,.21-.09,.31-.11,.25-.15,.51-.13,.78,.02,.3,.05,.6,.1,.89,.05,.33,.03,.66,0,.98,0,.05,0,.09,0,.14,0,.09,.04,.11,.12,.06,.04-.03,.08-.06,.11-.09,.31-.36,.68-.66,1.05-.95,.22-.17,.44-.34,.66-.51,.06-.05,.07-.09,.03-.16-.38-.76-.64-1.56-.79-2.39-.04-.23,0-.47,.01-.71,.04-.52,.05-1.05,.12-1.56,.07-.55,.2-1.09,.3-1.64,.01-.06,.02-.12,.04-.18,.04-.13,.02-.25-.04-.37-.14-.27-.26-.56-.38-.83-.08-.17-.18-.3-.36-.37-.16-.06-.21-.16-.2-.28,0-.07,.04-.11,.11-.12,.35-.03,.69,.01,.96,.27,.29,.28,.58,.58,.87,.87,.14,.14,.13,.26-.03,.39-.08,.06-.18,.12-.24,.2-.06,.08-.12,.18-.13,.27-.04,.62-.02,1.25,.18,1.85,.07,.23,.16,.45,.23,.68,.08,.3,.12,.61,.07,.92-.04,.27,.03,.49,.19,.7,.28,.39,.53,.8,.68,1.25,.05,.15,.1,.3,.12,.46,.02,.14,.09,.24,.19,.32,.13,.11,.25,.23,.38,.35,.24,.22,.38,.49,.43,.8,.06,.31,.11,.63,.17,.94,0,.04,.04,.09,.06,.12,.18,.21,.41,.34,.68,.43,.3,.1,.59,.22,.89,.33,.03,.01,.07,.02,.1,.04,.02-.05,.03-.08,.04-.13,.08-.32,.27-.57,.5-.8,.12-.12,.12-.22,.01-.34-.31-.33-.52-.72-.76-1.09-.17-.26-.35-.52-.53-.78-.1-.14-.23-.23-.38-.29-.15-.05-.24-.16-.29-.3-.11-.26-.11-.26,.12-.43,.05-.04,.1-.08,.16-.12m-.71-50.51c-.74-.09-1.48-.18-2.22-.27-.26-.03-.51-.07-.77-.1-.18-.02-.33,.05-.47,.16-.24,.19-.47,.39-.71,.59-.1,.08-.16,.19-.2,.31-.03,.08-.06,.15-.1,.22-.06,.1-.15,.09-.2-.02-.1-.21-.1-.43-.02-.65,.16-.47,.33-.94,.51-1.4,.07-.18,.11-.21,.31-.18,.11,.02,.21,.04,.31,.09,.25,.11,.52,.15,.79,.13,.3-.02,.6-.05,.9-.1,.33-.05,.66-.03,.99,0,.05,0,.09,0,.14,0,.09,0,.12-.04,.06-.12-.03-.04-.06-.08-.1-.11-.36-.31-.66-.68-.95-1.05-.17-.22-.34-.44-.51-.66-.05-.06-.09-.07-.16-.03-.76,.38-1.57,.63-2.4,.78-.23,.04-.47,0-.71-.01-.53-.03-1.05-.05-1.57-.12-.55-.07-1.1-.2-1.65-.3-.06-.01-.12-.02-.18-.04-.13-.04-.25-.02-.37,.04-.28,.14-.56,.25-.84,.38-.17,.08-.3,.18-.37,.36-.06,.16-.16,.21-.28,.2-.07,0-.11-.04-.12-.11-.03-.35,.01-.69,.27-.96,.29-.29,.58-.58,.87-.86,.15-.14,.26-.13,.39,.03,.06,.08,.12,.18,.2,.24,.08,.06,.18,.12,.27,.13,.63,.04,1.25,.02,1.86-.18,.23-.07,.45-.16,.69-.23,.3-.08,.61-.12,.92-.07,.27,.04,.49-.03,.71-.19,.39-.28,.8-.53,1.26-.68,.15-.05,.3-.09,.46-.12,.14-.02,.24-.09,.33-.19,.11-.13,.23-.25,.35-.38,.22-.24,.49-.38,.8-.43,.31-.06,.63-.11,.95-.17,.04,0,.09-.03,.13-.06,.21-.18,.34-.41,.43-.67,.1-.3,.22-.59,.33-.89,.01-.03,.02-.07,.04-.1-.04-.02-.08-.03-.13-.04-.32-.08-.58-.27-.81-.5-.12-.12-.22-.12-.34-.01-.33,.31-.72,.52-1.1,.76-.26,.17-.52,.35-.78,.53-.14,.09-.23,.22-.29,.38-.05,.15-.16,.24-.3,.29-.26,.1-.26,.1-.43-.12-.04-.05-.08-.1-.12-.16-.17-.23-.07-.53,.21-.61,.11-.03,.22-.06,.34-.08,.18-.02,.33-.11,.46-.22,.32-.27,.6-.57,.87-.9,.3-.37,.64-.68,1.04-.94,.03-.02,.08-.03,.12-.02,.56,.19,1.11,.38,1.67,.57,.48,.16,.94,.36,1.38,.6,.17,.1,.3,.08,.41-.08,.12-.17,.22-.35,.32-.53,.13-.23,.29-.42,.53-.53,.43-.19,.95-.03,1.21,.39,.25,.4,.26,.81,0,1.21-.07,.12-.15,.22-.22,.34-.03,.05-.06,.12-.07,.18-.03,.12-.09,.2-.21,.24-.18,.06-.36,.12-.52,.23-.15,.1-.31,.05-.44-.12-.03-.04-.05-.1-.12-.07-.07,.03-.14,.06-.14,.15,.02,.41-.13,.78-.29,1.15-.13,.29-.25,.59-.37,.88,0,.02-.01,.04-.02,.07,.27,.06,.53,.13,.79,.19,.27,.06,.46-.08,.61-.26,.11-.12,.23-.17,.38-.18,.26-.02,.27-.02,.36,.23,.02,.06,.04,.13,.07,.18,.14,.24-.13,.58-.41,.54-.36-.05-.73-.04-1.1,0-.39,.04-.79,.04-1.19,.06-.15,0-.24-.07-.26-.23-.01-.21-.02-.42-.02-.63,0-.04,.01-.07,.02-.1-.52,.28-1.03,.55-1.53,.82-.02,.01-.05,.03-.07,.04-.2,.13-.2,.21-.07,.38,.72,.88,1.2,1.87,1.42,2.98,.02,.11,.02,.22,.04,.33,.04,.35-.27,.59-.63,.5-.2-.05-.4-.1-.6-.12m11.37,25.67c-.23-.04-.29,0-.31,.22-.12,1.13-.48,2.17-1.11,3.11-.06,.09-.14,.17-.21,.26-.22,.28-.61,.22-.8-.09-.1-.18-.21-.35-.34-.51-.46-.59-.92-1.17-1.38-1.75-.16-.2-.31-.41-.47-.61-.11-.14-.27-.2-.44-.22-.31-.03-.61-.05-.92-.08-.13-.01-.25,.02-.36,.07-.07,.04-.15,.07-.23,.09-.11,.03-.17-.04-.13-.15,.08-.22,.23-.38,.44-.48,.45-.22,.9-.43,1.35-.63,.18-.08,.22-.07,.35,.09,.06,.08,.12,.18,.16,.28,.1,.25,.26,.47,.46,.64,.23,.2,.46,.39,.7,.56,.27,.2,.49,.44,.7,.69,.03,.04,.06,.07,.09,.1,.07,.06,.11,.05,.13-.04,0-.05,.02-.1,.01-.15-.04-.47,.01-.94,.07-1.41,.03-.27,.07-.55,.11-.82,.01-.08-.01-.11-.09-.14-.81-.27-1.56-.65-2.26-1.14-.19-.13-.34-.33-.49-.51-.35-.39-.71-.78-1.02-1.19-.34-.44-.63-.91-.95-1.37-.04-.05-.07-.1-.1-.16-.07-.12-.16-.19-.29-.23-.29-.1-.58-.21-.86-.32-.17-.06-.34-.08-.52,0-.15,.07-.26,.04-.34-.06-.05-.05-.05-.11,0-.16,.23-.27,.5-.48,.87-.49,.41,0,.82,0,1.23,0,.2,0,.28,.09,.25,.3-.01,.1-.04,.21-.03,.31,0,.1,.04,.21,.1,.28,.41,.47,.87,.89,1.44,1.18,.21,.11,.44,.21,.65,.32,.27,.15,.52,.35,.7,.6,.16,.22,.37,.32,.63,.37,.47,.08,.94,.19,1.37,.41,.14,.07,.28,.15,.41,.24,.11,.08,.23,.1,.37,.09,.17,0,.34-.02,.52-.02,.32-.02,.61,.08,.88,.26,.26,.18,.52,.37,.79,.55,.04,.03,.09,.04,.14,.04,.28,.02,.53-.05,.78-.17,.28-.15,.58-.27,.86-.4,.03-.02,.06-.03,.1-.05-.02-.04-.04-.08-.06-.12-.17-.28-.22-.59-.22-.92,0-.16-.07-.24-.23-.25-.45-.02-.88-.14-1.31-.24-.31-.06-.62-.12-.92-.18-.16-.03-.33,0-.47,.07-.14,.07-.28,.05-.42,0-.26-.11-.26-.11-.22-.39,0-.07,.02-.13,.03-.2,.04-.28,.33-.42,.58-.28,.1,.06,.2,.11,.29,.18,.14,.11,.31,.15,.48,.17,.42,.04,.83,.02,1.25-.02,.47-.05,.94-.03,1.4,.07,.04,0,.08,.04,.1,.07,.26,.52,.51,1.05,.78,1.58,.22,.45,.41,.91,.55,1.4,.05,.19,.16,.27,.35,.23,.2-.04,.4-.1,.6-.15,.25-.07,.5-.09,.75,0,.44,.16,.69,.65,.58,1.13-.11,.46-.39,.75-.86,.86-.13,.03-.27,.05-.4,.08-.06,.02-.12,.04-.18,.08-.1,.06-.21,.08-.32,.02-.17-.09-.34-.17-.53-.21-.18-.03-.25-.19-.22-.39,0-.05,.03-.1-.04-.13-.07-.03-.14-.05-.2,.01-.28,.3-.65,.46-1.02,.61-.3,.12-.59,.24-.89,.36-.02,0-.04,.02-.07,.04,.14,.23,.29,.46,.43,.69,.14,.23,.38,.27,.61,.25,.16-.01,.28,.04,.4,.14,.2,.17,.2,.18,.09,.42-.03,.06-.07,.12-.08,.18-.07,.27-.5,.32-.67,.09-.22-.29-.49-.54-.78-.77-.31-.25-.59-.53-.88-.8-.11-.1-.12-.22-.02-.34,.14-.16,.29-.31,.43-.46,.02-.03,.06-.04,.08-.06-.57-.17-1.12-.34-1.66-.5-.02,0-.05-.01-.08-.02"/>
  </g>
</svg>