<?xml version="1.0" encoding="UTF-8"?>
<svg id="Capa_2" data-name="Capa 2" xmlns="http://www.w3.org/2000/svg" viewBox="0 0 572.47 87.88">
  <defs>
    <style>
      .cls-1 {
        fill: #f6de52;
      }
    </style>
  </defs>
  <g id="Capa_1-2" data-name="Capa 1">
    <g>
      <path class="cls-1" d="M46.11,36.08c-.97,.19-2.11,.38-3.43,.58-1.32,.2-2.77,.4-4.36,.6-1.59,.2-3.21,.38-4.86,.53s-3.32,.28-4.99,.38c-1.67,.1-3.24,.15-4.71,.15-4.54,0-8.34-.47-11.38-1.41-3.04-.94-5.48-2.25-7.32-3.93-1.84-1.68-3.14-3.69-3.91-6.03-.77-2.34-1.15-4.92-1.15-7.74C0,6.4,8.44,0,25.31,0c3.27,0,6.28,.21,9.02,.63,2.74,.42,5.11,1.1,7.12,2.04,2,.94,3.6,2.19,4.79,3.73,1.19,1.55,1.86,3.43,2.03,5.65h-15.54c-.17-.87-.48-1.6-.95-2.17-.47-.57-1.03-1.02-1.68-1.34-.65-.32-1.39-.55-2.21-.68-.82-.13-1.68-.2-2.58-.2-3.27,0-5.72,1.02-7.34,3.05-1.62,2.03-2.43,4.87-2.43,8.5,0,1.75,.19,3.33,.58,4.74,.38,1.41,.99,2.61,1.8,3.61,.82,.99,1.89,1.76,3.21,2.29,1.32,.54,2.93,.81,4.84,.81,1.5,0,2.85-.1,4.03-.3,1.19-.2,2.2-.47,3.03-.81v-5.8h-8.82v-7.46h24.06v19.32c-.47,.13-1.19,.29-2.16,.48Z"/>
      <path class="cls-1" d="M54.78,37.37V.96h15.24V37.37h-15.24Z"/>
      <path class="cls-1" d="M104.94,37.37l-1.25-8.12c-.17-1.11-.38-2.01-.65-2.7-.27-.69-.64-1.21-1.13-1.56-.48-.35-1.11-.59-1.88-.71-.77-.12-1.74-.18-2.91-.18h-4.81v13.26h-15.08V.96h25.71c2.47,0,4.69,.21,6.67,.63,1.97,.42,3.65,1.06,5.04,1.92,1.39,.86,2.45,1.97,3.18,3.33,.73,1.36,1.1,2.97,1.1,4.82,0,1.31-.22,2.46-.65,3.45-.43,.99-1.03,1.82-1.78,2.5-.75,.67-1.63,1.21-2.63,1.61-1,.4-2.06,.67-3.16,.81,1.24,.1,2.3,.33,3.18,.68,.88,.35,1.61,.79,2.18,1.31,.57,.52,1.01,1.12,1.33,1.79,.32,.67,.54,1.38,.68,2.12l2.16,11.45h-15.29Zm-.95-24.81c0-1.61-.53-2.76-1.6-3.43-1.07-.67-2.54-1.01-4.41-1.01h-5.66v9.03h5.66c1.84,0,3.3-.34,4.39-1.01,1.09-.67,1.63-1.87,1.63-3.58Z"/>
      <path class="cls-1" d="M160.07,37.37l-2.71-6.05h-18.64l-2.81,6.05h-14.93L139.42,.96h18.99l18.44,36.41h-16.79Zm-11.98-27.18l-5.96,13.16h11.73l-5.76-13.16Z"/>
      <path class="cls-1" d="M200.46,37.37V.96h15.24V29h16.89v8.37h-32.12Z"/>
      <path class="cls-1" d="M271.68,37.37l-2.71-6.05h-18.64l-2.81,6.05h-14.93L251.03,.96h18.99l18.44,36.41h-16.79Zm-11.98-27.18l-5.96,13.16h11.73l-5.76-13.16Z"/>
      <path class="cls-1" d="M339.79,37.37l-1.25-8.12c-.17-1.11-.38-2.01-.65-2.7-.27-.69-.64-1.21-1.13-1.56-.49-.35-1.11-.59-1.88-.71-.77-.12-1.74-.18-2.91-.18h-4.81v13.26h-15.08V.96h25.71c2.47,0,4.69,.21,6.67,.63,1.97,.42,3.65,1.06,5.04,1.92,1.39,.86,2.45,1.97,3.18,3.33,.73,1.36,1.1,2.97,1.1,4.82,0,1.31-.22,2.46-.65,3.45-.43,.99-1.03,1.82-1.78,2.5-.75,.67-1.63,1.21-2.63,1.61-1,.4-2.05,.67-3.16,.81,1.24,.1,2.3,.33,3.18,.68,.88,.35,1.61,.79,2.18,1.31,.57,.52,1.01,1.12,1.33,1.79,.32,.67,.54,1.38,.68,2.12l2.16,11.45h-15.29Zm-.95-24.81c0-1.61-.53-2.76-1.6-3.43-1.07-.67-2.54-1.01-4.41-1.01h-5.66v9.03h5.66c1.84,0,3.3-.34,4.39-1.01,1.08-.67,1.63-1.87,1.63-3.58Z"/>
      <path class="cls-1" d="M401.4,30.18c-1.15,2.07-2.71,3.71-4.66,4.92s-4.24,2.05-6.87,2.52c-2.62,.47-5.4,.71-8.34,.71s-5.82-.21-8.45-.63c-2.62-.42-4.91-1.21-6.87-2.37-1.96-1.16-3.49-2.79-4.61-4.89-1.12-2.1-1.68-4.83-1.68-8.2V.96h14.73V20.93c0,1.75,.13,3.21,.4,4.39,.27,1.18,.68,2.13,1.25,2.85,.57,.72,1.28,1.24,2.13,1.54,.85,.3,1.88,.45,3.08,.45,1.1,0,2.1-.15,2.98-.45,.88-.3,1.63-.81,2.23-1.54,.6-.72,1.06-1.67,1.38-2.85,.32-1.18,.48-2.64,.48-4.39V.96h14.53V22.24c0,3.23-.58,5.88-1.73,7.94Z"/>
      <path class="cls-1" d="M410.05,37.37V.96h15.24V29h16.89v8.37h-32.12Z"/>
      <path class="cls-1" d="M446.58,37.37V.96h34.68v7.56h-19.65v6.81h18.39v7.46h-18.39v7.01h19.85v7.56h-34.88Z"/>
      <path class="cls-1" d="M510.88,9.33v28.04h-15.24V9.33h-12.03V.96h39.29V9.33h-12.03Z"/>
      <path class="cls-1" d="M555.69,37.37l-2.71-6.05h-18.64l-2.81,6.05h-14.93L535.04,.96h18.99l18.44,36.41h-16.79Zm-11.98-27.18l-5.96,13.16h11.73l-5.76-13.16Z"/>
      <path class="cls-1" d="M163.6,76.03v10.89h-15.24v-10.89l-17.64-25.52h17.94l8.27,15.73,8.37-15.73h15.94l-17.64,25.52Z"/>
      <path class="cls-1" d="M248.5,85.64c-.97,.19-2.11,.38-3.43,.58-1.32,.2-2.77,.4-4.36,.6-1.59,.2-3.21,.38-4.86,.53s-3.32,.28-4.99,.38c-1.67,.1-3.24,.15-4.71,.15-4.54,0-8.34-.47-11.38-1.41-3.04-.94-5.48-2.25-7.32-3.93-1.84-1.68-3.14-3.69-3.91-6.03-.77-2.34-1.15-4.92-1.15-7.74,0-12.81,8.44-19.21,25.31-19.21,3.27,0,6.28,.21,9.02,.63,2.74,.42,5.11,1.1,7.12,2.04,2,.94,3.6,2.19,4.79,3.73,1.19,1.55,1.86,3.43,2.03,5.65h-15.54c-.17-.87-.48-1.6-.95-2.17-.47-.57-1.03-1.02-1.68-1.34-.65-.32-1.39-.55-2.21-.68-.82-.13-1.68-.2-2.58-.2-3.27,0-5.72,1.02-7.34,3.05-1.62,2.03-2.43,4.87-2.43,8.5,0,1.75,.19,3.33,.58,4.74,.38,1.41,.99,2.61,1.8,3.61,.82,.99,1.89,1.76,3.21,2.29,1.32,.54,2.93,.81,4.84,.81,1.5,0,2.85-.1,4.03-.3,1.19-.2,2.2-.47,3.03-.81v-5.8h-8.82v-7.46h24.06v19.32c-.47,.13-1.19,.29-2.16,.48Z"/>
      <path class="cls-1" d="M291.85,86.93l-2.71-6.05h-18.64l-2.81,6.05h-14.93l18.44-36.41h18.99l18.44,36.41h-16.79Zm-11.98-27.18l-5.96,13.16h11.73l-5.76-13.16Z"/>
      <path class="cls-1" d="M337.16,86.93l-12.83-25.92v25.92h-12.88V50.51h22.15l12.83,25.87v-25.87h12.88v36.41h-22.15Z"/>
      <path class="cls-1" d="M401.2,86.93l-2.71-6.05h-18.64l-2.81,6.05h-14.93l18.44-36.41h18.99l18.44,36.41h-16.79Zm-11.98-27.18l-5.96,13.16h11.73l-5.76-13.16Z"/>
      <path class="cls-1" d="M420.7,86.93v-8.27h13.83v8.27h-13.83Z"/>
    </g>
  </g>
</svg>