<?xml version="1.0" encoding="UTF-8"?>
<svg id="Capa_2" data-name="Capa 2" xmlns="http://www.w3.org/2000/svg" viewBox="0 0 298.37 224">
  <defs>
    <style>
      .cls-1 {
        fill: #f6de52;
      }
    </style>
  </defs>
  <g id="Capa_1-2" data-name="Capa 1">
    <g>
      <polygon class="cls-1" points="21.33 156.84 21.33 172.52 13.51 156.84 0 156.84 0 178.91 7.85 178.91 7.85 163.2 15.68 178.91 29.18 178.91 29.18 156.84 21.33 156.84"/>
      <rect class="cls-1" x="31.67" y="156.84" width="9.29" height="22.06"/>
      <path class="cls-1" d="M61.51,178.91l-8.74-11.49,8.34-10.57h11.22l-9.11,10.15,10.02,11.92h-11.74Zm-18.06-22.06h9.29v22.06h-9.29v-22.06Z"/>
      <polygon class="cls-1" points="73.18 178.91 73.18 156.84 94.33 156.84 94.33 161.43 82.35 161.43 82.35 165.55 93.56 165.55 93.56 170.07 82.35 170.07 82.35 174.32 94.45 174.32 94.45 178.91 73.18 178.91"/>
      <path class="cls-1" d="M123.91,163.87c0-.98-.33-1.67-.98-2.08-.65-.41-1.55-.61-2.69-.61h-3.45v5.47h3.45c1.12,0,2.01-.2,2.67-.61,.66-.41,.99-1.13,.99-2.17Zm.58,15.04l-.76-4.92c-.1-.67-.23-1.22-.4-1.63-.16-.42-.39-.73-.69-.95-.3-.21-.68-.36-1.15-.43-.47-.07-1.06-.11-1.77-.11h-2.93v8.04h-9.2v-22.06h15.68c1.51,0,2.86,.13,4.06,.38,1.2,.26,2.23,.64,3.07,1.16,.84,.52,1.49,1.19,1.94,2.02,.45,.82,.67,1.8,.67,2.92,0,.79-.13,1.49-.4,2.09-.26,.6-.63,1.11-1.08,1.51-.46,.41-.99,.73-1.61,.98-.61,.25-1.25,.41-1.92,.49,.75,.06,1.4,.2,1.94,.41,.54,.21,.98,.48,1.33,.79,.35,.32,.62,.68,.81,1.09,.19,.41,.33,.84,.41,1.28l1.31,6.94h-9.32Z"/>
      <path class="cls-1" d="M159.9,174.55c-.7,1.25-1.65,2.25-2.84,2.98-1.19,.73-2.59,1.24-4.19,1.53-1.6,.29-3.29,.43-5.09,.43s-3.55-.13-5.15-.38c-1.6-.25-2.99-.73-4.19-1.44-1.19-.7-2.13-1.69-2.81-2.96-.68-1.27-1.02-2.93-1.02-4.96v-12.9h8.99v12.1c0,1.06,.08,1.94,.24,2.66,.16,.71,.42,1.29,.76,1.73,.35,.44,.78,.75,1.3,.93,.52,.18,1.15,.28,1.88,.28,.67,0,1.28-.09,1.82-.28,.54-.18,.99-.49,1.36-.93,.37-.44,.65-1.01,.84-1.73,.19-.71,.29-1.6,.29-2.66v-12.1h8.86v12.9c0,1.96-.35,3.56-1.05,4.81Z"/>
      <polygon class="cls-1" points="178.94 178.91 171.12 163.2 171.12 178.91 163.27 178.91 163.27 156.84 176.77 156.84 184.6 172.52 184.6 156.84 192.45 156.84 192.45 178.91 178.94 178.91"/>
      <polygon class="cls-1" points="210.62 178.91 202.8 163.2 202.8 178.91 194.95 178.91 194.95 156.84 208.46 156.84 216.28 172.52 216.28 156.84 224.13 156.84 224.13 178.91 210.62 178.91"/>
      <rect class="cls-1" x="226.62" y="156.84" width="9.29" height="22.06"/>
      <polygon class="cls-1" points="254.07 178.91 246.25 163.2 246.25 178.91 238.4 178.91 238.4 156.84 251.91 156.84 259.73 172.52 259.73 156.84 267.58 156.84 267.58 178.91 254.07 178.91"/>
      <path class="cls-1" d="M297.05,178.13c-.59,.11-1.29,.23-2.09,.35-.8,.12-1.69,.24-2.66,.37-.97,.12-1.96,.23-2.96,.32-1.01,.09-2.02,.17-3.04,.23-1.02,.06-1.98,.09-2.87,.09-2.77,0-5.08-.29-6.94-.85-1.85-.57-3.34-1.36-4.46-2.38-1.12-1.02-1.92-2.24-2.38-3.65-.47-1.42-.7-2.98-.7-4.69,0-7.76,5.14-11.64,15.43-11.64,2,0,3.83,.13,5.5,.38,1.67,.25,3.12,.67,4.34,1.24,1.22,.57,2.19,1.32,2.92,2.26,.72,.94,1.13,2.08,1.24,3.42h-9.47c-.1-.53-.3-.97-.58-1.31-.29-.35-.63-.62-1.02-.81-.4-.19-.85-.33-1.35-.41-.5-.08-1.02-.12-1.57-.12-2,0-3.49,.62-4.48,1.85-.99,1.23-1.48,2.95-1.48,5.15,0,1.06,.12,2.02,.35,2.87,.24,.86,.6,1.58,1.1,2.19,.5,.6,1.15,1.06,1.96,1.39,.8,.33,1.79,.49,2.95,.49,.92,0,1.74-.06,2.46-.18,.72-.12,1.34-.29,1.85-.49v-3.52h-5.38v-4.52h14.67v11.7c-.29,.08-.72,.18-1.31,.29Z"/>
      <path class="cls-1" d="M181.65,129.62c-4.44,1.88-11.41,4.03-14.31-.63-1.62-2.58-.59-6.61,1.8-10.28,1.52-2.35,3.47-4.5,5.42-6.65-1.08,1.76-4.14,7.64-.14,10.58,1.56,1.12,4.3,1.24,7.71,.35l40.71-10.75-41.2,17.38Z"/>
      <path class="cls-1" d="M191.85,61.13c-.01-.16-.01-.32,0-.48,.01-.13-.04-.19-.16-.21-.05,0-.11-.03-.16-.01-.29,.09-.57-.04-.85-.07-.11,0-.22,.02-.33,.04-.43,.07-.85,.18-1.26,.31-.63,.2-1.28,.35-1.94,.41-.04,0-.08,0-.11,.02-.29,.12-.54,0-.74-.18-.19-.18-.41-.24-.64-.3-.24-.07-.47-.13-.71-.19-.25-.07-.5-.16-.76-.22-.23-.06-.47-.12-.7-.15-.08-.01-.21,.03-.26,.09-.21,.29-.44,.58-.4,.97,.01,.11,.02,.23-.11,.28-.09,.04-.26-.04-.33-.14-.18-.27-.27-.57-.24-.89,.03-.31,.05-.62,.08-.92,.02-.25,.13-.34,.37-.3,0,0,.02,0,.03,0,.4-.04,.75,.17,1.12,.25,.49,.11,.98,.17,1.38,.23,.48-.08,.82,.04,1.14,.24,.14,.09,.32,.11,.48,.15,.11,.03,.45-.19,.5-.29,.04-.08,0-.11-.08-.13-.37-.11-.74-.21-1.1-.33-.26-.08-.32-.42-.11-.59,.21-.16,.43-.3,.64-.46,.35-.26,.71-.51,1.05-.79,.3-.24,.57-.52,.86-.79,.2-.19,.19-.42,.12-.66-.03-.1-.03-.2-.08-.29-.08-.17-.16-.34-.27-.49-.07-.09-.1-.18-.06-.28,.04-.11,.14-.1,.24-.1,.23-.01,.41,.12,.58,.24,.21,.15,.35,.36,.47,.59,.1,.18,.24,.33,.36,.49,.13,.18,.11,.28-.08,.41-.35,.25-.74,.46-1.02,.79-.14,.16-.27,.33-.39,.5-.02,.03-.03,.1-.02,.11,.03,.03,.09,.06,.13,.05,.3-.02,.61-.06,.91-.08,.37-.02,.74-.07,1.11-.04,.29,.02,.57,.13,.86,.21,.13,.04,.26,.1,.4,.12,.07,.01,.17-.03,.22-.08,.19-.18,.37-.38,.55-.56,.04-.04,.11-.06,.16-.07,.45-.04,.89,0,1.3,.21,.18,.09,.32,.23,.49,.33,.08,.05,.19,.08,.29,.09,.21,.03,.37,.16,.51,.29,.22,.19,.41,.41,.61,.62,.04,.04,.07,.09,.1,.14,.07,.13,.16,.14,.3,.07,.27-.15,.55-.31,.84-.42,.3-.12,.41-.05,.6,.26,.29,.46,.33,.93,.06,1.42,0,0,0,0,0,.01-.12,.26-.12,.27-.34,.08-.08-.07-.14-.04-.23,0-.03,.02-.06,.02-.09,.04l.04,.04s0,.08,0,.13c-.12,.05-.24,.09-.36,.11-.02,0-.04,0-.06,0-.03-.02-.01-.06,0-.09,0,0,0,0,0,0-.02,.02-.04,.04-.06,.06-.03,.04-.07,.07-.12,.07-.03,0-.05-.02-.07-.04-.02,0-.05,0-.08-.02-.15-.05-.3-.13-.48-.08-.13,.04-.17-.11-.2-.2-.02-.06-.02-.13-.04-.19-.07-.21-.26-.31-.46-.23-.32,.12-.66,.16-1.01,.19-.49,.04-.98,.08-1.47,.1-.15,0-.23,.07-.28,.21-.08,.2-.14,.39-.14,.6,0,.11,.02,.21,.11,.26,.19,.11,.24,.32,.33,.48,.06,.11,0,.19-.12,.24-.17,.07-.33,.11-.5,0-.04-.02-.08-.04-.1-.07-.06-.16-.14-.31-.17-.48-.04-.22-.06-.44-.08-.66Zm-12.7-31.01s-.07,.02-.1,.02c0,.01,0,.03,0,.04-.04,.54-.05,1.09-.1,1.63-.05,.54-.13,1.07-.2,1.61-.04,.31-.2,.55-.44,.74-.09,.07-.15,.19-.2,.3-.16,.35-.32,.7-.47,1.06-.13,.3-.24,.61-.37,.91-.04,.1-.08,.19-.11,.29-.06,.23,.06,.42,.18,.61,.05,.08,.11,.16,.16,.25,.08,.14,.18,.26,.35,.3,.03,0,.06,.02,.09,.04,.09,.05,.19,.09,.18,.22,0,.1-.15,.23-.27,.23-.42,.02-.81-.02-1.13-.34-.07-.07-.17-.1-.24-.15-.16-.11-.32-.22-.47-.34-.08-.06-.06-.15,0-.22,.16-.23,.32-.46,.46-.71,.02-.04,.04-.08,.06-.13,.1-.44,.19-.87,.29-1.31,.05-.24,.11-.47,.19-.7,.1-.25,.34-.56,.45-.85,0-.03,0-.05,.01-.08-.05-.01-.09-.03-.13-.06-.18-.12-.24-.34-.29-.54-.17-.66-.33-1.37-.15-2.02-.03,0-.06,0-.1,0-.79,.09-1.59,.2-2.39,.16-.18,0-.35,0-.53-.02-.24-.03-.37-.23-.44-.42-.1-.29-.32-.44-.53-.62-.17-.14-.35-.29-.52-.44-.33-.29-.65-.58-.98-.86-.03-.03-.07-.05-.11-.05-.27-.04-.54-.04-.8,.05-.21,.07-.38,.15-.52,.32-.03,.04-.08,.07-.13,.1-.1,.05-.21,.01-.23-.1-.02-.1-.03-.21,0-.3,.07-.26,.17-.51,.39-.7,.11-.08,.22-.16,.33-.25,.09-.07,.16-.15,.25-.22,.13-.1,.26-.19,.4-.27,.08-.04,.15,0,.21,.08,.33,.45,.68,.88,1.16,1.2,.35,.23,.73,.41,1.09,.63,.13,.08,.23,.22,.34,.34,.04,.04,.06,.1,.09,.14,.17,.24,.24,.26,.51,.13,.22-.1,.44-.2,.66-.31,.04-.02,.1-.04,.12-.07,.08-.12,.18-.18,.3-.22,.06-.1,.14-.2,.22-.28,.42-.39,1.07-.95,1.67-1.15,.01-.03,.03-.05,.04-.08,.05-.08,.11-.16,.16-.24,.19-.38,.36-.76,.56-1.13,.07-.14,.19-.26,.29-.39,.07-.09,.15-.19,.24-.27,.07-.07,.16-.14,.25-.17,.34-.08,.68-.19,1.04-.14,0,0,.01,0,.02,0,0,0,.02,0,.02,0,.33-.02,1.25-.26,1.59,.02,.13,0,.25,.03,.38,.05,.14,.03,.24-.04,.26-.19,.04-.34,.19-.64,.34-.95,0,0,0,0,0,0,.01-.12,.03-.24,.06-.35,.13,.02,.25,.06,.37,.11,.34,.14,.68,.28,1.02,.41,.1,.04,.2,.08,.26,.16,.02,.02,.04,.05,.04,.08,0,.03-.01,.07-.03,.1-.03,.07-.06,.13-.09,.2,0,.01-.01,.04-.02,.07,0,.04,0,.04-.02,.09-.03,.07-.04,.06-.07,.15,0,.02-.04,.08-.05,.11-.04,.07-.09,.13-.18,.21,0,.06-.04,.13-.09,.17-.11,.1-.14,.21-.13,.35,.01,.11-.03,.16-.15,.2-.13,.05-.26,.14-.35,.25-.02,.03-.05,.05-.07,.06-.03,.08-.13,.12-.21,.08-.04-.02-.06-.06-.09-.1-.09-.1-.23-.16-.36-.16h0c-.13,.01-.2,.12-.21,.3-.03,.31-.07,.62-.11,.92,.01,.16,0,.33-.04,.49,0,.02-.01,.05,0,.07,.01,.02,.03,.03,.05,.04,.23,.14,.5,.23,.77,.26,.12,.02,.28,0,.42,.02,.02,0,.05,0,.07,0,.12-.03,.2-.08,.21-.21,0-.02,0-.05,.02-.07,.01-.11,.04-.23,.08-.33,.01-.03,.03-.06,.06-.08,.03-.02,.07-.02,.09,0,.02,.02,.01,.05,.01,.08,0,.05-.02,.1-.02,.15,.05-.04,.1-.07,.15-.1,.13-.08,.19-.05,.26,.09,.05,.1,.14,.17,.12,.31-.04,.22-.18,.42-.4,.48-.13,.04-.27,.07-.39,.13-.39,.17-.81,.23-1.23,.24-.31,.01-.62,0-.93-.01-.14,0-.21-.08-.24-.21-.03-.19-.05-.37-.08-.56,0-.04-.04-.1-.07-.12-.03-.01-.1,.01-.12,.04,0,0,0,.01-.01,.02-.03,.05-.06,.1-.08,.13-.36,.65-.83,1.33-1.58,1.56Zm1.44,58.97c.1,0,.19,0,.29,.02,.11,.01,.19,.07,.23,.17,.11,.25,.24,.49,.34,.74,.05,.14,.05,.31,.08,.46,.05,.37,.12,.73,.16,1.1,.03,.32,.04,.65-.06,.96-.03,.11,.03,.15,.12,.18,.26,.08,.51,.15,.77,.24,.11,.04,.22,.1,.32,.17v-.02c0-.06,0-.12,.03-.17,0,0,0,0,0-.01,0,0,.01,0,.02,.01,.03,.04,.06,.08,.09,.12,.02-.04,.03-.08,.04-.12h0s0-.07,0-.1c-.04-.09-.11-.15-.18-.22-.18-.15-.38-.28-.59-.39-.05-.02-.1-.04-.14-.08-.04-.04-.07-.09-.06-.14,.04-.04,.08-.08,.12-.13,.08-.09,.16-.18,.24-.28,.03,.15,.11,.29,.22,.4,.01,.01,.02,.02,.04,.04,.04,0,.08,.01,.11,.03,.05,.02,.08,.06,.12,.1,.11,.07,.2,.17,.26,.28,.04,.07,.1,.48,.02,.61-.02,.06-.05,.12-.08,.17,0,.02,.01,.03,.01,.05,0,.04-.01,.08-.05,.1-.03,.02-.06,.02-.09,.01-.02,.35-.12,.67-.39,.93,0,.01,.01,.02,.02,.03-.11,.06-.22,.11-.33,.17-.11,.01-.22,.04-.33,.04-.1,0-.18-.05-.27-.08-.01-.09-.08-.13-.19-.16-.09-.02-.18-.07-.26-.12-.09-.07-.17-.12-.29-.09-.04,0-.12-.02-.14-.05-.07-.09-.11-.2-.17-.3-.03-.05-.06-.1-.1-.13-.13-.1-.14-.23-.04-.37,.05-.07,.11-.17,.12-.25,.02-.24-.03-.25-.24-.38-.09-.05-.18-.12-.26-.18-.39-.14-.8-.23-1.12-.5-.1-.08-.19-.2-.18-.34,0-.05,.02-.1,.05-.14-.1-.05-.16,0-.23,.15-.1,.22-.22,.43-.33,.64-.11,.21-.23,.41-.32,.63-.04,.09-.06,.19-.07,.29,0,.01,.01,.02,.02,.03,.03,.07,.06,.16,.03,.23-.01,.04-.05,.07-.08,.09-.02,.13-.07,.25-.17,.31-.09,.05-.2,.04-.29,0s-.17-.11-.24-.18c-.05-.05-.11-.11-.12-.18-.01-.09,.04-.17,.11-.24,.17-.46,.36-.91,.49-1.39,.09-.31,.24-.6,.39-.88,.1-.2,.11-.24-.03-.4-.15-.17-.3-.34-.45-.51-.12-.14-.26-.24-.46-.24-.51-.02-1.02-.03-1.52-.07-.58-.05-1.15-.13-1.72-.2-.04,0-.08-.01-.12-.02-.28-.03-.45-.25-.39-.53,.04-.18,.09-.37,.16-.54,.09-.23,.2-.45,.31-.67,.18-.39,.37-.76,.54-1.15,.11-.26,.19-.54,.25-.82,.02-.09,0-.21-.05-.29-.14-.21-.29-.42-.46-.61-.09-.1-.24-.14-.37-.19-.1-.04-.2-.06-.21-.19,0-.1,.11-.23,.22-.26,.25-.05,.51-.07,.75,.02,.14,.05,.26,.13,.39,.19,.04,.02,.1,.04,.12,.02,.03-.02,.04-.08,.04-.12-.02-.14-.06-.28-.08-.42-.05-.34-.09-.68-.15-1.01-.06-.33-.15-.65-.23-.97-.01-.04-.05-.09-.09-.12-.2-.12-.4-.25-.62-.34-.15-.06-.33-.06-.5-.07-.11,0-.23,.03-.29-.1-.04-.1,.02-.29,.13-.36,.34-.2,.7-.32,1.11-.26,.25,.04,.51,.02,.77,.03,.19,0,.25,.08,.23,.28-.02,.27-.06,.54-.04,.82,0,.2,.06,.4,.11,.6,.12,.39,.23,.78,.43,1.14,.11,.2,.15,.42,.15,.65,0,.2,.01,.4,.03,.59,0,.07,.04,.13,.08,.19,.13,.18,.26,.37,.41,.52,.23,.23,.47,.46,.79,.56,.05,.01,.08,.05,.12,.09,.33,.35,.65,.69,.99,1.04,.05,.05,.13,.06,.18,.1,.1,.09,.21,.17,.28,.28,.08,.14,.11,.31,.17,.46,.07,.18,.15,.35,.23,.52,.06,.13,.14,.25,.21,.38,.05,.08,.11,.12,.2,.12,.31-.02,.63-.04,.94-.06Zm-25.09-6.53h-.03s-.07-.05-.07-.05c-.02-.06,0-.09,.02-.1,2.42-2.52,4.4-6.25,5.72-10.81,.01-.03,.04-.06,.07-.07,4.55-1.32,8.29-3.3,10.81-5.72,.03-.03,.05-.03,.06-.03,.03,0,.07,.02,.08,.04,.01,.02,.02,.03,0,.07-2.42,8.02-8.65,14.25-16.67,16.67Zm-5.92,.96h-.05s-.08,0-.08-.09v-10.09s.04-.09,.09-.09c3.12-.07,6.16-.43,9.03-1.06h0c.06,0,.09,.03,.1,.04,.03,.04,.01,.07,.01,.08-2.04,6.26-5.45,10.46-9.11,11.21Zm2.26,12.32c-.15,0-.48,.05-.57,.08-.08,.02-.51-.42-.71-.48-.35-.11-.84,.67-.9,.77,.03-.05,.04-.06-.01,.04-.11,.2-.17,.38-.28,.57v-.09c-.08,.3-.03,.6,0,1.06,0,.14-.05,.27-.12,.4-.03,.06-.04,.12-.05,.18,.03,.17,.06,.35,.08,.51,0,.04,.01,.08,.02,.11,.01,.05,.01,.09,.02,.14-.01,0-.02,0-.03,.01,0,0,0,0,0,0-.08,.31-.1,.3-.17,.62,0,.03-.01,.06-.03,.09-.07,.16-.07,.31,.01,.48,.11,.22,.06,.48-.01,.71-.07,.23-.15,.46-.24,.68-.06,.15-.02,.25,.09,.36,.2,.19,.41,.38,.59,.59,.19,.22,.36,.47,.53,.71,.12,.16,.11,.33,.02,.5-.13,.24-.25,.51-.43,.71-.38,.41-.81,.79-1.21,1.18-.14,.13-.27,.27-.42,.4-.09,.08-.19,.16-.3,.23-.08,.05-.08,.11-.04,.19,0,0,0,0,0,0,.18-.04,.36-.08,.53-.13,.05,.35,.06,.71,.05,1.06,0,.09,0,.18-.05,.26-.05,.08-.13,.14-.21,.19-.04,.02-.07,.04-.11,.06-.19,.15-.4,.25-.64,.27-.11,.03-.22,.05-.32,.05-.24,0-.46-.11-.61-.29-.06-.03-.09-.08-.08-.13-.04-.08-.07-.17-.07-.27,0-.02,0-.05,0-.07,.01-.02,.03-.04,.05-.05,.03-.02,.06-.03,.1-.05-.03-.08-.05-.16-.08-.24-.03-.08-.06-.17-.12-.23-.1-.1-.13-.18-.07-.32,.05-.13,.07-.28,.07-.42,0-.14,.07-.21,.2-.22,.35-.03,.48-.23,.44-.46-.05-.16-.12-.32-.21-.47-.1-.17-.22-.32-.31-.49-.09-.17-.14-.37-.08-.56,.02-.07,.05-.12,.09-.18,0-.02,0-.03,0-.05-.07-.13-.13-.15-.26-.07-.45,.27-.9,.54-1.34,.82-.11,.07-.19,.18-.28,.28,0,.02,0,.05,0,.07-.02,.05-.07,.09-.12,.1-.05,.09-.13,.17-.23,.19-.1,.02-.2-.02-.28-.08-.08-.06-.13-.15-.18-.24-.04-.07-.07-.14-.06-.21,.02-.11,.13-.18,.23-.23,.03-.01,.05-.02,.08-.03,.43-.33,.84-.7,1.26-1.03,.27-.22,.6-.36,.9-.54,.12-.07,.22-.14,.37-.12,.03,0,.1-.08,.1-.12,.04-.28,.07-.57,.11-.85,0-.16-.02-.31-.11-.45-.07-.1-.15-.16-.26-.21-.39-.17-.78-.36-1.16-.55-.34-.17-.67-.36-1.01-.55-.14-.08-.29-.17-.41-.29-.22-.2-.21-.45,0-.65,.42-.37,.84-.73,1.26-1.1,.34-.3,.64-.63,.9-1,.03-.05,.07-.1,.11-.14,.25-.27,.28-.57,.12-.89-.02-.04-.04-.09-.04-.13-.02-.24-.16-.4-.32-.55-.08-.07-.18-.13-.13-.26,.03-.09,.23-.16,.35-.14,.43,.09,.75,.33,1,.69,.13,.18,.29,.34,.44,.52,.13,.16,.13,.24-.03,.37-.19,.16-.39,.3-.56,.47-.16,.16-.3,.34-.43,.53-.14,.2-.26,.4-.37,.61-.09,.17-.16,.34-.25,.51-.07,.13-.17,.24-.25,.36-.02,.03-.06,.08-.05,.11,.01,.03,.07,.07,.11,.07,.17,0,.34-.03,.51-.02,.13,0,.25,.05,.38,.07,.18,.03,.35,.08,.53,.1,.06,0,.15-.05,.18-.1,.15-.28,.3-.57,.44-.86,.05-.1,.1-.18,.15-.26,0-.02-.01-.03-.02-.05,.15-.15,.26-.33,.31-.38,.03-.03,.05-.05,.08-.07,0,0,0,0,0,0h0c1.04-1.02,.94-.92,1.24-1.48l.17-.09c.24-.46,.56-1.23,1.12-1.14,.13,.02,1.3,.8,1.35,.79,.2-.04-.14-1.2-.3-1.54-.11-.23-.18-.52-.35-.82-.09-.14-.18-.25-.2-.42-.04-.27-.8-.47-.8-.52-.04-.52,.84-.64,1.24,.01,.19,.32,.31,.51,.48,.8,.23,.42,.42,1.37,.57,1.71,.19,.42-.28,.95-.69,.97Zm-13.86-23.53s-.01-.04,.01-.08c0-.01,.03-.04,.08-.04,2.9,.63,5.93,.99,9.05,1.06,.05,0,.09,.04,.09,.09v10.09c0,.09-.04,.09-.08,.09-.01,0-.03,0-.04,0-3.66-.76-7.07-4.95-9.11-11.21Zm3.3,10.2s-.03,.06-.07,.06c0,0-.02,0-.03,0-8.02-2.42-14.26-8.65-16.67-16.67,0-.04,0-.05,0-.07,.02-.02,.05-.04,.08-.04,.02,0,.04,0,.06,.03,2.52,2.42,6.25,4.4,10.81,5.72,.03,0,.06,.04,.07,.07,1.32,4.56,3.3,8.29,5.72,10.81,.01,.01,.05,.05,.02,.1Zm-15.65,7.55s-.04,.06-.06,.09c-.07,.08-.13,.15-.2,.23-.22,.24-.51,.34-.82,.41-.17,.04-.33,.14-.5,.2-.08,.03-.18,.03-.27,.03-.04,0-.09-.04-.1-.08-.08-.2-.19-.41-.23-.62-.05-.29-.21-.52-.37-.75-.25-.33-.53-.64-.8-.95-.17-.19-.32-.39-.4-.64-.03-.12-.13-.17-.23-.11-.26,.17-.59,.2-.79,.46-.03,.04-.1,.07-.15,.08-.39,.13-.77,.25-1.16,.38-.07,.03-.13,.1-.2,.15-.13,.09-.25,.18-.39,.26-.21,.12-.44,.22-.65,.33-.12,.06-.15,.15-.13,.29,.07,.48,.04,.96-.03,1.44-.02,.16-.04,.32-.1,.48-.03,.09-.12,.21-.2,.24-.28,.1-.57,.18-.86,.23-.18,.03-.38,0-.57,0-.3,0-.6,0-.9-.02-.16-.01-.31-.07-.47-.11-.05-.01-.1-.03-.15-.03-.15-.02-.31-.04-.46-.06-.15-.03-.22,.02-.25,.14,.13,.14,.18,.35,.14,.54-.04,.22-.18,.42-.35,.57-.12,.11-.27,.2-.43,.23-.34,.05-.67-.18-.9-.45-.02-.02-.03-.04-.05-.06-.03-.03-.05-.06-.08-.09-.12-.16-.21-.35-.29-.54-.16-.01-.31-.07-.44-.16,.18-.13,.41-.19,.64-.18,.09-.02,.1-.06,.13-.22,.01-.07,.08-.13,.11-.2,.04-.07,.08-.15,.09-.23,.01-.14,.03-.23,.19-.29,.13-.05,.25-.17,.36-.27,.08-.08,.14-.05,.22,0,.1,.05,.21,.12,.32,.15,.2,.05,.29-.02,.39-.19,.12-.21,.25-.41,.39-.6,.13-.16,.13-.35,.17-.53,.07-.29,.03-.32-.25-.4-.31-.1-.62-.22-.93-.32-.21-.07-.41-.16-.63-.17-.02,.02-.03,.03-.05,.05-.05,.05-.1,.11-.15,.14-.06,.04-.14,.06-.2,.02,.05-.05,.08-.11,.1-.17-.02,0-.05,0-.07,0-.03,0-.06,0-.08-.03-.01-.01-.02-.03-.02-.04-.02-.01-.03-.02-.04-.04-.03-.01-.06-.04-.07-.07,0-.03,0-.06,.01-.08,0-.02,0-.05,0-.08-.03-.03-.04-.09-.02-.13,.02-.04,.05-.07,.09-.09,.01-.02,.02-.04,.03-.06-.02-.03-.02-.06,0-.09,.02-.03,.05-.03,.08-.03,.02-.01,.05-.02,.07-.02,.21,.04,.41,.1,.61,.14,.13,.03,.26,.05,.39,.07,.42,.08,.84,.15,1.25,.26,.21,.05,.4,.16,.6,.26,.19,.09,.25,.07,.41-.07,.35-.31,.72-.61,1.08-.91,.15-.13,.3-.26,.47-.37,.18-.12,.23-.32,.3-.5,.09-.21,.17-.42,.25-.63,.05-.13,.08-.26,.13-.39,.15-.45,.3-.9,.46-1.34,.13-.35,.29-.69,.45-1.02,.08-.15,.18-.31,.31-.4,.26-.18,.32-.46,.45-.72,.13-.27,.26-.53,.39-.79,.09-.18,.18-.36,.25-.54,.08-.19,.14-.38,.2-.58,.02-.07,.03-.15,0-.21-.11-.22-.24-.44-.38-.64-.1-.16-.25-.27-.44-.32-.12-.03-.14-.11-.14-.21,0-.1,.05-.15,.14-.18,.38-.1,.74-.04,1.08,.16,.25,.15,.5,.32,.75,.48,.22,.14,.23,.27,.08,.49-.2,.29-.38,.6-.52,.92-.15,.34-.24,.71-.36,1.07-.02,.06-.02,.13-.03,.19-.04,.35-.14,.66-.38,.94-.13,.15-.21,.35-.28,.53-.07,.22-.09,.45-.16,.67-.07,.26-.04,.52-.02,.77,0,.13,.05,.26,.08,.39,.01,.06,.02,.12,.02,.18-.02,.25-.06,.5-.08,.74-.02,.18,.03,.23,.22,.22,.26-.02,.52-.05,.79-.06,.41,0,.81,0,1.22,.02,.16,0,.23,.07,.26,.22,.03,.14,.04,.29,.07,.42,.04,.14,.09,.27,.16,.39,.17,.32,.35,.63,.53,.94,.14,.24,.29,.48,.43,.72,.03,.05,.07,.09,.09,.14,.08,.2,.22,.29,.42,.34,.27,.07,.53,.13,.81,.07,.09-.02,.19-.06,.27-.11,.1-.07,.2-.1,.31-.03,.07,.05,.08,.25,.03,.35Zm-9.22-61.97c-.15,.02-.29-.02-.38-.12-.23-.26-.46-.53-.67-.82-.07-.11-.08-.26-.12-.39-.04-.1-.07-.21-.14-.29-.13-.15-.2-.32-.23-.5,0,.01,0,.03,0,.04,0-.05,0-.1-.02-.14-.01,.12-.04,.23-.09,.34,.04-.12,.05-.25,.03-.37-.01,.13-.06,.26-.14,.36,.1-.2,.14-.42,.13-.65-.02,.15-.06,.31-.11,.46,.08-.26,.07-.54,0-.8-.02,.19-.05,.38-.09,.57,.02-.22-.01-.45-.09-.66-.08-.2-.19-.38-.32-.55,0,0-.01,0-.02,0-.14-.06-.3-.09-.41-.2-.15-.13-.18-.36-.13-.55,.01-.05,.03-.09,.04-.13,.05-.25,.15-.47,.35-.65,0-.01-.02-.02-.02-.04l.55-.3s.09-.05,.14-.06c.05-.01,.13-.03,.16,0,0,0,0,0,0,0,.13,0,.27,.04,.35,.14-.09-.04-.19-.05-.29-.04,0,.02,0,.03,0,.04,.08,.03,.16,.06,.21,.13-.04-.02-.08-.04-.12-.04-.03,0-.06,0-.08,.02,.01,.09,.04,.1,.18,.13,.09,.02,.17,.09,.25,.12,.09,.04,.18,.08,.28,.09,.09,0,.14,.02,.19,.1,.09,.15,.14,.32,.29,.43,.09,.06,.06,.21,0,.33-.06,.09-.11,.2-.12,.3-.02,.16,.07,.25,.22,.33,.06,.04,.12,.08,.19,.11,.2,.07,.4,.14,.6,.19,.16,.04,.32,.08,.46,.15,.14,.08,.27,.2,.31,.36,.03,.11,0,.23-.04,.34,.05,.05,.11,.1,.17,.15,.11,.1,.24,.1,.35,0,.06-.06,.13-.11,.17-.18,.04-.06,.07-.16,.05-.22-.09-.23,.03-.44,.06-.65,0-.04,.09-.09,.1-.08,.16,.07,.37,.03,.47,.22,.11,.21,.05,.41-.05,.59-.14,.26-.32,.51-.47,.76-.07,.12-.06,.26,.05,.35,.04,.04,.12,.04,.18,.04,.04,0,.09-.04,.13-.04,.39-.03,.35,.03,.41,.4,0,.05,0,.11-.01,.17-.03,.2-.01,.27,.18,.35,.58,.23,1.13,.53,1.73,.7,.31,.09,.61,.24,.91,.37,.22,.1,.45,.2,.66,.31,.23,.12,.46,.25,.69,.39,.16,.1,.2,.32,.07,.45-.15,.14-.32,.27-.5,.38-.2,.12-.42,.2-.63,.29-.22,.1-.44,.19-.66,.29-.1,.04-.15,.11-.11,.22,.02,.05,.04,.1,.07,.14,.2,.24,.18,.53,.11,.79-.05,.17,0,.32,.03,.47,.06,.3,.15,.59,.21,.89,.05,.24,.08,.48,.14,.72,.06,.26,.13,.51,.2,.76,.04,.15,.16,.24,.31,.28,.2,.05,.4,.12,.6,.12,.17,0,.35-.05,.53-.09,.17-.03,.25,.02,.22,.19-.02,.12-.1,.24-.18,.33-.27,.29-.61,.42-1,.45-.16,.01-.31,.07-.47,.1-.1,.02-.21,.04-.31,.05-.11,0-.15-.07-.16-.16-.07-.39-.12-.78-.2-1.17-.06-.27-.15-.54-.26-.8-.12-.3-.29-.59-.4-.89-.07-.19-.11-.4-.12-.61-.02-.29-.05-.56-.15-.83-.05-.14-.11-.18-.25-.12-.15,.07-.26,.17-.29,.34-.06,.26-.1,.52-.05,.78,.03,.15,.13,.29,.18,.44,.03,.08,.08,.18,.06,.25-.03,.11-.15,.11-.25,.1-.08-.01-.17-.03-.23-.07-.26-.16-.51-.36-.62-.64-.11-.29-.29-.55-.42-.83-.08-.17-.01-.3,.17-.35,.06-.02,.11-.04,.17-.07,.15-.07,.3-.14,.44-.22,.07-.04,.19-.07,.15-.18-.02-.06-.13-.12-.2-.12-.15-.01-.27-.08-.38-.17-.39-.3-.79-.59-1.19-.87-.34-.24-.5-.59-.61-.98-.1-.35-.26-.67-.47-.96-.03-.05-.1-.08-.16-.09-.14-.01-.29-.02-.43,0Zm18.46,40.89s0,.06-.02,.08c-.02,.02-.05,.04-.07,.04,0,0-.02,0-.03,0-6.26-2.04-10.45-5.45-11.21-9.11-.01-.05,0-.09,0-.1,.01-.02,.04-.02,.08-.02h10.09s.09,.04,.09,.09c.07,3.12,.43,6.16,1.06,9.03Zm-1.06-11.46c0,.05-.04,.09-.09,.09h-10.09s-.07,0-.08-.02c-.01-.01-.02-.05,0-.1,.76-3.66,4.95-7.07,11.21-9.11h.02s.06,.01,.08,.03c.02,.02,.02,.05,.02,.09-.63,2.87-.98,5.91-1.06,9.03Zm7.36-22.62s0,0,.01,0c.07,0,.09,.05,.09,.05,.02,.06,0,.09-.02,.1-2.42,2.52-4.4,6.25-5.72,10.81,0,.03-.04,.06-.07,.07-4.56,1.32-8.29,3.3-10.81,5.72-.03,.03-.05,.03-.06,.03-.03,0-.07-.02-.08-.04-.01-.02-.02-.03,0-.07,2.42-8.02,8.65-14.26,16.67-16.67Zm6.04,25.05v11.05c0,.05-.04,.1-.1,.1h0c-3.43-.08-6.73-.51-9.8-1.27-.03,0-.06-.03-.06-.06-.76-3.07-1.19-6.37-1.27-9.8,0-.04,.02-.06,.03-.07,.01-.01,.04-.03,.07-.03h11.05c.05,0,.09,.04,.09,.09Zm-.09-2.34h-11.05s-.06-.02-.07-.03c-.01-.01-.03-.04-.03-.07,.08-3.43,.51-6.73,1.27-9.8,0-.03,.03-.05,.06-.06,3.07-.76,6.37-1.19,9.8-1.27,.05,0,.1,.05,.1,.1v11.05c0,.05-.04,.09-.09,.09Zm-.03-23.67h.04c.06,0,.09,.02,.09,.09v10.09s-.04,.09-.09,.09c-3.12,.07-6.16,.43-9.03,1.06h-.02s-.07-.03-.08-.04c-.03-.04-.02-.07-.01-.08,2.04-6.27,5.45-10.46,9.11-11.21Zm-1.65-10.19c.21-.18,.42-.35,.61-.55,.14-.15,.24-.33,.34-.5,.19-.36,.39-.71,.5-1.11,.06-.22,.19-.4,.35-.57,.14-.14,.27-.29,.4-.44,.04-.05,.06-.12,.07-.19,.03-.22,.08-.44,.08-.66,0-.33-.15-1.61-.14-2.08,0-.07-.16-.14-.11-.78,.01-.16,.19-.57,.26-.72,.07-.17,.14-.35,.2-.53,.04-.14,.07-.28,.11-.41,.03-.09,.01-.16-.06-.23-.23-.21-.47-.41-.7-.63-.07-.07-.13-.14-.19-.22-.07-.09-.08-.18-.04-.29,.1-.26,.17-.52,.29-.76,.06-.14,.18-.25,.27-.38,.22-.3,.43-.6,.66-.89,.04-.05,.08-.1,.12-.14-.07-.03-.11-.08-.11-.15,0-.02,0-.03,.01-.04-.04-.03-.07-.08-.07-.13,0-.01,0-.02,0-.04-.05-.03-.09-.08-.09-.13,0-.03,0-.05,.02-.07-.01-.02-.02-.04-.02-.07,0-.01,0-.03,0-.04-.05-.03-.08-.08-.08-.13,0-.04,.02-.07,.04-.1-.04-.03-.07-.07-.07-.13,0-.07,.05-.12,.11-.15,0-.01-.01-.03-.01-.04,0-.04,.02-.07,.04-.1-.01-.02-.02-.05-.02-.07,0-.05,.03-.1,.08-.13-.01-.04-.02-.07,0-.11,.02-.05,.06-.08,.11-.1,0-.01,0-.02,0-.04,0-.05,.03-.1,.08-.13-.01-.04-.02-.07,0-.11,.02-.05,.06-.08,.11-.1,0,0,.01,0,.02-.01,0-.01,0-.03,0-.04,.02-.06,.08-.1,.15-.1,0-.02,0-.05,0-.07,.03-.09,.13-.12,.24-.1,.03-.08,.14-.12,.25-.09,.02-.04,.05-.08,.09-.09,.05-.02,.1,0,.15,.03,.02-.04,.05-.07,.08-.08,.07-.03,.15,.01,.2,.09,.02-.03,.05-.05,.09-.05,.09-.01,.18,.07,.2,.19v.02s.05,.02,.06,.03c.02,0,.05,0,.07,.01,.11,.04,.17,.14,.14,.23,0,0,0,0,0,0,.04,.07,.07,.13,.1,.2-.06,.08-.04,.15,.02,.24,.05,.08,.08,.18,.09,.27,.02,.11,.04,.21,.14,.27,.04,.02,.07,.1,.06,.14-.02,.11-.06,.22-.09,.33-.01,.05-.02,.11-.02,.16,.02,.16-.06,.27-.23,.29-.09,.01-.2,.04-.26,.1-.18,.16-.16,.2-.1,.44,.02,.1,.04,.21,.06,.31,.17,.38,.4,.73,.44,1.14,.01,.13,0,.28-.11,.37-.04,.03-.09,.05-.13,.07,.03,.1,.11,.11,.27,.06,.23-.08,.46-.15,.69-.22,.23-.07,.45-.13,.67-.22,.09-.04,.18-.1,.26-.16,0-.01,0-.03,.01-.04,.03-.08,.07-.15,.14-.19,.04-.02,.08-.02,.12,0,.11-.08,.22-.13,.34-.1,.1,.03,.17,.11,.21,.2,.04,.09,.05,.2,.05,.3,0,.07,0,.15-.05,.21-.06,.07-.15,.09-.25,.09-.45,.2-.9,.39-1.32,.63-.28,.16-.59,.25-.9,.35-.21,.07-.25,.09-.26,.31-.02,.23-.03,.45-.05,.68-.01,.18,.02,.35,.15,.5,.35,.37,.7,.74,1.03,1.13,.37,.44,.72,.91,1.07,1.36,.03,.03,.05,.07,.08,.1,.18,.22,.14,.5-.1,.65-.16,.1-.32,.19-.49,.27-.22,.1-.46,.17-.69,.25-.4,.14-.8,.28-1.19,.44-.26,.11-.51,.25-.76,.4-.08,.05-.15,.15-.17,.24-.05,.25-.1,.5-.1,.75,0,.13,.07,.26,.13,.39,.04,.1,.1,.18,.01,.28-.07,.07-.24,.09-.34,.02-.21-.14-.41-.31-.52-.55-.06-.13-.09-.27-.15-.41-.01-.04-.04-.1-.07-.1-.03,0-.09,.03-.11,.06-.08,.12-.15,.24-.24,.36-.2,.28-.42,.54-.61,.82-.19,.27-.35,.56-.52,.85-.02,.04-.03,.1-.01,.15,.06,.23,.1,.46,.19,.68,.07,.15,.19,.28,.3,.4,.07,.08,.18,.14,.13,.28-.04,.1-.22,.19-.35,.16-.39-.1-.72-.27-.97-.6-.15-.21-.35-.38-.52-.57-.13-.14-.12-.23,.03-.36Zm13.26,21.4s.01,.04-.01,.08c0,0-.03,.04-.08,.04,0,0-.02,0-.02,0-2.87-.63-5.91-.98-9.03-1.06-.05,0-.09-.04-.09-.09v-10.09c0-.09,.04-.09,.08-.09,3.71,.76,7.11,4.95,9.15,11.21Zm2.01,14.81c-.09,3.43-.51,6.73-1.27,9.8,0,.03-.03,.05-.06,.06-3.07,.76-6.37,1.19-9.81,1.27h0c-.05,0-.1-.05-.1-.1v-11.05c0-.05,.04-.09,.09-.09h11.05s.06,.02,.07,.03c.01,.01,.03,.03,.03,.07Zm-.03-2.38s-.03,.03-.07,.03h-11.05c-.05,0-.09-.04-.09-.09v-11.05c0-.05,.05-.1,.1-.1,3.43,.08,6.73,.51,9.81,1.27,.03,0,.06,.03,.06,.06,.76,3.07,1.19,6.37,1.27,9.8,0,.04-.02,.06-.03,.07Zm12.46,2.41c-.75,3.66-4.95,7.06-11.21,9.11h-.03s-.05,0-.07-.03c-.02-.02-.03-.05-.02-.08,.63-2.87,.98-5.91,1.06-9.03,0-.05,.04-.09,.09-.09h10.09s.07,0,.08,.02c.01,.01,.02,.05,0,.1Zm0-2.4s-.04,.02-.08,.02h-10.09s-.09-.04-.09-.09c-.07-3.12-.43-6.16-1.06-9.03,0-.03,0-.06,.02-.09,.02-.02,.04-.04,.07-.04,6.29,2.05,10.49,5.45,11.24,9.11,.01,.05,0,.09,0,.1Zm-17.73-22.64s.02-.06,.07-.06c8.05,2.42,14.29,8.65,16.7,16.68,.01,.03,0,.05,0,.07-.02,.02-.05,.04-.08,.04-.02,0-.04,0-.06-.03-2.52-2.42-6.26-4.4-10.81-5.72-.03,0-.06-.03-.07-.07-1.32-4.56-3.3-8.29-5.72-10.81-.01-.01-.04-.05-.02-.1Zm-40.42,22.06c-.02,.25-.04,.5-.06,.75,0,.08-.04,.17-.07,.25-.04,.09-.11,.11-.21,.1-.16-.02-.32-.02-.48-.03-.05,0-.1,0-.14-.02-.56-.25-1.16-.34-1.76-.41-.21-.03-.42-.01-.62-.01-.27,0-.49-.12-.71-.24-.17-.09-.38-.19-.56-.17-.17,.01-.32,.18-.47,.28,.03,.04,.05,.11,.09,.12,.35,.11,.71,.21,1.06,.31,.13,.04,.24,.12,.26,.26,.02,.15-.02,.28-.16,.37-.34,.22-.67,.44-1,.67-.2,.14-.37,.32-.57,.47-.36,.27-.68,.57-.98,.9-.18,.2-.14,.41-.09,.62,.02,.09,.06,.17,.07,.25,.03,.22,.19,.37,.29,.56,.04,.07,.08,.17,.06,.22-.03,.06-.13,.12-.2,.13-.24,.04-.44-.1-.62-.23-.2-.15-.35-.34-.47-.57-.09-.18-.24-.34-.37-.5-.14-.18-.11-.29,.07-.41,.09-.06,.18-.12,.26-.18,.26-.2,.53-.4,.77-.62,.15-.14,.27-.32,.4-.5,.06-.09,0-.17-.12-.16-.07,0-.15,.01-.22,.02-.21,.13-.44,.24-.67,.33-.6,.23-1.31,.27-1.88-.03-.31-.17-.57-.43-.86-.62-.11,0-.19,.04-.26,.16-.07,.13-.17,.25-.26,.38-.07,.11-.18,.15-.3,.12-.29-.06-.59-.12-.88-.2-.15-.05-.28-.16-.42-.24-.06-.03-.13-.08-.19-.07-.53,.05-.9-.23-1.23-.59-.13-.15-.25-.31-.37-.47-.07-.09-.16-.09-.29-.02,0,0,0,0,0,0-.02,.05-.04,.09-.05,.14-.01,.04-.02,.09-.04,.13-.06,.12-.2,.17-.32,.21-.04,.01-.08,.03-.11,.04-.13,.04-.26,.08-.39,.04-.07,.1-.21,.15-.33,.1-.02,.07-.11,.1-.19,.08-.07-.02-.12-.09-.17-.14-.04,.07-.15,.05-.2-.01-.03-.05-.04-.11-.04-.17-.02-.01-.04-.02-.06-.04-.04,0-.07-.04-.1-.07-.17-.15-.28-.36-.27-.58-.08-.03-.1-.14-.06-.23,.03-.08,.09-.15,.11-.24,.02-.07,.01-.15,.02-.23,0-.08,.05-.16,.12-.18-.06-.1,.08-.25,.18-.19,.02-.13,.11-.24,.23-.27,.09-.02,.18,0,.26,.04,.02,0,.05,0,.07,0,.11,.02,.2,.11,.24,.21,.07,.04,.11,.02,.24-.06,.05-.03,.12-.05,.18-.05,.13,0,.23-.04,.32-.14,.07-.09,.13-.09,.24-.05,.14,.05,.3,.06,.46,.07,.11,0,.21,.1,.23,.26,.02,.17,.1,.29,.24,.37,.04,.02,.1,.04,.14,.02,.03-.01,.07-.02,.11-.03,.22-.12,.44-.24,.66-.37,.2-.11,.4-.22,.63-.21,.2,0,.4,.11,.54,.26,.01,.01,.02,.03,.04,.05,.1-.03,.14-.1,.16-.25,.04-.29,.08-.59,.09-.88,0-.05,0-.1-.02-.16-.09-.06-.15-.15-.17-.25-.01-.06,0-.13,.05-.15,.01,0,.02,0,.03,0,0-.05,.01-.09,.03-.13,0,0,0,0,0-.02,0-.07,.04-.14,.1-.17,.06-.02,.12,0,.16,.05h.02s.02-.07,.05-.08c.04-.01,.08,0,.1,.04,0,.01,.01,.03,.01,.04,0,0,.01,0,.02,0,.02-.04,.07-.06,.11-.06,.07,0,.12,.07,.14,.13,.02,.07,.01,.13,0,.2,0,.03,0,.05-.01,.08,0,.35,0,.7,.02,1.05,0,.17,.11,.23,.28,.18,.17-.04,.43,.11,.47,.27,.03,.11,.09,.15,.2,.16,.3,.02,.61,.07,.91,.06,.26,0,.51-.06,.76-.13,.44-.11,.87-.26,1.31-.38,.33-.08,.66-.14,.99-.2,.21-.04,.43-.05,.64-.1,.22-.05,.42,.03,.55,.16,.28,.26,.62,.33,.96,.42,.27,.07,.53,.18,.8,.26,.27,.08,.54,.14,.82,.21,.08,.02,.16,.02,.23,.04,.16,.04,.29-.01,.38-.14,.11-.18,.23-.36,.31-.56,.05-.11,.03-.25,.04-.37,0-.11-.02-.23,.12-.28,.1-.03,.27,.05,.33,.16,.13,.23,.27,.45,.23,.73,0,.09,0,.19-.02,.28Zm92.08,1.72c0-8.32-6.75-15.07-15.07-15.07-2.72,0-7.22,.72-12.05,1.98,4.3-2.52,7.99-5.19,9.92-7.12,5.89-5.89,5.89-15.43,0-21.31s-15.43-5.89-21.32,0c-1.92,1.92-4.6,5.61-7.12,9.92,1.26-4.83,1.98-9.33,1.98-12.05,0-8.32-6.75-15.07-15.07-15.07s-15.07,6.75-15.07,15.07c0,2.72,.72,7.22,1.98,12.05-2.52-4.3-5.19-7.99-7.12-9.92-5.89-5.89-15.43-5.89-21.31,0-5.89,5.89-5.89,15.43,0,21.31,1.92,1.92,5.61,4.6,9.92,7.12-4.82-1.26-9.33-1.98-12.05-1.98-8.32,0-15.07,6.75-15.07,15.07s6.75,15.07,15.07,15.07c2.72,0,7.22-.72,12.05-1.98-4.3,2.52-8,5.19-9.92,7.12-5.89,5.88-5.89,15.43,0,21.32,5.89,5.88,15.43,5.88,21.31,0,1.92-1.92,4.6-5.62,7.12-9.92-1.26,4.82-1.98,9.32-1.98,12.04,0,8.32,6.75,15.07,15.07,15.07s15.07-6.75,15.07-15.07c0-2.72-.72-7.22-1.98-12.04,2.52,4.3,5.19,7.99,7.12,9.92,5.89,5.88,15.43,5.88,21.32,0,5.89-5.89,5.89-15.43,0-21.32-1.92-1.92-5.61-4.6-9.92-7.12,4.83,1.26,9.32,1.98,12.05,1.98,8.32,0,15.07-6.75,15.07-15.07Z"/>
      <path class="cls-1" d="M150.06,20.14c.35-.25,.7-.51,1.05-.76,.13-.09,.25-.2,.38-.29,.04-.03,.1-.04,.14-.06-.02-.02-.74-.39-.84-.47-.07-.05-.31-.23-.38-.29-.03,.09-.07,.36-.1,.45-.12,.44-.25,.88-.38,1.31-.01,.04,0,.08-.01,.12,.05,0,.11,.01,.14-.01Z"/>
      <path class="cls-1" d="M179.93,26.4s-.07,.02-.11,.04c-.12,.06-.23,.21-.31,.33-.17,.26-.19,.24-.31,.5,.04-.08,.3-.33,.4-.42,.16-.14,.55-.39,.72-.45,.6-.23-.13-.07-.38,0Z"/>
      <path class="cls-1" d="M176.84,87.48c-.22-.4-.44-.8-.66-1.2-.02-.03-.05-.06-.07-.09-.03,.04-.08,.07-.09,.11-.07,.43-.14,.85-.2,1.28-.02,.16-.04,.32-.06,.48,0,.05-.04,.09-.06,.14,.03,0,.05,.01,.08,.01,.05,0,.1,.03,.15,.02,.12-.04,.25-.07,.34-.15,.11-.1,.23-.12,.36-.14,.09-.01,.18-.01,.28-.02,.1-.01,.14-.09,.09-.18-.04-.08-.1-.17-.14-.25Z"/>
      <path class="cls-1" d="M181.13,90.37c.07,.09,.15,.2,.23,.29,.24,.25,.17-.13,.17-.32,0-.02,0-.05,0-.08-.02-.08-.11-.13-.19-.17-.17-.07-.34-.11-.51-.14,.05,.01,.26,.36,.3,.41Z"/>
      <path class="cls-1" d="M149.56,102.8h0s-.03-.04-.05-.07c.01,.01,.01,.05,0,.11,0,.01-.02,.03-.02,.04,0,.03,0,.05,0,.08-.04,.17-.09,.37-.1,.43-.02,.15-.06,.32-.06,.48,0,.29,.11,.3,.26,.17,.06-.03,.11-.07,.17-.11,.07-.05,.12-.08,.18-.14,.09-.09,.11-.16,.04-.26,0-.06-.06-.14-.08-.19-.05-.1-.1-.19-.16-.28-.02-.06-.05-.08-.08-.14-.02-.03-.06-.11-.1-.11Z"/>
      <path class="cls-1" d="M117.56,91.06s-.03,.09-.02,.11c.01,.03,.06,.05,.1,.05,.11,0,.22,0,.33,.01,.08,0,.12-.03,.15-.11,.08-.26,.17-.51,.25-.77,.02-.07,.02-.15,.03-.22-.07,.03-.15,.06-.19,.08-.23,.31-.44,.58-.65,.85Z"/>
      <path class="cls-1" d="M65.09,197.93c0,.49,.05,.99,.15,1.49,.1,.5,.22,.94,.37,1.3,.25,.62,.57,1.14,.97,1.56,.4,.42,.84,.73,1.34,.93,.49,.2,1.04,.3,1.63,.3,.83,0,1.55-.2,2.16-.61,.61-.4,1.07-.97,1.37-1.71,.3-.73,.45-1.58,.45-2.54,0-.82-.11-1.57-.32-2.26-.13-.42-.31-.8-.53-1.15-.22-.34-.49-.64-.79-.89-.31-.25-.7-.47-1.19-.65-.49-.17-1.02-.26-1.58-.26-.82,0-1.54,.18-2.15,.55-.62,.37-1.08,.89-1.39,1.59-.31,.69-.47,1.48-.47,2.35Zm-1.6,.64c0-.81,.12-1.56,.37-2.25,.24-.69,.65-1.31,1.22-1.86,.57-.55,1.21-.96,1.92-1.24,.71-.28,1.53-.42,2.46-.42,.85,0,1.62,.12,2.31,.36,.7,.24,1.27,.56,1.71,.95,.44,.39,.8,.82,1.05,1.29,.2,.35,.35,.76,.47,1.24,.12,.47,.17,.98,.17,1.52,0,1.73-.58,3.18-1.75,4.33-1.17,1.15-2.64,1.73-4.41,1.73-.81,0-1.56-.13-2.26-.39-.7-.26-1.29-.65-1.77-1.17-.48-.52-.85-1.15-1.1-1.88-.25-.74-.38-1.47-.38-2.19Z"/>
      <path class="cls-1" d="M76.37,203.98v-.49c.54,0,.89-.04,1.07-.12,.07-.03,.12-.08,.15-.15,.05-.1,.09-.37,.11-.81,.03-.68,.05-1.27,.05-1.76v-6.29c0-.17-.01-.28-.03-.33-.04-.09-.13-.2-.28-.33-.09-.08-.2-.14-.32-.16-.12-.02-.39-.04-.81-.04v-.49c.86,.02,1.4,.03,1.62,.03,.38,0,.75-.01,1.12-.03,.44,.57,.76,.99,.96,1.27l1.6,1.97,2.33,2.81c.75,.89,1.35,1.6,1.8,2.12,.29,.34,.53,.61,.73,.8v-5.64c0-.5-.02-1.09-.05-1.77-.02-.43-.05-.69-.1-.8-.04-.07-.09-.12-.16-.15-.17-.07-.52-.11-1.06-.12v-.49c.61,.02,1.22,.03,1.84,.03,.59,0,1.12-.01,1.6-.03v.49c-.54,0-.89,.04-1.06,.12-.07,.03-.12,.08-.15,.15-.05,.1-.09,.37-.11,.81-.03,.68-.05,1.26-.05,1.75v3.71c0,.75,.01,2.15,.04,4.21l-.79-.23-.18-.04s-.06-.02-.08-.05c-.04-.03-.14-.13-.29-.31-.43-.48-.74-.85-.94-1.1l-1-1.26-5.47-6.54v5.92c0,.51,.02,1.1,.05,1.78,.02,.43,.05,.69,.1,.79,.04,.07,.09,.12,.16,.15,.17,.07,.52,.11,1.06,.11v.49c-.45-.04-.95-.05-1.5-.05-.6,0-1.25,.02-1.94,.05Z"/>
      <path class="cls-1" d="M90,203.98v-.49c.54,0,.89-.04,1.07-.12,.07-.03,.12-.08,.15-.15,.05-.1,.09-.37,.11-.81,.03-.68,.05-1.27,.05-1.76v-3.94c0-.7,0-1.38-.02-2.05-.02-.49-.05-.78-.11-.87-.06-.09-.15-.16-.29-.2-.13-.04-.5-.07-1.11-.08v-.49l2.2,.04,2.33-.04c1.11-.02,1.93-.02,2.43-.02s.99,.03,1.44,.09c-.08,.29-.14,.55-.17,.76,0,.04-.06,.58-.14,1.61h-.49c0-.53-.03-1-.1-1.44-.28-.12-.59-.2-.93-.24-.58-.07-1.15-.11-1.73-.11-.12,0-.4,0-.83,.03s-.73,.04-.92,.05c-.02,.57-.04,1.11-.05,1.61l-.03,2.61c.6,.03,1.15,.05,1.66,.05,.61,0,1.14-.03,1.57-.09,.17-.02,.27-.06,.32-.12,.05-.06,.09-.27,.12-.63l.05-.54h.46v.15l-.04,1.61,.04,1.8h-.54l-.02-.53c-.01-.38-.04-.62-.11-.71-.06-.09-.17-.16-.33-.19-.29-.06-.86-.09-1.71-.09-.35,0-.83,.01-1.47,.04-.03,.51-.04,1.28-.04,2.29,0,.95,.01,1.68,.04,2.17,.74,.06,1.57,.09,2.49,.09,.65,0,1.12-.02,1.4-.06,.28-.04,.53-.11,.77-.21,.06-.16,.12-.38,.19-.65,.11-.46,.19-.8,.22-1.03h.51c-.13,1.04-.2,1.9-.2,2.59-.44,.07-.98,.1-1.61,.1l-4.61-.06c-.07,0-.74,.02-2.02,.06Z"/>
      <path class="cls-1" d="M106.94,203.18c.39,.09,.79,.14,1.22,.14,.68,0,1.22-.1,1.64-.31,.42-.21,.74-.52,.96-.94,.22-.42,.34-.91,.34-1.45s-.11-.99-.32-1.36c-.21-.37-.52-.64-.94-.82-.42-.18-1.11-.27-2.07-.27-.22,0-.5,.01-.85,.03v2.93c0,.28,0,.97,.02,2.06Zm-.02-5.63c.29,.02,.55,.02,.77,.02,.64,0,1.13-.05,1.47-.15,.35-.1,.61-.22,.81-.38,.19-.16,.35-.38,.47-.65,.13-.27,.19-.59,.19-.96,0-.64-.2-1.1-.61-1.39-.41-.28-1.01-.43-1.79-.43-.44,0-.85,.04-1.24,.11-.05,.43-.07,1.09-.07,1.98v1.83Zm-2.21,6.42v-.36c.32-.16,.5-.26,.53-.3,.04-.04,.06-.11,.08-.2,.03-.15,.06-.48,.08-.99,.02-.5,.03-.88,.03-1.15v-4.65c0-.5-.01-1.09-.05-1.77-.02-.43-.06-.69-.11-.79-.04-.07-.09-.12-.16-.15-.17-.07-.52-.11-1.06-.11v-.49c.17,0,.38,.01,.64,.01l1.61,.04,2.84-.07c.75,0,1.33,.08,1.74,.23,.41,.15,.73,.4,.95,.75,.23,.35,.34,.73,.34,1.16,0,.34-.07,.66-.2,.96-.14,.3-.32,.56-.55,.77-.23,.22-.49,.4-.76,.53-.28,.14-.65,.26-1.1,.37,.6,.06,1.09,.14,1.46,.25,.37,.11,.68,.28,.93,.5,.25,.22,.44,.48,.57,.8,.13,.31,.19,.66,.19,1.05,0,.76-.23,1.43-.69,2.01-.46,.58-1.05,1.01-1.78,1.29-.54,.21-1.18,.31-1.92,.31l-2.24-.06c-.24,0-.7,.02-1.38,.06Z"/>
      <path class="cls-1" d="M115.89,197.93c0,.49,.05,.99,.15,1.49,.1,.5,.22,.94,.37,1.3,.25,.62,.57,1.14,.97,1.56,.4,.42,.84,.73,1.34,.93,.49,.2,1.04,.3,1.63,.3,.83,0,1.55-.2,2.16-.61,.61-.4,1.07-.97,1.37-1.71,.3-.73,.45-1.58,.45-2.54,0-.82-.11-1.57-.33-2.26-.13-.42-.31-.8-.53-1.15-.22-.34-.49-.64-.79-.89-.31-.25-.7-.47-1.19-.65-.49-.17-1.02-.26-1.58-.26-.82,0-1.54,.18-2.15,.55-.62,.37-1.08,.89-1.39,1.59-.31,.69-.47,1.48-.47,2.35Zm-1.6,.64c0-.81,.12-1.56,.37-2.25,.24-.69,.65-1.31,1.22-1.86,.57-.55,1.21-.96,1.92-1.24,.71-.28,1.53-.42,2.45-.42,.85,0,1.62,.12,2.31,.36,.7,.24,1.27,.56,1.71,.95,.45,.39,.8,.82,1.05,1.29,.2,.35,.35,.76,.47,1.24,.12,.47,.17,.98,.17,1.52,0,1.73-.58,3.18-1.75,4.33-1.17,1.15-2.64,1.73-4.41,1.73-.81,0-1.56-.13-2.26-.39-.7-.26-1.29-.65-1.77-1.17-.48-.52-.85-1.15-1.1-1.88-.25-.74-.38-1.47-.38-2.19Z"/>
      <path class="cls-1" d="M130.36,204.07l-.7-3.22-1.49-6.35c-.11-.45-.21-.71-.31-.8-.1-.09-.42-.16-.96-.22v-.46c.86,.04,1.52,.06,1.96,.06,.4,0,1.07-.02,2.01-.06v.46c-.68,.03-1.07,.06-1.17,.12-.07,.04-.1,.11-.1,.22,0,.13,.03,.36,.09,.69,.17,.92,.28,1.51,.34,1.75l1.21,5.35,1.91-4.75c.5-1.24,.99-2.56,1.47-3.94h.49c.47,1.46,.9,2.71,1.27,3.76l1.81,5.03,1.31-4.61c.23-.82,.45-1.68,.65-2.57,.09-.41,.14-.64,.14-.7,0-.11-.05-.19-.14-.24-.09-.05-.5-.08-1.23-.1v-.46c.79,.04,1.34,.05,1.65,.05s.87-.02,1.65-.05v.46c-.36,0-.59,.04-.71,.11-.12,.07-.22,.19-.29,.36-.08,.17-.29,.85-.65,2.04l-.8,2.6c-.08,.26-.24,.84-.49,1.75l-.99,3.73h-.79c-.57-1.7-1.01-2.97-1.33-3.83l-1.76-4.76-1.54,3.81-.96,2.52c-.13,.35-.25,.65-.34,.92-.1,.27-.25,.71-.46,1.33h-.78Z"/>
      <path class="cls-1" d="M143.48,203.98v-.49c.54,0,.89-.04,1.07-.12,.07-.03,.12-.08,.15-.15,.05-.1,.09-.37,.11-.81,.03-.68,.05-1.27,.05-1.76v-3.94c0-.7,0-1.38-.02-2.05-.01-.49-.05-.78-.11-.87-.06-.09-.15-.16-.29-.2-.13-.04-.5-.07-1.11-.08v-.49l2.2,.04,2.33-.04c1.12-.02,1.93-.02,2.43-.02s.99,.03,1.44,.09c-.08,.29-.14,.55-.17,.76-.01,.04-.06,.58-.14,1.61h-.49c0-.53-.03-1-.1-1.44-.28-.12-.6-.2-.93-.24-.58-.07-1.15-.11-1.73-.11-.12,0-.4,0-.83,.03-.43,.02-.73,.04-.92,.05-.02,.57-.03,1.11-.05,1.61l-.03,2.61c.6,.03,1.15,.05,1.66,.05,.61,0,1.13-.03,1.57-.09,.17-.02,.27-.06,.32-.12,.05-.06,.09-.27,.12-.63l.05-.54h.46v.15l-.04,1.61,.04,1.8h-.54l-.02-.53c0-.38-.04-.62-.1-.71-.06-.09-.17-.16-.34-.19-.29-.06-.86-.09-1.71-.09-.35,0-.83,.01-1.47,.04-.03,.51-.04,1.28-.04,2.29,0,.95,.01,1.68,.04,2.17,.74,.06,1.57,.09,2.49,.09,.65,0,1.12-.02,1.4-.06,.28-.04,.54-.11,.77-.21,.06-.16,.12-.38,.18-.65,.11-.46,.19-.8,.22-1.03h.51c-.13,1.04-.2,1.9-.2,2.59-.44,.07-.98,.1-1.61,.1l-4.61-.06c-.07,0-.74,.02-2.02,.06Z"/>
      <path class="cls-1" d="M153.33,193.51v-.49c.2,0,.51,.01,.92,.02l1.48,.04c.29,0,.75-.01,1.37-.03,.8-.03,1.27-.05,1.4-.05,.98,0,1.7,.09,2.15,.26,.45,.17,.8,.46,1.05,.85,.25,.39,.37,.82,.37,1.29,0,.43-.12,.86-.35,1.29-.23,.43-.57,.78-1.01,1.07-.44,.28-1.01,.5-1.72,.66,.13,.18,.43,.58,.91,1.2l1.95,2.56c.56,.71,.88,1.11,.97,1.19,.05,.04,.09,.06,.14,.08,.08,.03,.25,.04,.51,.04v.49c-.39-.03-.73-.05-1.03-.05s-.68,.02-1.12,.05c-.33-.38-.9-1.14-1.68-2.26-.44-.62-.82-1.14-1.16-1.56-.54-.69-1.06-1.31-1.54-1.88l.08-.23c.27,.02,.47,.02,.61,.02,.94,0,1.65-.22,2.13-.66,.48-.44,.73-1.03,.73-1.75,0-.63-.21-1.14-.63-1.51-.42-.37-1.05-.56-1.89-.56-.53,0-1.05,.08-1.56,.24-.02,.28-.04,.54-.05,.78,0,.07-.02,.82-.05,2.25v3.43c0,.7,.01,1.38,.03,2.05,.01,.49,.05,.78,.11,.87,.06,.09,.15,.16,.29,.21,.13,.04,.5,.07,1.11,.08v.49c-.73-.04-1.4-.06-2.01-.06-.49,0-1.32,.02-2.49,.06v-.49c.61,0,.98-.04,1.11-.08,.13-.04,.23-.1,.28-.18,.06-.1,.1-.35,.12-.75,0-.11,.02-.84,.03-2.19v-3.57c0-.7,0-1.38-.02-2.05-.01-.49-.05-.78-.11-.87-.06-.09-.15-.16-.29-.2-.13-.04-.5-.07-1.11-.08Z"/>
      <path class="cls-1" d="M164.23,193.51v-.49c.54,.02,1.06,.03,1.55,.03s.98-.01,1.43-.03c.45,1.03,.87,1.93,1.24,2.71l2.93,6.02,2.64-5.52c.72-1.5,1.2-2.57,1.44-3.21,.55,.02,1.01,.03,1.38,.03,.35,0,.9-.01,1.68-.03v.49c-.61,.01-.98,.04-1.11,.08-.13,.04-.22,.1-.27,.18-.07,.1-.11,.35-.12,.75,0,.1-.02,.83-.04,2.19v3.57c0,.7,.01,1.38,.03,2.05,.02,.49,.05,.78,.11,.87,.06,.09,.15,.16,.29,.21,.13,.04,.5,.07,1.11,.08v.49c-1.04-.05-1.77-.07-2.2-.07-.34,0-1.11,.02-2.28,.07v-.49c.61,0,.99-.04,1.12-.08,.13-.04,.22-.1,.27-.18,.07-.1,.11-.35,.12-.75,0-.11,.02-.84,.04-2.19v-5.66l-2.66,5.57c-.42,.87-.74,1.57-.98,2.1-.17,.39-.43,1-.77,1.84h-.3c-.07-.2-.13-.35-.19-.47l-.52-1.12-3.69-7.66v5.41c0,.7,.01,1.38,.03,2.05,.02,.49,.05,.78,.11,.87,.06,.09,.15,.16,.29,.21,.13,.04,.5,.07,1.11,.08v.49l-1.86-.06-1.92,.06v-.49c.61,0,.98-.04,1.11-.08,.13-.04,.23-.1,.28-.18,.06-.1,.1-.35,.12-.75,0-.11,.02-.84,.03-2.19v-3.57c0-.7,0-1.38-.02-2.05-.02-.49-.05-.78-.11-.87-.06-.09-.15-.16-.29-.2-.13-.04-.5-.07-1.11-.08Z"/>
      <path class="cls-1" d="M183.14,199.65h3.9l-1.93-4.65-1.97,4.65Zm-3.59,4.33v-.52c.41,0,.66-.02,.76-.05,.1-.03,.19-.08,.28-.16,.08-.08,.21-.29,.37-.62,.09-.19,.43-.91,1-2.17l1.93-4.35c.21-.48,.66-1.54,1.35-3.2h.5l3.3,7.74c.54,1.26,.89,2.04,1.07,2.36,.1,.18,.2,.3,.32,.36,.12,.06,.38,.09,.78,.09v.52c-.8-.05-1.36-.08-1.68-.08l-2.49,.08v-.52c.58,0,.93-.03,1.05-.05,.12-.03,.21-.06,.25-.11,.04-.05,.06-.11,.06-.18,0-.11-.04-.26-.11-.44l-.95-2.36h-4.47l-.84,1.98c-.15,.36-.22,.62-.22,.78,0,.07,.02,.13,.06,.18,.06,.07,.14,.11,.26,.14,.19,.04,.52,.06,1,.07v.52c-.87-.05-1.52-.07-1.95-.07-.5,0-1.05,.02-1.64,.07Z"/>
      <path class="cls-1" d="M192.41,203.98v-.49c.54,0,.89-.04,1.07-.12,.07-.03,.12-.08,.15-.15,.05-.1,.09-.37,.11-.81,.03-.68,.05-1.27,.05-1.76v-6.29c0-.17-.01-.28-.03-.33-.04-.09-.13-.2-.28-.33-.09-.08-.2-.14-.32-.16-.12-.02-.39-.04-.81-.04v-.49c.86,.02,1.4,.03,1.62,.03,.38,0,.75-.01,1.12-.03,.44,.57,.76,.99,.96,1.27l1.6,1.97,2.33,2.81c.75,.89,1.35,1.6,1.8,2.12,.29,.34,.53,.61,.73,.8v-5.64c0-.5-.02-1.09-.05-1.77-.02-.43-.05-.69-.1-.8-.04-.07-.09-.12-.16-.15-.17-.07-.52-.11-1.06-.12v-.49c.61,.02,1.22,.03,1.84,.03,.59,0,1.12-.01,1.6-.03v.49c-.54,0-.89,.04-1.06,.12-.07,.03-.12,.08-.15,.15-.05,.1-.09,.37-.11,.81-.03,.68-.05,1.26-.05,1.75v3.71c0,.75,.01,2.15,.04,4.21l-.79-.23-.18-.04s-.06-.02-.09-.05c-.03-.03-.13-.13-.29-.31-.43-.48-.74-.85-.94-1.1l-1-1.26-5.47-6.54v5.92c0,.51,.02,1.1,.05,1.78,.02,.43,.05,.69,.1,.79,.04,.07,.09,.12,.16,.15,.17,.07,.52,.11,1.06,.11v.49c-.45-.04-.95-.05-1.5-.05-.6,0-1.24,.02-1.94,.05Z"/>
      <path class="cls-1" d="M212.94,203.14c.57,.1,1.16,.15,1.79,.15s1.22-.06,1.72-.17c.5-.11,.92-.27,1.27-.48,.35-.21,.69-.51,1.02-.91,.33-.4,.58-.91,.76-1.54,.18-.62,.27-1.27,.27-1.94,0-.96-.17-1.78-.51-2.47-.34-.69-.86-1.21-1.55-1.58-.69-.37-1.64-.55-2.84-.55-.63,0-1.28,.05-1.93,.15-.01,.25-.03,.7-.04,1.34l-.03,1.12v3.08l.02,2.39c0,.37,.02,.84,.05,1.41Zm-2.39,.84v-.37c.3-.17,.55-.32,.75-.46,.03-.35,.06-.83,.08-1.46,.04-1.06,.05-1.8,.05-2.21v-3.15c0-.5-.02-1.1-.05-1.77-.02-.43-.06-.69-.11-.8-.04-.07-.09-.12-.16-.15-.17-.07-.52-.11-1.06-.11v-.49c.75,.03,1.42,.05,1.99,.05,.44,0,1.05-.01,1.81-.03,.77-.02,1.36-.03,1.78-.03,1.26,0,2.27,.16,3.04,.48,.77,.32,1.42,.86,1.95,1.62,.53,.76,.8,1.68,.8,2.77,0,.78-.13,1.51-.38,2.2-.25,.68-.6,1.28-1.03,1.79-.43,.51-.9,.92-1.39,1.22-.5,.3-1.01,.52-1.56,.67-.54,.15-1.29,.23-2.23,.23-.32,0-.74,0-1.27-.03-.7-.02-1.16-.03-1.37-.03-.31,0-.86,.02-1.65,.06Z"/>
      <path class="cls-1" d="M222.83,193.51v-.49c.2,0,.51,.01,.92,.02l1.48,.04c.29,0,.75-.01,1.37-.03,.8-.03,1.27-.05,1.4-.05,.98,0,1.7,.09,2.15,.26,.45,.17,.8,.46,1.05,.85,.25,.39,.37,.82,.37,1.29,0,.43-.12,.86-.35,1.29-.23,.43-.57,.78-1.01,1.07-.44,.28-1.01,.5-1.72,.66,.13,.18,.43,.58,.91,1.2l1.95,2.56c.56,.71,.88,1.11,.97,1.19,.05,.04,.09,.06,.14,.08,.08,.03,.25,.04,.51,.04v.49c-.39-.03-.73-.05-1.03-.05s-.68,.02-1.12,.05c-.33-.38-.9-1.14-1.68-2.26-.44-.62-.82-1.14-1.16-1.56-.54-.69-1.06-1.31-1.54-1.88l.08-.23c.27,.02,.47,.02,.61,.02,.94,0,1.65-.22,2.13-.66,.48-.44,.73-1.03,.73-1.75,0-.63-.21-1.14-.62-1.51-.42-.37-1.05-.56-1.89-.56-.53,0-1.05,.08-1.56,.24-.02,.28-.04,.54-.05,.78,0,.07-.02,.82-.05,2.25v3.43c0,.7,0,1.38,.03,2.05,0,.49,.04,.78,.1,.87,.06,.09,.15,.16,.29,.21,.13,.04,.5,.07,1.11,.08v.49c-.73-.04-1.4-.06-2.01-.06-.49,0-1.32,.02-2.49,.06v-.49c.61,0,.98-.04,1.11-.08,.13-.04,.23-.1,.28-.18,.06-.1,.1-.35,.12-.75,0-.11,.02-.84,.03-2.19v-3.57c0-.7,0-1.38-.02-2.05-.01-.49-.05-.78-.11-.87-.06-.09-.15-.16-.28-.2-.13-.04-.5-.07-1.12-.08Z"/>
      <path class="cls-1" d="M235.41,202.21c.26,0,.47,.09,.65,.27,.18,.18,.27,.4,.27,.66s-.09,.47-.27,.65c-.18,.18-.4,.27-.65,.27s-.48-.09-.66-.27c-.18-.18-.27-.4-.27-.65s.09-.48,.27-.66c.18-.18,.4-.27,.66-.27Z"/>
      <path class="cls-1" d="M64.65,220.85c.39,.09,.79,.14,1.22,.14,.68,0,1.22-.1,1.64-.31,.42-.21,.74-.52,.96-.94,.22-.42,.34-.91,.34-1.45s-.11-.99-.32-1.36c-.21-.37-.52-.64-.94-.82-.42-.18-1.11-.27-2.07-.27-.22,0-.5,.01-.85,.03v2.93c0,.28,0,.97,.02,2.06Zm-.02-5.63c.29,.02,.55,.02,.77,.02,.64,0,1.13-.05,1.47-.15,.35-.1,.61-.22,.81-.38,.19-.16,.35-.38,.47-.65,.13-.27,.19-.59,.19-.96,0-.64-.2-1.1-.61-1.39-.41-.28-1.01-.43-1.79-.43-.44,0-.85,.04-1.24,.11-.05,.43-.07,1.09-.07,1.98v1.83Zm-2.21,6.42v-.36c.32-.16,.5-.26,.53-.3,.04-.04,.06-.11,.09-.21,.03-.15,.06-.48,.08-.98,.02-.5,.03-.88,.03-1.15v-4.65c0-.5-.02-1.09-.05-1.77-.02-.43-.06-.69-.11-.79-.04-.07-.09-.12-.16-.15-.17-.07-.52-.11-1.06-.12v-.49c.17,0,.38,.01,.64,.01l1.61,.04,2.84-.07c.75,0,1.33,.08,1.74,.23,.41,.15,.73,.4,.95,.75,.23,.35,.34,.73,.34,1.16,0,.34-.07,.66-.21,.96-.14,.3-.32,.56-.55,.77-.23,.22-.49,.4-.76,.53-.28,.14-.65,.26-1.1,.37,.6,.06,1.09,.14,1.46,.25,.37,.11,.68,.28,.93,.5,.25,.22,.44,.48,.57,.8,.13,.31,.19,.66,.19,1.05,0,.76-.23,1.43-.69,2.01-.46,.58-1.05,1.01-1.78,1.29-.54,.21-1.18,.31-1.92,.31l-2.24-.06c-.24,0-.7,.02-1.38,.06Z"/>
      <path class="cls-1" d="M72.17,221.65v-.49c.54,0,.89-.04,1.07-.12,.07-.03,.12-.08,.15-.15,.05-.1,.09-.37,.11-.81,.03-.68,.05-1.27,.05-1.76v-3.94c0-.7,0-1.38-.02-2.05-.02-.49-.05-.78-.11-.87-.06-.09-.15-.16-.29-.2-.13-.04-.5-.07-1.11-.08v-.49l2.2,.04,2.33-.04c1.12-.02,1.93-.02,2.43-.02s.99,.03,1.44,.09c-.08,.29-.14,.55-.17,.76,0,.04-.06,.58-.14,1.61h-.49c0-.53-.03-1-.1-1.44-.28-.12-.59-.2-.93-.24-.58-.07-1.15-.11-1.73-.11-.12,0-.4,.01-.83,.03s-.73,.04-.92,.05c-.02,.57-.04,1.11-.05,1.61l-.03,2.61c.6,.03,1.15,.05,1.66,.05,.61,0,1.13-.03,1.57-.09,.17-.02,.27-.06,.32-.12,.05-.06,.09-.27,.12-.63l.05-.54h.46v.15l-.04,1.6,.04,1.8h-.54l-.02-.53c-.01-.38-.04-.62-.11-.71-.06-.09-.17-.16-.33-.19-.29-.06-.86-.09-1.71-.09-.35,0-.83,.01-1.47,.04-.03,.51-.04,1.28-.04,2.29,0,.95,.01,1.68,.04,2.17,.74,.06,1.57,.09,2.49,.09,.65,0,1.12-.02,1.4-.06s.53-.11,.77-.21c.06-.16,.12-.38,.19-.65,.11-.46,.19-.8,.22-1.03h.51c-.13,1.04-.2,1.9-.2,2.59-.44,.07-.98,.1-1.61,.1l-4.61-.06c-.07,0-.74,.02-2.02,.06Z"/>
      <path class="cls-1" d="M85.53,217.32h3.9l-1.93-4.65-1.97,4.65Zm-3.59,4.33v-.52c.41,0,.66-.02,.76-.05,.1-.03,.19-.08,.28-.16,.08-.08,.21-.29,.37-.62,.09-.19,.43-.91,1-2.17l1.93-4.35c.21-.48,.66-1.54,1.35-3.2h.5l3.3,7.74c.53,1.26,.89,2.04,1.06,2.36,.1,.18,.2,.3,.32,.35,.12,.06,.38,.09,.78,.09v.52c-.8-.05-1.36-.08-1.68-.08l-2.48,.08v-.52c.58,0,.93-.03,1.05-.05,.12-.03,.21-.06,.25-.11,.04-.05,.07-.11,.07-.18,0-.11-.04-.26-.11-.44l-.95-2.36h-4.47l-.84,1.98c-.15,.36-.22,.62-.22,.78,0,.07,.02,.13,.06,.18,.06,.07,.14,.11,.26,.14,.19,.04,.52,.06,1,.07v.52c-.87-.05-1.52-.07-1.95-.07-.5,0-1.05,.02-1.64,.07Z"/>
      <path class="cls-1" d="M97.92,221.72c-.16-.45-.48-1.31-.96-2.59l-2.62-6.49c-.28-.69-.45-1.09-.52-1.2-.05-.07-.11-.12-.19-.15-.11-.05-.4-.09-.85-.12v-.49c.93,.04,1.62,.06,2.06,.06,.42,0,1.12-.02,2.12-.06v.55c-.63,0-.99,.02-1.09,.04-.1,.01-.17,.04-.21,.09-.04,.04-.06,.1-.06,.15s.04,.19,.11,.4c.22,.68,.41,1.24,.58,1.65l2.42,6.1,2.01-5.06c.29-.73,.58-1.51,.84-2.37,.11-.37,.17-.59,.17-.68,0-.12-.07-.21-.2-.25-.1-.04-.5-.08-1.19-.13v-.49c.78,.03,1.36,.04,1.75,.04s.95-.01,1.66-.04v.49c-.39,.01-.62,.04-.7,.08-.08,.04-.15,.11-.22,.22-.05,.08-.24,.49-.57,1.25l-2.41,5.93-.6,1.52c-.12,.3-.22,.57-.3,.79-.08,.22-.16,.48-.25,.77h-.78Z"/>
      <path class="cls-1" d="M104.97,221.65v-.49c.54,0,.89-.04,1.07-.12,.07-.03,.12-.08,.15-.15,.05-.1,.09-.37,.11-.81,.03-.68,.05-1.27,.05-1.76v-3.94c0-.7,0-1.38-.02-2.05-.01-.49-.05-.78-.11-.87-.06-.09-.15-.16-.29-.2-.13-.04-.5-.07-1.11-.08v-.49l2.2,.04,2.33-.04c1.11-.02,1.93-.02,2.43-.02s.99,.03,1.44,.09c-.08,.29-.14,.55-.17,.76,0,.04-.06,.58-.14,1.61h-.49c0-.53-.03-1-.1-1.44-.28-.12-.6-.2-.93-.24-.58-.07-1.15-.11-1.73-.11-.12,0-.4,.01-.83,.03s-.73,.04-.92,.05c-.02,.57-.04,1.11-.05,1.61l-.03,2.61c.6,.03,1.16,.05,1.66,.05,.61,0,1.14-.03,1.57-.09,.17-.02,.27-.06,.32-.12,.05-.06,.09-.27,.12-.63l.05-.54h.46v.15l-.04,1.6,.04,1.8h-.54l-.02-.53c0-.38-.04-.62-.1-.71-.06-.09-.17-.16-.33-.19-.29-.06-.86-.09-1.71-.09-.35,0-.83,.01-1.47,.04-.02,.51-.04,1.28-.04,2.29,0,.95,.01,1.68,.04,2.17,.74,.06,1.57,.09,2.49,.09,.65,0,1.12-.02,1.4-.06,.28-.04,.54-.11,.77-.21,.06-.16,.12-.38,.19-.65,.11-.46,.19-.8,.22-1.03h.51c-.13,1.04-.2,1.9-.2,2.59-.44,.07-.98,.1-1.61,.1l-4.61-.06c-.07,0-.74,.02-2.02,.06Z"/>
      <path class="cls-1" d="M114.82,211.17v-.49c.2,0,.51,.01,.92,.02l1.48,.04c.29,0,.75,0,1.37-.03,.8-.03,1.27-.05,1.4-.05,.98,0,1.7,.09,2.15,.26,.45,.17,.8,.46,1.05,.85,.25,.39,.37,.82,.37,1.29,0,.43-.12,.86-.35,1.29-.23,.43-.57,.78-1.01,1.07-.44,.28-1.01,.5-1.72,.66,.13,.18,.43,.58,.91,1.2l1.95,2.56c.56,.71,.88,1.11,.97,1.19,.05,.04,.09,.06,.14,.08,.08,.03,.25,.04,.51,.04v.49c-.39-.03-.73-.05-1.03-.05s-.68,.02-1.12,.05c-.33-.38-.9-1.14-1.68-2.26-.44-.62-.82-1.14-1.16-1.56-.54-.69-1.06-1.31-1.54-1.88l.08-.23c.27,.02,.47,.02,.61,.02,.94,0,1.65-.22,2.13-.66,.48-.44,.72-1.03,.72-1.75,0-.63-.21-1.14-.62-1.51-.42-.37-1.05-.56-1.89-.56-.53,0-1.05,.08-1.56,.24-.02,.28-.04,.54-.05,.78,0,.07-.02,.82-.05,2.25v3.43c0,.7,.01,1.38,.03,2.05,.01,.49,.05,.78,.11,.87,.06,.09,.15,.16,.29,.21,.13,.04,.5,.07,1.11,.08v.49c-.73-.04-1.4-.06-2.01-.06-.49,0-1.32,.02-2.49,.06v-.49c.61,0,.98-.04,1.11-.08,.13-.04,.23-.1,.28-.18,.06-.1,.1-.35,.12-.75,0-.11,.02-.84,.03-2.19v-3.57c0-.7,0-1.38-.02-2.05-.02-.49-.05-.78-.11-.87-.06-.09-.15-.16-.28-.2-.13-.04-.5-.07-1.12-.08Z"/>
      <path class="cls-1" d="M125.73,213.23h-.48c0-1.23-.03-2.08-.08-2.55,.56,.02,1.44,.04,2.64,.08,.97,.02,1.62,.03,1.95,.03,.35,0,1.16-.01,2.43-.04,.92-.02,1.59-.04,2.02-.06-.06,.57-.1,1.43-.12,2.55h-.49l-.06-.74c-.04-.45-.07-.7-.08-.76-.02-.06-.04-.11-.07-.13-.03-.02-.07-.05-.13-.06-.07-.01-.33-.04-.77-.06-.44-.02-.79-.04-1.05-.04h-.94c-.05,.49-.08,1.16-.08,2v4.51c0,.7,0,1.38,.02,2.05,.02,.49,.05,.78,.11,.87,.06,.09,.15,.16,.29,.2,.13,.04,.5,.07,1.12,.08v.49c-.92-.04-1.61-.06-2.08-.06-.2,0-1,.02-2.41,.06v-.49c.61,0,.99-.04,1.12-.08,.13-.04,.22-.1,.27-.18,.07-.1,.11-.35,.12-.75,0-.11,.01-.84,.03-2.19v-4.5c0-.22,0-.45-.01-.71l-.05-1.3h-1.15c-.66,0-1.19,.03-1.58,.08-.12,.01-.2,.05-.24,.1-.06,.09-.11,.37-.15,.84l-.08,.78Z"/>
      <path class="cls-1" d="M136.63,215.6c0,.49,.05,.99,.15,1.49,.1,.5,.22,.94,.37,1.3,.25,.62,.57,1.14,.97,1.56,.4,.42,.84,.73,1.34,.93,.49,.2,1.04,.3,1.63,.3,.83,0,1.55-.2,2.16-.61,.61-.4,1.07-.97,1.37-1.71,.3-.73,.45-1.58,.45-2.54,0-.82-.11-1.57-.32-2.26-.13-.42-.31-.8-.53-1.15-.22-.34-.48-.64-.79-.89-.31-.25-.7-.47-1.19-.65-.49-.17-1.02-.26-1.58-.26-.82,0-1.54,.18-2.15,.55-.62,.37-1.08,.89-1.39,1.59-.31,.69-.47,1.48-.47,2.35Zm-1.6,.64c0-.81,.12-1.56,.37-2.25,.24-.69,.65-1.31,1.21-1.86,.57-.55,1.21-.96,1.92-1.24,.71-.28,1.53-.42,2.45-.42,.85,0,1.62,.12,2.31,.36,.7,.24,1.27,.56,1.71,.95,.45,.39,.8,.82,1.05,1.29,.2,.35,.35,.76,.47,1.24,.12,.47,.17,.98,.17,1.52,0,1.73-.58,3.18-1.75,4.33-1.17,1.15-2.64,1.73-4.41,1.73-.81,0-1.56-.13-2.26-.39-.7-.26-1.29-.65-1.78-1.17-.48-.52-.85-1.15-1.1-1.88-.25-.74-.38-1.47-.38-2.19Z"/>
      <path class="cls-1" d="M147.91,221.65v-.49c.54,0,.89-.04,1.07-.12,.07-.03,.12-.08,.15-.15,.05-.1,.09-.37,.11-.81,.03-.68,.05-1.27,.05-1.76v-6.29c0-.17-.01-.28-.03-.33-.04-.09-.14-.2-.28-.33-.09-.08-.2-.14-.32-.16-.12-.02-.39-.04-.8-.04v-.49c.86,.02,1.4,.03,1.62,.03,.38,0,.75-.01,1.12-.03,.44,.57,.76,.99,.96,1.26l1.6,1.97,2.33,2.81c.75,.89,1.35,1.6,1.8,2.12,.29,.34,.53,.61,.72,.8v-5.64c0-.5-.02-1.09-.05-1.77-.02-.43-.05-.69-.1-.8-.04-.07-.09-.12-.16-.15-.17-.07-.52-.11-1.06-.12v-.49c.61,.02,1.22,.03,1.84,.03,.59,0,1.12-.01,1.6-.03v.49c-.54,0-.89,.04-1.06,.12-.07,.03-.12,.08-.15,.15-.05,.1-.09,.37-.11,.81-.03,.68-.05,1.26-.05,1.75v3.71c0,.75,.01,2.15,.04,4.21l-.79-.23-.19-.04s-.06-.03-.08-.05c-.04-.03-.13-.13-.29-.31-.43-.48-.74-.85-.94-1.1l-1-1.26-5.47-6.54v5.92c0,.51,.02,1.1,.05,1.78,.02,.43,.05,.69,.1,.79,.04,.07,.09,.12,.16,.15,.17,.07,.52,.11,1.06,.11v.49c-.45-.04-.95-.05-1.5-.05-.6,0-1.25,.02-1.94,.05Z"/>
      <path class="cls-1" d="M160.9,223.81c.39-.65,.67-1.15,.83-1.51s.29-.71,.39-1.06c.05-.17,.11-.55,.19-1.14l.83-.21c.11-.04,.36-.12,.74-.25l.2,.22c-.64,1.49-1.41,2.77-2.33,3.85l-.66,.3-.19-.19Z"/>
      <path class="cls-1" d="M171.68,215.6c0,.49,.05,.99,.15,1.49,.1,.5,.22,.94,.37,1.3,.25,.62,.57,1.14,.97,1.56,.4,.42,.84,.73,1.34,.93,.49,.2,1.04,.3,1.63,.3,.83,0,1.55-.2,2.16-.61,.61-.4,1.07-.97,1.37-1.71,.3-.73,.45-1.58,.45-2.54,0-.82-.11-1.57-.32-2.26-.13-.42-.31-.8-.53-1.15-.22-.34-.49-.64-.79-.89-.31-.25-.7-.47-1.19-.65-.49-.17-1.02-.26-1.58-.26-.82,0-1.54,.18-2.15,.55-.62,.37-1.08,.89-1.39,1.59-.31,.69-.47,1.48-.47,2.35Zm-1.6,.64c0-.81,.12-1.56,.37-2.25,.24-.69,.65-1.31,1.22-1.86,.57-.55,1.21-.96,1.92-1.24,.71-.28,1.53-.42,2.45-.42,.85,0,1.62,.12,2.31,.36,.7,.24,1.27,.56,1.71,.95,.44,.39,.8,.82,1.05,1.29,.19,.35,.35,.76,.47,1.24,.12,.47,.17,.98,.17,1.52,0,1.73-.58,3.18-1.75,4.33-1.17,1.15-2.64,1.73-4.41,1.73-.81,0-1.56-.13-2.26-.39-.7-.26-1.29-.65-1.78-1.17-.48-.52-.85-1.15-1.1-1.88-.25-.74-.38-1.47-.38-2.19Z"/>
      <path class="cls-1" d="M182.87,211.17v-.49c.2,0,.51,.01,.92,.02l1.48,.04c.29,0,.75,0,1.37-.03,.8-.03,1.27-.05,1.4-.05,.98,0,1.7,.09,2.15,.26,.45,.17,.8,.46,1.05,.85,.25,.39,.37,.82,.37,1.29,0,.43-.12,.86-.35,1.29-.23,.43-.57,.78-1.01,1.07-.44,.28-1.01,.5-1.72,.66,.13,.18,.43,.58,.91,1.2l1.95,2.56c.56,.71,.88,1.11,.97,1.19,.05,.04,.09,.06,.14,.08,.08,.03,.25,.04,.51,.04v.49c-.39-.03-.73-.05-1.03-.05s-.68,.02-1.12,.05c-.33-.38-.9-1.14-1.68-2.26-.44-.62-.82-1.14-1.16-1.56-.54-.69-1.06-1.31-1.54-1.88l.08-.23c.27,.02,.47,.02,.61,.02,.94,0,1.65-.22,2.13-.66,.48-.44,.73-1.03,.73-1.75,0-.63-.21-1.14-.63-1.51-.42-.37-1.05-.56-1.89-.56-.53,0-1.05,.08-1.56,.24-.02,.28-.04,.54-.05,.78,0,.07-.02,.82-.05,2.25v3.43c0,.7,.01,1.38,.03,2.05,0,.49,.04,.78,.1,.87,.06,.09,.15,.16,.29,.21,.13,.04,.5,.07,1.11,.08v.49c-.73-.04-1.4-.06-2.01-.06-.49,0-1.33,.02-2.49,.06v-.49c.61,0,.98-.04,1.11-.08,.13-.04,.23-.1,.28-.18,.06-.1,.1-.35,.12-.75,0-.11,.02-.84,.03-2.19v-3.57c0-.7,0-1.38-.02-2.05-.01-.49-.05-.78-.11-.87-.06-.09-.15-.16-.28-.2-.13-.04-.5-.07-1.12-.08Z"/>
      <path class="cls-1" d="M199.56,213.94c0,.44,.08,.87,.23,1.31,.15,.44,.39,.77,.72,1,.33,.24,.71,.35,1.15,.35,.6,0,1.09-.2,1.46-.61,.37-.41,.56-1.02,.56-1.84s-.18-1.49-.53-2.04c-.35-.56-.86-.83-1.54-.83-.59,0-1.07,.22-1.47,.67-.39,.44-.59,1.11-.59,1.99Zm-.71,7.71v-.15c.93-.22,1.74-.57,2.45-1.05,.71-.48,1.27-1.13,1.69-1.96,.33-.65,.54-1.4,.62-2.27-.23,.16-.5,.38-.82,.66-.18,.17-.33,.28-.42,.34-.15,.1-.32,.18-.51,.23-.25,.07-.52,.11-.8,.11-.82,0-1.5-.28-2.03-.83-.53-.56-.8-1.32-.8-2.29,0-1.1,.33-1.99,1-2.67,.67-.68,1.5-1.02,2.51-1.02,.64,0,1.22,.16,1.73,.47,.51,.32,.91,.78,1.2,1.38,.29,.61,.44,1.4,.44,2.36,0,1.2-.22,2.24-.66,3.13-.53,1.09-1.32,1.99-2.35,2.69-.87,.59-1.78,.96-2.72,1.1l-.51-.25Z"/>
      <path class="cls-1" d="M207.16,221.65l-.16-.16c.18-.27,.69-1.06,1.53-2.39,.27-.44,.95-1.54,2.04-3.3,.44-.72,1.04-1.74,1.79-3.05,.07-.11,.16-.28,.28-.51l-.08-.08h-2.39c-.48,0-.98,0-1.49,.03-.51,.02-.83,.05-.94,.1-.07,.03-.11,.06-.15,.1l-.06,.09-.22,1.68h-.45l.04-2.03c0-.34-.01-.76-.04-1.27l.15-.08c.41,.04,.98,.07,1.69,.1,.93,.04,1.53,.05,1.82,.05,.64,0,1.79-.04,3.44-.11v.46l-1.11,1.97c-.24,.43-.81,1.48-1.71,3.15-.63,1.17-1.18,2.26-1.66,3.27-.36,.76-.64,1.42-.85,1.97-.29-.02-.54-.04-.74-.04-.21,0-.45,.01-.71,.04Z"/>
      <path class="cls-1" d="M214.68,221.65v-.43c.16-.2,.45-.51,.86-.94l1.72-1.79c.13-.14,.46-.5,.98-1.09,.39-.45,.7-.86,.92-1.22,.22-.37,.38-.73,.48-1.07,.1-.35,.16-.68,.16-.99,0-.54-.15-1-.45-1.39-.38-.52-.95-.78-1.68-.78-.41,0-.77,.07-1.08,.2-.31,.13-.52,.28-.62,.44-.11,.16-.26,.63-.47,1.39h-.46c.12-.69,.21-1.4,.26-2.13,.32-.31,.59-.53,.81-.66,.22-.13,.49-.24,.81-.32,.32-.08,.67-.12,1.04-.12,.67,0,1.24,.11,1.7,.34,.46,.23,.83,.57,1.11,1.02,.28,.45,.42,.96,.42,1.54,0,.62-.16,1.22-.48,1.82-.32,.6-.97,1.4-1.97,2.39l-1.32,1.31c-.48,.48-.84,.86-1.09,1.14h3.39c.68,0,1.35-.03,2-.1l.05,.06c-.03,.2-.05,.42-.05,.69,0,.24,.02,.44,.05,.6l-.05,.08c-.37-.02-.78-.04-1.25-.05-1.05-.02-1.75-.03-2.11-.03-.45,0-1.2,.01-2.26,.03-.58,0-1.06,.03-1.43,.05Z"/>
      <path class="cls-1" d="M222.98,221.65v-.43c.16-.2,.45-.51,.86-.94l1.72-1.79c.13-.14,.46-.5,.98-1.09,.39-.45,.7-.86,.92-1.22,.22-.37,.38-.73,.48-1.07,.1-.35,.16-.68,.16-.99,0-.54-.15-1-.45-1.39-.38-.52-.95-.78-1.68-.78-.41,0-.77,.07-1.08,.2-.31,.13-.52,.28-.62,.44-.11,.16-.26,.63-.47,1.39h-.46c.12-.69,.21-1.4,.26-2.13,.32-.31,.59-.53,.81-.66,.22-.13,.49-.24,.81-.32s.67-.12,1.04-.12c.67,0,1.24,.11,1.7,.34,.46,.23,.83,.57,1.11,1.02,.28,.45,.42,.96,.42,1.54,0,.62-.16,1.22-.48,1.82-.32,.6-.97,1.4-1.97,2.39l-1.32,1.31c-.48,.48-.84,.86-1.09,1.14h3.39c.68,0,1.35-.03,2-.1l.05,.06c-.03,.2-.05,.42-.05,.69,0,.24,.02,.44,.05,.6l-.05,.08c-.37-.02-.78-.04-1.25-.05-1.05-.02-1.75-.03-2.11-.03-.45,0-1.2,.01-2.26,.03-.58,0-1.06,.03-1.43,.05Z"/>
      <path class="cls-1" d="M232.04,221.48c-.12-.35-.21-.62-.29-.8l-.51-1.26,.38-.22c.46,.84,.75,1.32,.86,1.42,.11,.1,.35,.22,.73,.35,.38,.13,.76,.2,1.15,.2,.52,0,.97-.11,1.35-.32,.39-.21,.69-.54,.9-.97,.21-.43,.32-.95,.32-1.56,0-.9-.24-1.56-.73-1.99-.49-.43-1.06-.65-1.73-.65-.39,0-.75,.07-1.07,.22-.24,.12-.53,.36-.86,.72l-.32-.09,.09-1.91c.01-.29,.02-.52,.02-.7v-1.37c0-.41-.01-.82-.04-1.24-.01-.16-.02-.29-.02-.38l.1-.08c.84,.06,1.72,.09,2.64,.09,.78,0,1.72-.03,2.81-.09l.04,.08c-.04,.26-.05,.5-.05,.71,0,.1,0,.28,.02,.53l-.08,.05c-.72-.05-1.79-.07-3.21-.07-.52,0-1.02,0-1.49,.02-.08,.71-.13,1.78-.15,3.21,.41-.3,.78-.51,1.11-.62,.33-.12,.69-.18,1.09-.18,.6,0,1.14,.13,1.64,.38,.5,.25,.88,.62,1.15,1.1,.27,.48,.4,1,.4,1.57,0,.89-.3,1.72-.91,2.49-.92,1.16-2.15,1.74-3.69,1.74-.34,0-.63-.03-.87-.09-.24-.06-.5-.16-.78-.31Z"/>
    </g>
  </g>
</svg>